<svg width="211" height="239" version="1.1" xmlns="http://www.w3.org/2000/svg" desc="Created with imagetracer.js version 1.2.6" ><path fill="rgb(0,0,0)" stroke="rgb(0,0,0)" stroke-width="1" opacity="0" d="M 0.5 10 L 19 215 L 104 238.5 L 0 239 L 0.5 10 Z " /><path fill="rgb(0,0,0)" stroke="rgb(0,0,0)" stroke-width="1" opacity="0" d="M 210.5 10 L 211 239 L 107 238.5 L 192 215 L 210.5 10 Z " /><path fill="rgb(204,181,60)" stroke="rgb(204,181,60)" stroke-width="1" opacity="0.996078431372549" d="M 1.5 0 L 3 7.5 L 3 9.5 L 2.5 19 L 1.5 0 Z " /><path fill="rgb(204,181,60)" stroke="rgb(204,181,60)" stroke-width="1" opacity="0.996078431372549" d="M 209.5 3 L 210 10.5 L 209 10.5 L 209.5 3 Z " /><path fill="rgb(204,181,60)" stroke="rgb(204,181,60)" stroke-width="1" opacity="0.996078431372549" d="M 208.5 13 L 209 19.5 L 208 20.5 L 207.5 32 L 207 17.5 L 208.5 13 Z " /><path fill="rgb(204,181,60)" stroke="rgb(204,181,60)" stroke-width="1" opacity="0.996078431372549" d="M 3.5 22 L 4 30.5 L 5 31.5 L 3 32 L 3.5 22 Z " /><path fill="rgb(204,181,60)" stroke="rgb(204,181,60)" stroke-width="1" opacity="0.996078431372549" d="M 4.5 33 L 5 41.5 L 4 41.5 L 4.5 33 Z " /><path fill="rgb(204,181,60)" stroke="rgb(204,181,60)" stroke-width="1" opacity="0.996078431372549" d="M 206.5 33 L 207 41.5 L 206 42.5 L 205.5 53 L 205 41.5 L 206.5 33 Z " /><path fill="rgb(204,181,60)" stroke="rgb(204,181,60)" stroke-width="1" opacity="0.996078431372549" d="M 5.5 43 L 6 51.5 L 7 52.5 L 7 63.5 L 6 63.5 L 5.5 43 Z " /><path fill="rgb(204,181,60)" stroke="rgb(204,181,60)" stroke-width="1" opacity="0.996078431372549" d="M 97.5 43 L 98.5 45 L 95.5 46 L 76 46 L 75.5 156 L 46 147.5 L 51.5 147 L 57.5 150 L 75 154 L 75 127.5 L 74 124 Q 71.3 122.9 72 125.5 L 69.5 127 L 66 120 L 68.5 121 L 71.5 117 L 72.5 122 L 75 119.5 L 75 46.5 L 76.5 45 L 95.5 45 L 97.5 43 Z " /><path fill="rgb(204,181,60)" stroke="rgb(204,181,60)" stroke-width="1" opacity="0.996078431372549" d="M 68 44 L 71 44.5 L 68 46 L 68 44 Z " /><path fill="rgb(204,181,60)" stroke="rgb(204,181,60)" stroke-width="1" opacity="0.996078431372549" d="M 99.5 46 L 99 47.5 L 99 187.5 L 97.5 189 L 88.5 187 L 86.5 185 L 81.5 185 Q 79.8 182.2 74.5 183 L 73 181.5 L 75.5 181 L 98 187 L 98 47.5 L 99.5 46 Z " /><path fill="rgb(204,181,60)" stroke="rgb(204,181,60)" stroke-width="1" opacity="0.996078431372549" d="M 204.5 56 L 205 63.5 L 204 64.5 L 203.5 74 L 203 62.5 L 204.5 56 Z " /><path fill="rgb(204,181,60)" stroke="rgb(204,181,60)" stroke-width="1" opacity="0.996078431372549" d="M 7.5 66 L 9 70.5 L 9 86.5 L 11 96 L 9 95.5 L 9 87.5 L 8 86.5 L 7.5 66 Z " /><path fill="rgb(204,181,60)" stroke="rgb(204,181,60)" stroke-width="1" opacity="0.996078431372549" d="M 202.5 80 L 203 84.5 L 202 84.5 L 202.5 80 Z " /><path fill="rgb(204,181,60)" stroke="rgb(204,181,60)" stroke-width="1" opacity="0.996078431372549" d="M 201.5 87 L 202 96.5 L 201 96.5 L 201.5 87 Z " /><path fill="rgb(204,181,60)" stroke="rgb(204,181,60)" stroke-width="1" opacity="0.996078431372549" d="M 10.5 97 L 11 106.5 L 10 106.5 L 10.5 97 Z " /><path fill="rgb(204,181,60)" stroke="rgb(204,181,60)" stroke-width="1" opacity="0.996078431372549" d="M 200.5 99 L 201 107.5 L 200 107.5 L 200.5 99 Z " /><path fill="rgb(204,181,60)" stroke="rgb(204,181,60)" stroke-width="1" opacity="0.996078431372549" d="M 11.5 111 Q 14.5 118.5 13 130.5 L 12 130.5 L 11.5 111 Z " /><path fill="rgb(204,181,60)" stroke="rgb(204,181,60)" stroke-width="1" opacity="0.996078431372549" d="M 199.5 111 L 200 118.5 L 199 118.5 L 199.5 111 Z " /><path fill="rgb(204,181,60)" stroke="rgb(204,181,60)" stroke-width="1" opacity="0.996078431372549" d="M 102 118 Q 104.7 116.9 104 119.5 L 102.5 128 L 101 121.5 L 102 118 Z " /><path fill="rgb(204,181,60)" stroke="rgb(204,181,60)" stroke-width="1" opacity="0.996078431372549" d="M 198.5 121 L 199 130.5 L 198 131.5 L 197.5 142 L 197 130.5 L 198 128.5 L 197 126.5 L 198.5 121 Z " /><path fill="rgb(204,181,60)" stroke="rgb(204,181,60)" stroke-width="1" opacity="0.996078431372549" d="M 13.5 133 L 15 138.5 L 16 158.5 L 17 159.5 L 17 174.5 L 16 174.5 L 16 162.5 L 14 151.5 L 13.5 133 Z " /><path fill="rgb(204,181,60)" stroke="rgb(204,181,60)" stroke-width="1" opacity="0.996078431372549" d="M 36 143 L 45 146.5 L 43.5 147 L 36 145 L 36 143 Z " /><path fill="rgb(204,181,60)" stroke="rgb(204,181,60)" stroke-width="1" opacity="0.996078431372549" d="M 196.5 145 L 197 150.5 L 195 151.5 L 196.5 145 Z " /><path fill="rgb(204,181,60)" stroke="rgb(204,181,60)" stroke-width="1" opacity="0.996078431372549" d="M 34.5 146 L 35 160.5 L 34 160.5 L 34 150.5 L 33 149.5 L 34.5 146 Z " /><path fill="rgb(204,181,60)" stroke="rgb(204,181,60)" stroke-width="1" opacity="0.996078431372549" d="M 195.5 156 L 196 161.5 L 195 161.5 L 195.5 156 Z " /><path fill="rgb(204,181,60)" stroke="rgb(204,181,60)" stroke-width="1" opacity="0.996078431372549" d="M 34.5 162 L 36 168.5 L 34 169 L 34.5 162 Z " /><path fill="rgb(204,181,60)" stroke="rgb(204,181,60)" stroke-width="1" opacity="0.996078431372549" d="M 194.5 167 L 195 173.5 L 194 173.5 L 194.5 167 Z " /><path fill="rgb(204,181,60)" stroke="rgb(204,181,60)" stroke-width="1" opacity="0.996078431372549" d="M 34 170 L 65 178.5 L 60.5 179 L 56.5 177 L 44.5 175 L 42.5 173 L 35.5 173 L 34 171.5 L 34 170 Z " /><path fill="rgb(204,181,60)" stroke="rgb(204,181,60)" stroke-width="1" opacity="0.996078431372549" d="M 17.5 176 L 19 183.5 L 17 182.5 L 17.5 176 Z " /><path fill="rgb(204,181,60)" stroke="rgb(204,181,60)" stroke-width="1" opacity="0.996078431372549" d="M 193.5 176 L 194 183.5 L 193 183.5 L 193.5 176 Z " /><path fill="rgb(204,181,60)" stroke="rgb(204,181,60)" stroke-width="1" opacity="0.996078431372549" d="M 66.5 179 L 72 180.5 L 69.5 181 L 66.5 180 L 66.5 179 Z " /><path fill="rgb(204,181,60)" stroke="rgb(204,181,60)" stroke-width="1" opacity="0.996078431372549" d="M 18.5 185 L 19 193.5 L 18 193.5 L 18.5 185 Z " /><path fill="rgb(204,181,60)" stroke="rgb(204,181,60)" stroke-width="1" opacity="0.996078431372549" d="M 192.5 191 L 193 195.5 L 192 196.5 L 191.5 208 L 191 194.5 L 192.5 191 Z " /><path fill="rgb(204,181,60)" stroke="rgb(204,181,60)" stroke-width="1" opacity="0.996078431372549" d="M 19.5 198 Q 22.5 201 21 208.5 L 20 208.5 L 19.5 198 Z " /><path fill="rgb(204,181,60)" stroke="rgb(204,181,60)" stroke-width="1" opacity="0.996078431372549" d="M 176.5 212 Q 178.8 211.3 178 213.5 L 176.5 212 Z " /><path fill="rgb(204,181,60)" stroke="rgb(204,181,60)" stroke-width="1" opacity="0.996078431372549" d="M 22 213 L 31 216.5 L 29.5 217 L 22 215 L 22 213 Z " /><path fill="rgb(204,181,60)" stroke="rgb(204,181,60)" stroke-width="1" opacity="0.996078431372549" d="M 188.5 213 L 191 213.5 L 187.5 215 L 188.5 213 Z " /><path fill="rgb(204,181,60)" stroke="rgb(204,181,60)" stroke-width="1" opacity="0.996078431372549" d="M 182.5 215 L 185 215.5 L 182.5 216 L 182.5 215 Z " /><path fill="rgb(204,181,60)" stroke="rgb(204,181,60)" stroke-width="1" opacity="0.996078431372549" d="M 32.5 217 L 35 217.5 L 32.5 218 L 32.5 217 Z " /><path fill="rgb(204,181,60)" stroke="rgb(204,181,60)" stroke-width="1" opacity="0.996078431372549" d="M 37 217 Q 40 216 39 219 Q 36 220 37 217 Z " /><path fill="rgb(204,181,60)" stroke="rgb(204,181,60)" stroke-width="1" opacity="0.996078431372549" d="M 49.5 219 L 52 220 L 53 222.5 L 51.5 223 L 47 221.5 L 49 221 L 49.5 219 Z " /><path fill="rgb(204,181,60)" stroke="rgb(204,181,60)" stroke-width="1" opacity="0.996078431372549" d="M 167.5 219 L 171 219.5 L 166.5 221 L 167.5 219 Z " /><path fill="rgb(204,181,60)" stroke="rgb(204,181,60)" stroke-width="1" opacity="0.996078431372549" d="M 160.5 221 L 163 221.5 L 159.5 223 L 160.5 221 Z " /><path fill="rgb(204,181,60)" stroke="rgb(204,181,60)" stroke-width="1" opacity="0.996078431372549" d="M 54.5 223 L 58.5 223 L 67 226.5 L 64.5 227 L 54.5 224 L 54.5 223 Z " /><path fill="rgb(204,181,60)" stroke="rgb(204,181,60)" stroke-width="1" opacity="0.996078431372549" d="M 153.5 223 L 156 223.5 L 151.5 225 L 151.5 224 L 153.5 223 Z " /><path fill="rgb(204,181,60)" stroke="rgb(204,181,60)" stroke-width="1" opacity="0.996078431372549" d="M 141.5 224 Q 145.5 223.5 146 226.5 L 144.5 226 Q 140.7 226.5 141.5 224 Z " /><path fill="rgb(204,181,60)" stroke="rgb(204,181,60)" stroke-width="1" opacity="0.996078431372549" d="M 140.5 227 L 143 227.5 L 140.5 228 L 140.5 227 Z " /><path fill="rgb(204,181,60)" stroke="rgb(204,181,60)" stroke-width="1" opacity="0.996078431372549" d="M 75.5 229 L 80 230.5 L 78.5 231 L 75.5 230 L 75.5 229 Z " /><path fill="rgb(204,181,60)" stroke="rgb(204,181,60)" stroke-width="1" opacity="0.996078431372549" d="M 106.5 229 L 109 229.5 L 106.5 230 L 106.5 229 Z " /><path fill="rgb(204,181,60)" stroke="rgb(204,181,60)" stroke-width="1" opacity="0.996078431372549" d="M 131.5 229 L 135 229.5 L 130.5 231 L 131.5 229 Z " /><path fill="rgb(204,181,60)" stroke="rgb(204,181,60)" stroke-width="1" opacity="0.996078431372549" d="M 82.5 231 L 85 231.5 L 82.5 232 L 82.5 231 Z " /><path fill="rgb(204,181,60)" stroke="rgb(204,181,60)" stroke-width="1" opacity="0.996078431372549" d="M 124.5 231 L 128 231.5 L 122.5 233 L 122.5 232 L 124.5 231 Z " /><path fill="rgb(204,181,60)" stroke="rgb(204,181,60)" stroke-width="1" opacity="0.996078431372549" d="M 118.5 233 L 121 233.5 L 118.5 234 L 118.5 233 Z " /><path fill="rgb(204,181,60)" stroke="rgb(204,181,60)" stroke-width="1" opacity="0.996078431372549" d="M 96.5 234 L 101 236.5 L 99.5 236 Q 95.7 236.5 96.5 234 Z " /><path fill="rgb(204,181,60)" stroke="rgb(204,181,60)" stroke-width="1" opacity="0.996078431372549" d="M 109.5 235 L 112 235.5 L 105.5 238 L 106.5 236 L 109.5 235 Z " /><path fill="rgb(241,230,173)" stroke="rgb(241,230,173)" stroke-width="1" opacity="0.7450980392156863" d="M 0.5 4 L 1 8.5 L 0 8.5 L 0.5 4 Z " /><path fill="rgb(241,230,173)" stroke="rgb(241,230,173)" stroke-width="1" opacity="0.7450980392156863" d="M 210.5 5 L 211 9.5 L 210 9.5 L 210.5 5 Z " /><path fill="rgb(241,230,173)" stroke="rgb(241,230,173)" stroke-width="1" opacity="0.7450980392156863" d="M 1.5 14 L 2 18.5 L 1 18.5 L 1.5 14 Z " /><path fill="rgb(241,230,173)" stroke="rgb(241,230,173)" stroke-width="1" opacity="0.7450980392156863" d="M 209.5 16 L 210 20.5 L 209 20.5 L 209.5 16 Z " /><path fill="rgb(241,230,173)" stroke="rgb(241,230,173)" stroke-width="1" opacity="0.7450980392156863" d="M 2.5 26 L 3 31.5 L 2 31.5 L 2.5 26 Z " /><path fill="rgb(241,230,173)" stroke="rgb(241,230,173)" stroke-width="1" opacity="0.7450980392156863" d="M 208.5 27 L 209 31.5 L 208 31.5 L 208.5 27 Z " /><path fill="rgb(241,230,173)" stroke="rgb(241,230,173)" stroke-width="1" opacity="0.7450980392156863" d="M 3.5 37 L 4 41.5 L 3 41.5 L 3.5 37 Z " /><path fill="rgb(241,230,173)" stroke="rgb(241,230,173)" stroke-width="1" opacity="0.7450980392156863" d="M 207.5 38 L 208 43.5 L 207 43.5 L 207.5 38 Z " /><path fill="rgb(241,230,173)" stroke="rgb(241,230,173)" stroke-width="1" opacity="0.7450980392156863" d="M 4.5 48 L 5 53.5 L 4 53.5 L 4.5 48 Z " /><path fill="rgb(241,230,173)" stroke="rgb(241,230,173)" stroke-width="1" opacity="0.7450980392156863" d="M 97.5 49 L 98 111.5 L 97 111.5 L 97.5 49 Z " /><path fill="rgb(241,230,173)" stroke="rgb(241,230,173)" stroke-width="1" opacity="0.7450980392156863" d="M 206.5 49 L 207 53.5 L 206 53.5 L 206.5 49 Z " /><path fill="rgb(241,230,173)" stroke="rgb(241,230,173)" stroke-width="1" opacity="0.7450980392156863" d="M 5.5 59 L 6 62.5 L 5 62.5 L 5.5 59 Z " /><path fill="rgb(241,230,173)" stroke="rgb(241,230,173)" stroke-width="1" opacity="0.7450980392156863" d="M 205.5 60 L 206 64.5 L 205 64.5 L 205.5 60 Z " /><path fill="rgb(241,230,173)" stroke="rgb(241,230,173)" stroke-width="1" opacity="0.7450980392156863" d="M 6.5 70 L 7 74.5 L 6 74.5 L 6.5 70 Z " /><path fill="rgb(241,230,173)" stroke="rgb(241,230,173)" stroke-width="1" opacity="0.7450980392156863" d="M 7.5 80 L 8 85.5 L 7 85.5 L 7.5 80 Z " /><path fill="rgb(241,230,173)" stroke="rgb(241,230,173)" stroke-width="1" opacity="0.7450980392156863" d="M 203.5 82 L 204 86.5 L 203 86.5 L 203.5 82 Z " /><path fill="rgb(241,230,173)" stroke="rgb(241,230,173)" stroke-width="1" opacity="0.7450980392156863" d="M 8.5 92 L 9 95.5 L 8 95.5 L 8.5 92 Z " /><path fill="rgb(241,230,173)" stroke="rgb(241,230,173)" stroke-width="1" opacity="0.7450980392156863" d="M 202.5 93 L 203 96.5 L 202 96.5 L 202.5 93 Z " /><path fill="rgb(241,230,173)" stroke="rgb(241,230,173)" stroke-width="1" opacity="0.7450980392156863" d="M 114.5 96 L 115 102.5 L 114 102.5 L 114.5 96 Z " /><path fill="rgb(241,230,173)" stroke="rgb(241,230,173)" stroke-width="1" opacity="0.7450980392156863" d="M 9.5 102 L 10 107.5 L 9 107.5 L 9.5 102 Z " /><path fill="rgb(241,230,173)" stroke="rgb(241,230,173)" stroke-width="1" opacity="0.7450980392156863" d="M 201.5 104 L 202 107.5 L 201 107.5 L 201.5 104 Z " /><path fill="rgb(241,230,173)" stroke="rgb(241,230,173)" stroke-width="1" opacity="0.7450980392156863" d="M 10.5 114 L 11 119.5 L 10 119.5 L 10.5 114 Z " /><path fill="rgb(241,230,173)" stroke="rgb(241,230,173)" stroke-width="1" opacity="0.7450980392156863" d="M 97.5 114 L 98 118.5 L 97 118.5 L 97.5 114 Z " /><path fill="rgb(241,230,173)" stroke="rgb(241,230,173)" stroke-width="1" opacity="0.7450980392156863" d="M 200.5 115 L 201 119.5 L 200 119.5 L 200.5 115 Z " /><path fill="rgb(241,230,173)" stroke="rgb(241,230,173)" stroke-width="1" opacity="0.7450980392156863" d="M 11.5 124 L 12 131.5 L 11 131.5 L 11.5 124 Z " /><path fill="rgb(241,230,173)" stroke="rgb(241,230,173)" stroke-width="1" opacity="0.7450980392156863" d="M 199.5 126 L 200 131.5 L 199 131.5 L 199.5 126 Z " /><path fill="rgb(241,230,173)" stroke="rgb(241,230,173)" stroke-width="1" opacity="0.7450980392156863" d="M 97.5 128 L 98 179.5 L 97 179.5 L 97.5 128 Z " /><path fill="rgb(241,230,173)" stroke="rgb(241,230,173)" stroke-width="1" opacity="0.7450980392156863" d="M 12.5 136 L 13 142.5 L 12 142.5 L 12.5 136 Z " /><path fill="rgb(241,230,173)" stroke="rgb(241,230,173)" stroke-width="1" opacity="0.7450980392156863" d="M 198.5 137 L 199 142.5 L 198 142.5 L 198.5 137 Z " /><path fill="rgb(241,230,173)" stroke="rgb(241,230,173)" stroke-width="1" opacity="0.7450980392156863" d="M 13.5 147 L 14 150.5 L 13 150.5 L 13.5 147 Z " /><path fill="rgb(241,230,173)" stroke="rgb(241,230,173)" stroke-width="1" opacity="0.7450980392156863" d="M 197.5 148 L 198 152.5 L 197 152.5 L 197.5 148 Z " /><path fill="rgb(241,230,173)" stroke="rgb(241,230,173)" stroke-width="1" opacity="0.7450980392156863" d="M 14.5 158 L 15 162.5 L 14 162.5 L 14.5 158 Z " /><path fill="rgb(241,230,173)" stroke="rgb(241,230,173)" stroke-width="1" opacity="0.7450980392156863" d="M 196.5 160 L 197 162.5 L 196 162.5 L 196.5 160 Z " /><path fill="rgb(241,230,173)" stroke="rgb(241,230,173)" stroke-width="1" opacity="0.7450980392156863" d="M 15.5 168 L 16 173.5 L 15 173.5 L 15.5 168 Z " /><path fill="rgb(241,230,173)" stroke="rgb(241,230,173)" stroke-width="1" opacity="0.7450980392156863" d="M 195.5 171 L 196 175.5 L 195 175.5 L 195.5 171 Z " /><path fill="rgb(241,230,173)" stroke="rgb(241,230,173)" stroke-width="1" opacity="0.7450980392156863" d="M 16.5 180 L 17 183.5 L 16 183.5 L 16.5 180 Z " /><path fill="rgb(241,230,173)" stroke="rgb(241,230,173)" stroke-width="1" opacity="0.7450980392156863" d="M 194.5 182 L 195 185.5 L 194 185.5 L 194.5 182 Z " /><path fill="rgb(241,230,173)" stroke="rgb(241,230,173)" stroke-width="1" opacity="0.7450980392156863" d="M 17.5 190 L 18 194.5 L 17 194.5 L 17.5 190 Z " /><path fill="rgb(241,230,173)" stroke="rgb(241,230,173)" stroke-width="1" opacity="0.7450980392156863" d="M 193.5 192 L 194 196.5 L 193 196.5 L 193.5 192 Z " /><path fill="rgb(241,230,173)" stroke="rgb(241,230,173)" stroke-width="1" opacity="0.7450980392156863" d="M 18.5 201 L 19 206.5 L 18 206.5 L 18.5 201 Z " /><path fill="rgb(241,230,173)" stroke="rgb(241,230,173)" stroke-width="1" opacity="0.7450980392156863" d="M 192.5 203 L 193 207.5 L 192 207.5 L 192.5 203 Z " /><path fill="rgb(254,251,218)" stroke="rgb(254,251,218)" stroke-width="1" opacity="0.9921568627450981" d="M 78.5 46 L 79 47.5 L 78 48.5 L 77.5 64 L 77 47.5 L 78.5 46 Z " /><path fill="rgb(254,251,218)" stroke="rgb(254,251,218)" stroke-width="1" opacity="0.9921568627450981" d="M 95.5 46 L 97 48.5 L 95 47.5 L 95.5 46 Z " /><path fill="rgb(254,251,218)" stroke="rgb(254,251,218)" stroke-width="1" opacity="0.9921568627450981" d="M 116.5 46 L 180.5 46 L 181 46.5 L 181 59.5 L 180 60.5 L 180 71 L 136.5 71 L 135 72.5 L 135 107.5 Q 135 108.5 139.5 108 L 140.5 107 L 177 104 L 176 108.5 L 174 143.5 L 173 144.5 L 172 167.5 L 169.5 173 L 150.5 177 L 143.5 180 L 139.5 180 L 119.5 186 L 114 186 L 114 162.5 L 115.5 162 L 134.5 157 L 134.5 158 L 125.5 161 L 120.5 161 L 115 164.5 Q 113.3 170.7 116 172.5 L 115 177.5 L 116 180.5 L 115 183.5 L 118.5 185 L 130.5 181 L 134.5 181 L 137.5 179 L 143 179 L 143.5 177 L 145.5 177 L 170 171 L 174 128.5 L 173 125.5 L 175 116.5 L 175 105 L 143.5 108 L 135.5 110 Q 132.4 108.6 133 103.5 L 134 98.5 L 133 97.5 L 133 80.5 L 134 75.5 L 133 71.5 Q 134.7 68.2 140.5 69 L 141.5 70 L 174.5 70 L 179 67.5 L 179 48.5 L 177.5 47 L 129.5 47 Q 128.3 49.2 123.5 48 L 119.5 47 L 115 49.5 L 116 124.5 L 117 129.5 L 116 134.5 L 118.5 136 L 119.5 135 L 137.5 133 L 142.5 131 L 149.5 131 L 156 129 L 157 131.5 L 157 150.5 L 154.5 153 L 136.5 157 L 136.5 156 L 153.5 152 L 155 150.5 L 156 140.5 L 155 138.5 L 156 137.5 L 156 131 L 116.5 138 L 115 136.5 L 114 47 L 116.5 46 Z " /><path fill="rgb(254,251,218)" stroke="rgb(254,251,218)" stroke-width="1" opacity="0.9921568627450981" d="M 77.5 88 L 78 119.5 L 77 119.5 L 77.5 88 Z " /><path fill="rgb(254,251,218)" stroke="rgb(254,251,218)" stroke-width="1" opacity="0.9921568627450981" d="M 96.5 112 L 97 114.5 L 96 114.5 L 96.5 112 Z " /><path fill="rgb(254,251,218)" stroke="rgb(254,251,218)" stroke-width="1" opacity="0.9921568627450981" d="M 77.5 123 L 78 144.5 L 77 144.5 L 77.5 123 Z " /><path fill="rgb(254,251,218)" stroke="rgb(254,251,218)" stroke-width="1" opacity="0.9921568627450981" d="M 36 146 L 46 148.5 L 40.5 149 L 37.5 147 L 36.5 150 L 36 146 Z " /><path fill="rgb(254,251,218)" stroke="rgb(254,251,218)" stroke-width="1" opacity="0.9921568627450981" d="M 36.5 151 L 37 168.5 L 38 169.5 L 36 170 L 36.5 151 Z " /><path fill="rgb(254,251,218)" stroke="rgb(254,251,218)" stroke-width="1" opacity="0.9921568627450981" d="M 55.5 151 L 61 152.5 L 58.5 153 L 55.5 152 L 55.5 151 Z " /><path fill="rgb(254,251,218)" stroke="rgb(254,251,218)" stroke-width="1" opacity="0.9921568627450981" d="M 66.5 154 L 75 156.5 L 72.5 157 L 66.5 155 L 66.5 154 Z " /><path fill="rgb(254,251,218)" stroke="rgb(254,251,218)" stroke-width="1" opacity="0.9921568627450981" d="M 42.5 171 L 49 172.5 L 45.5 173 L 42.5 172 L 42.5 171 Z " /><path fill="rgb(254,251,218)" stroke="rgb(254,251,218)" stroke-width="1" opacity="0.9921568627450981" d="M 50.5 173 L 59 175.5 L 56.5 176 L 50.5 174 L 50.5 173 Z " /><path fill="rgb(254,251,218)" stroke="rgb(254,251,218)" stroke-width="1" opacity="0.9921568627450981" d="M 60.5 176 L 63 176.5 L 60.5 177 L 60.5 176 Z " /><path fill="rgb(254,251,218)" stroke="rgb(254,251,218)" stroke-width="1" opacity="0.9921568627450981" d="M 64.5 177 L 67 177.5 L 64.5 178 L 64.5 177 Z " /><path fill="rgb(254,251,218)" stroke="rgb(254,251,218)" stroke-width="1" opacity="0.9921568627450981" d="M 71.5 179 L 74 179.5 L 71.5 180 L 71.5 179 Z " /><path fill="rgb(254,251,218)" stroke="rgb(254,251,218)" stroke-width="1" opacity="0.9921568627450981" d="M 75.5 180 L 78 180.5 L 75.5 181 L 75.5 180 Z " /><path fill="rgb(254,251,218)" stroke="rgb(254,251,218)" stroke-width="1" opacity="0.9921568627450981" d="M 79.5 181 L 82 181.5 L 79.5 182 L 79.5 181 Z " /><path fill="rgb(254,251,218)" stroke="rgb(254,251,218)" stroke-width="1" opacity="0.9921568627450981" d="M 83.5 182 L 90 183.5 L 86.5 184 L 83.5 183 L 83.5 182 Z " /><path fill="rgb(254,251,218)" stroke="rgb(254,251,218)" stroke-width="1" opacity="0.9921568627450981" d="M 96.5 183 L 97 186 L 94 185.5 L 96 185 L 96.5 183 Z " /><path fill="rgb(252,214,60)" stroke="rgb(252,214,60)" stroke-width="1" opacity="1" d="M 183.5 20 L 184.5 21 L 191 21 L 188.5 26 L 189 24.5 Q 189.7 21.9 187 23 L 186.5 27 L 186 25 L 177.5 26 L 113.5 26 Q 110.5 25.2 112 29 L 114.5 30 L 177.5 29 L 181.5 28 Q 183.8 32.2 186 30.5 Q 187 35 184.5 36 L 183.5 34 Q 186.1 34.7 185 32 L 182.5 33 L 176 32 Q 174.3 37.2 178 36 L 178.5 34 L 179 36 L 181 36.5 L 178 38.5 L 179 41.5 L 178.5 43 L 180 43.5 L 178.5 44 L 176.5 43 L 174.5 44 L 174.5 43 L 176 42.5 L 160.5 42 L 160.5 43 L 169 43.5 L 152.5 45 L 152.5 44 L 160 43.5 L 144 42.5 L 175 40.5 L 136.5 40 L 136.5 41 L 143 41.5 L 136.5 42 L 135.5 41 L 127 40.5 L 128 38 L 137.5 38 L 138.5 39 L 143.5 38 L 175.5 38 L 176 36 L 128.5 36 L 123.5 34 L 118.5 37 L 117 36.5 Q 116.5 39.5 123.5 38 L 123 39.5 L 124.5 42 Q 130.8 40.1 129 45 Q 124.4 46.3 123 43.5 L 123.5 42 L 120.5 41 L 119 41.5 Q 119.9 38.5 115.5 40 L 114 40.5 L 113.5 38 L 113 40 Q 109.7 38.9 111 43 L 114 43.5 L 110 44 Q 111.5 38.2 108 36.5 L 108 31.5 L 109 31.5 Q 108.3 36.3 110.5 38 L 111 24.5 L 111 22.5 L 111.5 21 L 177.5 21 L 179.5 21 L 183.5 20 Z M 115 32 L 116 34 L 122 34 L 122 32 L 115 32 Z M 143 32 L 142 34 L 160 34 L 159 32 L 143 32 Z " /><path fill="rgb(252,214,60)" stroke="rgb(252,214,60)" stroke-width="1" opacity="1" d="M 108.5 23 L 109 25.5 L 108 25.5 L 108.5 23 Z " /><path fill="rgb(252,214,60)" stroke="rgb(252,214,60)" stroke-width="1" opacity="1" d="M 188.5 37 L 190.5 40 Q 186.8 38.8 188 42.5 L 187 42.5 L 188.5 37 Z " /><path fill="rgb(252,214,60)" stroke="rgb(252,214,60)" stroke-width="1" opacity="1" d="M 185.5 38 L 186 40 L 184 40.5 L 186 41 Q 187.3 44 183.5 43 L 183 40.5 L 185.5 38 Z " /><path fill="rgb(252,214,60)" stroke="rgb(252,214,60)" stroke-width="1" opacity="1" d="M 189.5 41 L 190 43.5 L 189 43.5 L 189.5 41 Z " /><path fill="rgb(252,214,60)" stroke="rgb(252,214,60)" stroke-width="1" opacity="1" d="M 130.5 43 L 138.5 44 L 143 43 Q 144.1 46.5 136.5 45 Q 135.3 42.7 130.5 44 L 130.5 43 Z " /><path fill="rgb(252,214,60)" stroke="rgb(252,214,60)" stroke-width="1" opacity="1" d="M 187.5 44 L 188 46.5 L 186.5 48 L 186 45.5 L 187.5 44 Z " /><path fill="rgb(252,214,60)" stroke="rgb(252,214,60)" stroke-width="1" opacity="1" d="M 111.5 49 L 113 69.5 L 112 70.5 L 112 101.5 L 113 102.5 L 113 112 L 110.5 113 L 110 111.5 Q 112.3 110.3 111 105.5 L 110 104.5 L 110 95.5 L 111 94.5 L 111 81.5 L 110 80.5 L 110 53.5 L 111.5 49 Z " /><path fill="rgb(252,214,60)" stroke="rgb(252,214,60)" stroke-width="1" opacity="1" d="M 186 49 Q 190 47.6 188 54.5 L 187 54.5 L 186 49 Z " /><path fill="rgb(252,214,60)" stroke="rgb(252,214,60)" stroke-width="1" opacity="1" d="M 183.5 50 L 187 58.5 L 184.5 64 L 183 63.5 L 183 56.5 L 184 54.5 L 183.5 50 Z M 185 56 L 184 60 L 185 60 L 185 56 Z " /><path fill="rgb(252,214,60)" stroke="rgb(252,214,60)" stroke-width="1" opacity="1" d="M 182.5 66 L 186 67.5 L 188 70.5 L 186.5 70 Q 183.9 70.7 185 68 L 183 68 L 182.5 70 L 182.5 66 Z " /><path fill="rgb(252,214,60)" stroke="rgb(252,214,60)" stroke-width="1" opacity="1" d="M 181.5 71 L 183.5 72 L 185 71.5 L 184 77 L 176.5 79 L 176 76 L 144.5 76 L 144 73 L 174.5 73 L 180 74.5 L 176 75.5 L 179.5 77 L 182 76 L 183 72 L 181.5 71 Z " /><path fill="rgb(252,214,60)" stroke="rgb(252,214,60)" stroke-width="1" opacity="1" d="M 139.5 73 L 142 76.5 L 141 80 L 138 81.5 L 138 94.5 L 140.5 101 L 143.5 99 L 142.5 102 L 151.5 101 L 155.5 99 L 159.5 100 L 164.5 97 L 167.5 98 L 170 98.5 L 168 99 L 168 103 L 159.5 103 L 157.5 103 L 147.5 102 L 147.5 104 L 143.5 105 Q 141.5 102.2 137 103 L 138 96.5 L 137 95.5 L 137 80.5 L 139 76.5 L 138 74.5 L 139.5 73 Z M 161 100 L 161 101 L 163 101 L 161 100 Z " /><path fill="rgb(252,214,60)" stroke="rgb(252,214,60)" stroke-width="1" opacity="1" d="M 144 78 L 174.5 78 Q 175.8 78.3 175 84.5 L 176 85.5 L 176 95 Q 181.3 96.8 179 89.5 Q 176.3 87.8 178 81.5 Q 178.8 79.3 182.5 80 L 185 81 L 183 86.5 L 183 94.5 L 181.5 96 L 179 97.5 L 177.5 100 Q 175.3 100.8 176 98.5 L 174.5 96 L 171.5 97 L 170.5 96 L 154.5 96 Q 153.7 98.8 149.5 98 L 146.5 97 L 144.5 97 L 141 94.5 L 141 81.5 L 142.5 81 L 144 78 Z M 177 96 Q 175 99 178 98 L 177 96 Z " /><path fill="rgb(252,214,60)" stroke="rgb(252,214,60)" stroke-width="1" opacity="1" d="M 170 100 L 172 100.5 L 170.5 103 L 170 100 Z " /><path fill="rgb(252,214,60)" stroke="rgb(252,214,60)" stroke-width="1" opacity="1" d="M 181.5 104 L 183 111.5 L 182 111.5 L 180 107.5 L 181.5 104 Z " /><path fill="rgb(252,214,60)" stroke="rgb(252,214,60)" stroke-width="1" opacity="1" d="M 180 113 Q 183 111.8 182 115.5 L 180.5 120 L 180 113 Z " /><path fill="rgb(252,214,60)" stroke="rgb(252,214,60)" stroke-width="1" opacity="1" d="M 178.5 116 L 179 130.5 L 177.5 133 L 177 131.5 L 178 127.5 L 177 122.5 L 178.5 116 Z " /><path fill="rgb(252,214,60)" stroke="rgb(252,214,60)" stroke-width="1" opacity="1" d="M 110.5 117 L 111 119.5 L 110 119.5 L 110.5 117 Z " /><path fill="rgb(252,214,60)" stroke="rgb(252,214,60)" stroke-width="1" opacity="1" d="M 112.5 117 L 113 120.5 L 112 120.5 L 112.5 117 Z " /><path fill="rgb(252,214,60)" stroke="rgb(252,214,60)" stroke-width="1" opacity="1" d="M 180.5 123 L 182 126.5 L 180 127.5 L 180.5 123 Z " /><path fill="rgb(252,214,60)" stroke="rgb(252,214,60)" stroke-width="1" opacity="1" d="M 110.5 128 Q 114.7 126.7 113 131.5 L 112 134.5 Q 114.3 135.8 111.5 137 L 110.5 128 Z " /><path fill="rgb(252,214,60)" stroke="rgb(252,214,60)" stroke-width="1" opacity="1" d="M 152.5 134 L 154 136.5 L 152 135.5 L 152.5 134 Z " /><path fill="rgb(252,214,60)" stroke="rgb(252,214,60)" stroke-width="1" opacity="1" d="M 140 135 Q 144.6 133.8 146 136.5 Q 145.3 139.1 148 138 Q 146.9 135.3 149.5 136 L 153 138.5 L 151.5 138 L 150 138.5 L 150 145 Q 153.3 143.9 152 148 Q 147.9 146.7 149 150 L 145 150 Q 146.3 146.7 141.5 148 L 141.5 146 L 137 145.5 Q 138.8 141.2 140.5 144 Q 143.8 142.9 143 145.5 L 145.5 148 L 149 144.5 L 144.5 137 L 143.5 138 L 134.5 138 L 126 141.5 L 131.5 143 L 134 142 Q 132.9 144.7 135.5 144 L 135.5 145 L 127.5 144 L 125.5 142 L 118.5 142 L 115.5 143 L 115.5 142 L 122 140 L 122.5 138 L 123 140 L 128 139 L 128 137 L 139.5 137 L 140 135 Z " /><path fill="rgb(252,214,60)" stroke="rgb(252,214,60)" stroke-width="1" opacity="1" d="M 111.5 138 L 112 141 Q 114.7 139.9 114 142.5 L 112 145.5 Q 114.2 149.2 116.5 144 L 122.5 143 L 124.5 146 L 122.5 147 L 120.5 147 L 118.5 146 L 118 147.5 L 118 149.5 Q 119 153.3 116 152 L 115.5 150 L 114 152.5 L 114.5 154 Q 110.3 152.7 112 157.5 L 114 160.5 L 112.5 165 L 111.5 163 L 111 167.5 L 113 177.5 L 111 178.5 L 110 175.5 L 110 143.5 L 111.5 138 Z " /><path fill="rgb(252,214,60)" stroke="rgb(252,214,60)" stroke-width="1" opacity="1" d="M 177.5 138 L 178.5 140 L 177.5 139 L 175 140.5 L 177.5 138 Z " /><path fill="rgb(252,214,60)" stroke="rgb(252,214,60)" stroke-width="1" opacity="1" d="M 138 140 Q 143.2 138.3 142 142 Q 136.8 143.7 138 140 Z " /><path fill="rgb(252,214,60)" stroke="rgb(252,214,60)" stroke-width="1" opacity="1" d="M 143 140 L 145 140.5 L 143 141.5 L 143 140 Z " /><path fill="rgb(252,214,60)" stroke="rgb(252,214,60)" stroke-width="1" opacity="1" d="M 177.5 142 L 179 148.5 L 177 147.5 L 177.5 142 Z " /><path fill="rgb(252,214,60)" stroke="rgb(252,214,60)" stroke-width="1" opacity="1" d="M 128.5 145 L 132 146 L 131.5 149 L 128 148 L 128.5 145 Z " /><path fill="rgb(252,214,60)" stroke="rgb(252,214,60)" stroke-width="1" opacity="1" d="M 133 148 L 137.5 148 L 144 150.5 L 136.5 152 L 133 149.5 L 133 148 Z " /><path fill="rgb(252,214,60)" stroke="rgb(252,214,60)" stroke-width="1" opacity="1" d="M 124.5 150 L 128 151.5 L 128.5 153 L 130.5 152 L 133 152.5 L 134 154.5 L 131.5 155 L 129.5 153 L 127 154.5 L 127.5 153 L 125.5 154 L 120 152.5 L 124.5 150 Z " /><path fill="rgb(252,214,60)" stroke="rgb(252,214,60)" stroke-width="1" opacity="1" d="M 175.5 152 L 176.5 154 L 177.5 152 L 178 154.5 L 176 156.5 L 175 162 L 178 163.5 L 179 170.5 L 178 170.5 L 177.5 168 L 175.5 172 L 174 169.5 L 175 166.5 L 175.5 164 L 177 164.5 Q 177.8 162.3 175.5 163 L 174 160.5 L 175.5 152 Z " /><path fill="rgb(252,214,60)" stroke="rgb(252,214,60)" stroke-width="1" opacity="1" d="M 118.5 153 L 123 154.5 L 120 156.5 L 120 159 L 114 159 Q 112.9 156.3 115.5 157 L 118.5 153 Z " /><path fill="rgb(252,214,60)" stroke="rgb(252,214,60)" stroke-width="1" opacity="1" d="M 174.5 173 L 177 174.5 L 175 176.5 L 175 201 L 172.5 202 L 172 200 L 161.5 200 L 160 201.5 L 163 203.5 L 161.5 203 Q 159.3 202.3 160 204.5 L 159 207 L 143.5 207 Q 142.5 210 137.5 209 L 134 208 L 133.5 210 Q 132.8 207.3 128.5 208 L 128.5 209 L 131 209.5 L 128 211.5 L 128.5 210 Q 121.5 208.5 122 211.5 L 124 211.5 L 116.5 215 L 113 214 L 111.5 217 L 110 208.5 L 111 207.5 L 111.5 190 L 113 190.5 L 113.5 187 L 115 190.5 L 112 192.5 L 117.5 193 L 120 191.5 L 118 188 L 121 189.5 Q 118.8 190.8 121.5 192 Q 125.3 193.3 124 189.5 L 125.5 190 Q 127.8 190.8 127 188.5 L 124 186.5 L 127.5 186 L 133 188.5 Q 130.2 190.2 134.5 192 Q 138.8 192.8 139.5 190 L 145 190 L 146 185.5 L 143.5 185 Q 138.9 187.8 132 187 Q 130.9 184.3 133.5 185 L 143.5 182 Q 145 184.5 146.5 181 L 148 181.5 L 146 182 L 146 184 Q 149.8 182.5 149 185.5 L 152 186.5 L 151 189 L 155 189.5 L 146 191.5 Q 151.4 194.3 160 193 L 160.5 196 L 170 196 L 170 194 Q 164.8 195.7 166 192 L 161.5 192 Q 158.8 190.8 160 185.5 L 161 183.5 L 159.5 180 L 156 182.5 L 157 179.5 Q 154.8 178.2 157.5 177 L 159.5 177 Q 170.5 178.5 174.5 173 Z M 148 185 L 147 188 L 148 188 L 148 185 Z M 128 190 L 126 193 L 129 192 Q 130 189 128 190 Z M 114 207 Q 111 208 112 213 L 118 212 L 117 211 L 119 209 L 122 210 L 124 209 L 114 207 Z " /><path fill="rgb(252,214,60)" stroke="rgb(252,214,60)" stroke-width="1" opacity="1" d="M 108.5 177 L 109 179.5 L 108 179.5 L 108.5 177 Z " /><path fill="rgb(252,214,60)" stroke="rgb(252,214,60)" stroke-width="1" opacity="1" d="M 153.5 180 Q 155.8 179.3 155 181.5 L 153.5 180 Z " /><path fill="rgb(252,214,60)" stroke="rgb(252,214,60)" stroke-width="1" opacity="1" d="M 108.5 182 L 109 184.5 L 108 184.5 L 108.5 182 Z " /><path fill="rgb(252,214,60)" stroke="rgb(252,214,60)" stroke-width="1" opacity="1" d="M 149.5 182 L 152 183.5 L 150.5 184 L 149.5 182 Z " /><path fill="rgb(252,214,60)" stroke="rgb(252,214,60)" stroke-width="1" opacity="1" d="M 154.5 186 L 159 187.5 L 155.5 188 L 154.5 186 Z " /><path fill="rgb(252,214,60)" stroke="rgb(252,214,60)" stroke-width="1" opacity="1" d="M 108.5 187 L 109 192.5 L 108 192.5 L 108.5 187 Z " /><path fill="rgb(252,214,60)" stroke="rgb(252,214,60)" stroke-width="1" opacity="1" d="M 163.5 201 L 168 201.5 L 163.5 202 L 163.5 201 Z " /><path fill="rgb(252,214,60)" stroke="rgb(252,214,60)" stroke-width="1" opacity="1" d="M 164.5 203 L 168 203.5 L 164.5 204 L 164.5 203 Z " /><path fill="rgb(252,214,60)" stroke="rgb(252,214,60)" stroke-width="1" opacity="1" d="M 165.5 205 L 168 205.5 L 165.5 206 L 165.5 205 Z " /><path fill="rgb(252,214,60)" stroke="rgb(252,214,60)" stroke-width="1" opacity="1" d="M 136.5 210 L 140 210.5 L 136.5 211 L 136.5 210 Z " /><path fill="rgb(252,214,60)" stroke="rgb(252,214,60)" stroke-width="1" opacity="1" d="M 108.5 212 L 109 215.5 L 108 215.5 L 108.5 212 Z " /><path fill="rgb(213,185,50)" stroke="rgb(213,185,50)" stroke-width="1" opacity="0.996078431372549" d="M 2.5 0 L 3 6.5 L 2 6.5 L 2.5 0 Z " /><path fill="rgb(213,185,50)" stroke="rgb(213,185,50)" stroke-width="1" opacity="0.996078431372549" d="M 4 0 Q 6.7 -1.1 6 1.5 L 7 1.5 L 7.5 0 L 209.5 0 Q 212.8 1.8 209 3.5 L 209 12.5 Q 206 16.8 207 24 L 204 25.5 L 204.5 33 L 206.5 32 L 206 33.5 Q 207 43.6 203 48 L 205 48.5 L 205 55.5 L 202 65.5 Q 204.3 66.8 203 71.5 L 202 74.5 L 203 77.5 L 202 77.5 L 200.5 72 L 200 87.5 L 201 90.5 L 200 95.5 L 201 98.5 L 200 99.5 L 199.5 111 L 198 110.5 L 196 113.5 L 195 128.5 L 196 128.5 L 197.5 118 L 199 120.5 L 197 127.5 L 198 129.5 L 197 135 L 195 135.5 L 197 136 L 197 144.5 L 195 151.5 L 196 155.5 L 195 155.5 L 193.5 150 L 192 159 L 194.5 158 L 194 159.5 L 195 166.5 L 194 167.5 L 193.5 176 L 192.5 168 L 192 187.5 L 193 190.5 Q 190 193.8 191 200 L 188 200 L 188 208 L 191 208.5 L 185 209.5 Q 189.6 208.9 191 211.5 Q 191.8 214.1 188.5 213 L 186 214 L 185.5 211 L 184.5 214 L 182 214 Q 183.1 216.7 180.5 216 Q 179 218.5 177.5 215 L 168.5 216 L 166.5 218 L 160 216 Q 158.7 219.7 164.5 218 L 167 219.5 L 160.5 221 L 158.5 223 L 153.5 223 L 150.5 225 L 141.5 227 L 138.5 226 L 138.5 227 L 140 227.5 L 136.5 229 L 134.5 229 L 120.5 233 L 116.5 232 L 116.5 233 L 118 233.5 L 114.5 235 L 112.5 234 L 112.5 236 L 109.5 235 L 105.5 236 L 103 235.5 L 106 234 Q 107.1 231.3 104.5 232 L 101.5 233 L 99 232 L 99 234 Q 101.7 232.9 101 235.5 L 99.5 235 L 96.5 233 L 96 235 L 88 233 L 86.5 229 L 80 228 L 81 230.5 L 79.5 230 L 71 227.5 L 73.5 227 Q 74.7 229.3 79.5 228 L 78.5 226 L 71.5 225 Q 70.3 227.3 65.5 226 L 58.5 223 L 53.5 223 L 52 221.5 L 53.5 221 L 56 222 Q 57.3 219 53.5 220 Q 52.3 217.8 47.5 219 L 47.5 220 L 49 220.5 L 45.5 221 L 42 219.5 L 44 218.5 L 40.5 218 L 39 218.5 Q 40 216 44.5 217 L 47.5 218 L 47.5 217 L 38.5 216 L 35.5 218 L 32.5 216 L 31 216.5 L 32 214 L 35 213.5 Q 34.3 211.3 30.5 212 L 28 213 L 28 208 L 25.5 208 L 22.5 213 L 20 212.5 L 22 212 Q 23.1 209.3 20.5 210 L 20.5 209 Q 23.8 210.1 23 207.5 L 24 205.5 L 22.5 201 L 21.5 208 Q 22.4 200.6 19 197.5 L 20.5 195 L 21 200 Q 23.7 201.1 23 198.5 L 22 197.5 L 21.5 180 L 20 181.5 L 19.5 190 L 18 184.5 L 19 182.5 L 18 181.5 L 18 175 L 20 174.5 L 20 168 L 17 168 L 17 159.5 L 16 158.5 L 16 145.5 L 15 144.5 Q 17.8 142.7 16 136.5 L 15 136.5 L 14.5 138 L 13 131.5 L 14 128.5 L 13 127.5 L 12 104.5 L 10 96.5 L 11.5 94 L 13 96.5 Q 10.5 98 12 103.5 L 13 103.5 L 13.5 100 L 14.5 104 L 15 97.5 L 14 92 Q 10.7 93.3 12 88.5 L 11 88.5 L 10.5 93 L 9 86.5 L 12 85.5 Q 10.5 78.5 14 79.5 L 14 73.5 L 10 72 L 9.5 80 Q 10.1 70.5 7 64.5 L 8 61.5 L 7 60.5 L 5 37.5 L 7 37.5 L 7 28.5 L 5.5 27 L 4.5 31 L 4 22.5 L 3 21.5 L 6 13.5 L 6 6.5 L 5 6.5 L 3.5 16 L 2 8.5 L 4 8 L 4 0 Z M 8 4 L 7 8 L 8 8 L 8 4 Z M 8 16 L 7 21 L 8 21 L 8 16 Z M 113 16 L 104 19 L 106 22 L 106 24 L 106 176 L 105 128 L 104 188 L 103 191 L 104 193 L 105 220 L 105 180 L 106 180 L 106 222 L 108 222 L 108 224 Q 110 225 109 223 L 113 220 L 117 220 L 125 217 L 127 218 L 129 217 Q 132 218 131 215 L 134 216 L 137 216 L 135 215 L 142 212 L 145 213 L 149 213 L 146 212 L 150 210 L 151 211 L 150 211 L 150 212 Q 154 213 152 209 L 157 208 Q 159 207 158 210 Q 161 211 160 208 L 164 208 L 164 206 L 172 204 L 171 206 L 175 207 L 176 207 L 175 205 L 175 203 L 177 204 L 181 192 L 181 173 L 180 172 L 181 168 L 180 160 L 182 160 L 180 155 Q 179 149 182 148 L 181 144 L 182 140 L 182 144 L 183 144 L 182 139 L 183 136 L 182 131 L 183 128 L 183 131 L 184 131 L 184 123 L 183 122 L 184 117 L 185 120 L 185 113 L 187 111 L 185 110 L 185 104 L 187 104 L 185 98 Q 184 95 188 96 L 186 88 L 186 83 L 189 77 Q 192 76 191 79 L 192 79 L 192 76 L 189 72 L 190 70 Q 191 65 188 64 L 190 64 Q 189 56 192 52 L 192 43 L 191 42 Q 190 37 193 36 L 193 25 L 192 24 L 192 18 L 190 18 L 188 18 Q 183 19 184 16 L 179 16 L 179 18 L 177 18 L 177 17 L 113 16 Z M 190 16 L 190 17 L 192 17 L 190 16 Z M 6 18 L 5 24 L 6 24 L 6 18 Z M 105 23 L 104 43 L 102 43 L 99 47 L 96 45 L 81 45 Q 78 44 80 43 L 76 42 L 76 44 L 73 43 L 75 47 L 74 119 Q 77 120 73 122 L 72 117 L 69 121 L 66 120 L 70 127 L 72 126 Q 71 123 74 124 L 75 128 L 74 129 L 74 144 L 73 145 Q 71 151 74 153 L 74 154 L 73 153 L 72 153 L 65 152 L 60 150 L 62 150 L 64 149 L 64 146 L 62 147 L 60 147 Q 55 146 56 149 L 53 147 L 47 146 L 45 146 L 41 144 Q 39 147 38 143 L 35 144 L 35 146 L 32 147 L 34 147 Q 35 150 33 149 L 33 150 L 34 151 L 34 161 L 34 163 Q 33 168 35 170 L 34 173 L 39 174 L 43 173 L 42 175 L 53 176 L 53 177 L 50 177 Q 51 180 48 179 L 48 182 Q 53 184 52 180 Q 59 179 64 182 L 65 179 L 67 180 Q 70 179 69 182 L 67 183 Q 63 182 64 185 L 72 184 L 70 183 L 73 181 L 75 183 L 81 184 L 80 186 Q 81 188 86 187 L 86 185 L 89 187 L 96 189 L 88 191 L 97 192 L 100 186 L 101 190 L 102 190 Q 103 183 101 180 L 100 180 L 101 185 L 99 184 L 99 177 L 101 176 L 101 129 L 99 128 L 100 116 L 101 120 L 101 113 L 101 111 L 101 48 L 103 47 L 104 49 L 104 116 L 105 116 L 105 23 Z M 99 32 L 99 34 Q 101 37 102 34 Q 103 31 99 32 Z M 202 32 L 201 36 L 202 36 L 202 32 Z M 204 35 L 202 41 L 203 46 Q 202 42 205 41 L 204 35 Z M 201 36 L 199 47 L 201 48 L 200 45 L 201 42 L 201 36 Z M 97 40 Q 96 44 101 43 L 100 42 L 102 41 L 97 40 Z M 98 43 L 96 45 L 99 45 L 98 43 Z M 68 44 L 68 46 L 71 45 L 68 44 Z M 194 45 Q 193 48 196 47 Q 197 44 194 45 Z M 72 46 L 70 48 L 72 48 L 72 64 L 74 72 L 74 49 L 74 47 L 72 46 Z M 8 48 L 7 51 L 8 51 L 8 48 Z M 201 48 L 202 56 L 203 51 Q 204 47 201 48 Z M 192 56 L 191 59 L 192 59 L 192 56 Z M 201 56 L 201 64 L 202 64 Q 203 58 201 56 Z M 202 69 L 201 72 L 202 72 L 202 69 Z M 73 72 L 72 80 L 73 80 L 73 72 Z M 190 80 L 189 84 L 190 84 L 190 80 Z M 188 83 L 187 88 L 188 88 L 188 83 Z M 192 84 L 191 88 L 192 88 L 192 84 Z M 190 88 L 189 96 L 190 96 L 190 88 Z M 192 91 L 190 97 Q 189 101 192 100 L 192 91 Z M 16 93 L 15 96 L 16 96 L 16 93 Z M 14 104 L 13 112 L 15 112 L 14 104 Z M 189 104 L 186 109 L 189 110 L 192 108 Q 194 102 189 104 Z M 65 112 L 64 117 L 65 117 L 65 112 Z M 68 112 L 68 117 L 70 117 L 70 112 L 68 112 Z M 15 116 L 14 128 L 15 128 L 15 116 Z M 102 118 L 101 122 L 103 128 L 104 120 Q 105 117 102 118 Z M 194 120 L 193 123 L 194 123 L 194 120 Z M 193 126 L 192 131 L 193 131 L 193 126 Z M 195 130 L 194 133 L 195 133 L 195 130 Z M 193 134 L 192 138 L 193 138 L 193 134 Z M 195 136 L 195 144 L 196 144 Q 197 138 195 136 Z M 47 144 L 49 146 L 53 146 L 47 144 Z M 61 144 L 61 145 L 64 145 L 61 144 Z M 184 144 L 183 148 L 184 148 L 184 144 Z M 57 145 L 57 146 L 59 146 L 57 145 Z M 54 146 L 54 147 L 56 147 L 54 146 Z M 33 151 L 32 160 L 33 160 L 33 151 Z M 183 151 L 182 154 L 184 155 L 183 151 Z M 184 162 L 183 168 L 184 168 L 184 162 Z M 182 168 L 182 173 Q 181 177 184 176 L 182 168 Z M 33 171 L 32 175 L 33 175 L 33 171 Z M 20 176 L 19 180 L 20 180 L 20 176 Z M 24 179 L 23 184 L 24 184 L 24 179 Z M 55 183 L 55 186 L 59 185 L 55 183 Z M 182 184 L 183 188 L 184 185 L 182 184 Z M 45 210 Q 44 213 48 212 Q 49 209 45 210 Z M 177 212 L 178 214 Q 179 211 177 212 Z M 142 213 L 140 214 L 140 215 Q 143 216 144 214 L 142 213 Z M 54 216 L 49 218 L 54 218 L 54 216 Z M 118 220 L 118 221 L 120 221 L 118 220 Z M 105 221 Q 102 225 106 224 L 105 221 Z M 113 221 L 113 222 L 115 222 L 113 221 Z M 121 221 L 121 222 L 124 223 L 128 223 L 121 221 Z M 67 224 L 67 225 L 69 225 L 67 224 Z M 82 224 Q 81 227 88 226 Q 89 223 82 224 Z M 136 224 L 135 226 L 140 225 L 138 224 L 136 224 Z M 142 224 L 143 226 L 145 226 L 142 224 Z M 107 226 L 107 227 L 109 227 L 107 226 Z M 123 226 Q 120 228 123 229 L 127 228 L 123 226 Z M 133 226 L 132 227 Q 127 226 128 229 L 133 228 L 133 226 Z M 107 229 L 107 230 L 109 230 L 107 229 Z M 107 234 L 107 235 L 109 235 L 107 234 Z " /><path fill="rgb(213,185,50)" stroke="rgb(213,185,50)" stroke-width="1" opacity="0.996078431372549" d="M 102.5 44 Q 104.8 43.3 104 45.5 L 102.5 44 Z " /><path fill="rgb(213,185,50)" stroke="rgb(213,185,50)" stroke-width="1" opacity="0.996078431372549" d="M 189.5 48 L 190 50.5 L 189 50.5 L 189.5 48 Z " /><path fill="rgb(213,185,50)" stroke="rgb(213,185,50)" stroke-width="1" opacity="0.996078431372549" d="M 188.5 59 L 189 61.5 L 188 61.5 L 188.5 59 Z " /><path fill="rgb(213,185,50)" stroke="rgb(213,185,50)" stroke-width="1" opacity="0.996078431372549" d="M 201.5 79 L 202 86.5 L 201 86.5 L 201.5 79 Z " /><path fill="rgb(213,185,50)" stroke="rgb(213,185,50)" stroke-width="1" opacity="0.996078431372549" d="M 178.5 173 L 180 174.5 L 180 188.5 L 178.5 188 L 177 188 L 177 184 L 179 183.5 L 179 176.5 L 178.5 173 Z " /><path fill="rgb(213,185,50)" stroke="rgb(213,185,50)" stroke-width="1" opacity="0.996078431372549" d="M 177.5 192 L 178 198 Q 175 199.3 176 195.5 L 177.5 192 Z " /><path fill="rgb(213,185,50)" stroke="rgb(213,185,50)" stroke-width="1" opacity="0.996078431372549" d="M 24.5 213 L 25.5 215 L 24.5 213 Z " /><path fill="rgb(213,185,50)" stroke="rgb(213,185,50)" stroke-width="1" opacity="0.996078431372549" d="M 172.5 217 L 176 217.5 L 170.5 219 L 170.5 218 L 172.5 217 Z " /><path fill="rgb(237,237,235)" stroke="rgb(237,237,235)" stroke-width="1" opacity="1" d="M 79 46 L 94.5 46 L 95 47.5 L 97 49.5 L 97 111.5 L 96 114.5 L 98 119.5 L 97 120.5 L 97 175.5 L 96 177.5 L 98 181.5 L 96 185 L 93.5 186 L 93 184 L 90.5 185 L 90 183 L 79.5 181 L 78 181.5 Q 78.9 178.5 74.5 180 L 64.5 177 L 63 177.5 Q 63.9 174.5 59.5 176 L 50.5 173 L 48.5 174 L 48.5 172 L 42.5 171 Q 41.3 173.3 40 170.5 L 39.5 169 L 38.5 171 L 37 168.5 L 37 151.5 L 36 150.5 L 37.5 147 Q 39.5 150 45.5 149 Q 47 146.5 48.5 150 L 52.5 151 Q 54 148.5 55.5 152 L 60.5 153 L 62.5 153 Q 67 156.5 74.5 157 L 78 155 L 77 150.5 L 78 148.5 L 77 145.5 L 78 144.5 L 78 123.5 L 77 120.5 L 78 119.5 L 78 88.5 L 77 87.5 L 77 64.5 L 78 63.5 L 78 48.5 L 79 46 Z " /><path fill="rgb(237,237,235)" stroke="rgb(237,237,235)" stroke-width="1" opacity="1" d="M 116 120 L 119 120.5 L 116.5 122 L 116 120 Z " /><path fill="rgb(237,237,235)" stroke="rgb(237,237,235)" stroke-width="1" opacity="1" d="M 121 120 Q 124.3 118.9 123 123 Q 119.7 124.1 121 120 Z " /><path fill="rgb(237,237,235)" stroke="rgb(237,237,235)" stroke-width="1" opacity="1" d="M 125 120 Q 128 118.8 127 122.5 L 125 121.5 L 125 120 Z " /><path fill="rgb(237,237,235)" stroke="rgb(237,237,235)" stroke-width="1" opacity="1" d="M 136 120 Q 139.3 118.9 138 123 Q 134.7 124.1 136 120 Z " /><path fill="rgb(237,237,235)" stroke="rgb(237,237,235)" stroke-width="1" opacity="1" d="M 128.5 121 L 130 123.5 L 128.5 126 L 128.5 121 Z " /><path fill="rgb(237,237,235)" stroke="rgb(237,237,235)" stroke-width="1" opacity="1" d="M 132 122 Q 135.3 120.9 134 125 Q 130.7 126.1 132 122 Z " /><path fill="rgb(237,237,235)" stroke="rgb(237,237,235)" stroke-width="1" opacity="1" d="M 116.5 124 Q 118.8 123.3 118 125.5 L 116.5 124 Z " /><path fill="rgb(237,237,235)" stroke="rgb(237,237,235)" stroke-width="1" opacity="1" d="M 137.5 125 L 141 125.5 L 138.5 127 L 137.5 125 Z " /><path fill="rgb(237,237,235)" stroke="rgb(237,237,235)" stroke-width="1" opacity="1" d="M 142.5 125 Q 146.3 124 145 127 L 142.5 125 Z " /><path fill="rgb(249,214,54)" stroke="rgb(249,214,54)" stroke-width="1" opacity="1" d="M 110.5 21 L 111 22.5 L 111 24.5 L 110.5 38 L 110 24.5 L 109 22.5 L 110.5 21 Z " /><path fill="rgb(249,214,54)" stroke="rgb(249,214,54)" stroke-width="1" opacity="1" d="M 105.5 22 L 106.5 24 L 105.5 22 Z " /><path fill="rgb(249,214,54)" stroke="rgb(249,214,54)" stroke-width="1" opacity="1" d="M 187.5 23 Q 189.8 22.3 189 24.5 L 187.5 23 Z " /><path fill="rgb(249,214,54)" stroke="rgb(249,214,54)" stroke-width="1" opacity="1" d="M 190.5 23 L 192 26.5 L 191 26.5 L 190.5 23 Z " /><path fill="rgb(249,214,54)" stroke="rgb(249,214,54)" stroke-width="1" opacity="1" d="M 186.5 29 L 187 31.5 L 186 31.5 L 186.5 29 Z " /><path fill="rgb(249,214,54)" stroke="rgb(249,214,54)" stroke-width="1" opacity="1" d="M 117 32 Q 121.1 30.7 120 34 Q 115.9 35.3 117 32 Z " /><path fill="rgb(249,214,54)" stroke="rgb(249,214,54)" stroke-width="1" opacity="1" d="M 177.5 32 L 178 36 Q 175 37.3 176 33.5 L 177.5 32 Z " /><path fill="rgb(249,214,54)" stroke="rgb(249,214,54)" stroke-width="1" opacity="1" d="M 183 32 Q 186 31 185 34 Q 182 35 183 32 Z " /><path fill="rgb(249,214,54)" stroke="rgb(249,214,54)" stroke-width="1" opacity="1" d="M 190.5 32 L 191 38.5 L 190 38.5 L 190.5 32 Z " /><path fill="rgb(249,214,54)" stroke="rgb(249,214,54)" stroke-width="1" opacity="1" d="M 129.5 36 L 143 36.5 L 141.5 38 L 129.5 38 Q 127.3 37.3 128 39.5 Q 126.8 42 123 41 L 125.5 37 L 129.5 36 Z " /><path fill="rgb(249,214,54)" stroke="rgb(249,214,54)" stroke-width="1" opacity="1" d="M 187.5 36 L 188 40 Q 185 41.3 186 37.5 L 187.5 36 Z " /><path fill="rgb(249,214,54)" stroke="rgb(249,214,54)" stroke-width="1" opacity="1" d="M 178 38 L 183 38 L 183 40 L 181 40 Q 182.1 42.7 179.5 42 L 178 38 Z " /><path fill="rgb(249,214,54)" stroke="rgb(249,214,54)" stroke-width="1" opacity="1" d="M 144.5 41 L 160 41.5 L 144.5 42 L 144.5 41 Z " /><path fill="rgb(249,214,54)" stroke="rgb(249,214,54)" stroke-width="1" opacity="1" d="M 119.5 42 L 124 42.5 L 123.5 45 Q 115.1 44.1 111 46 L 110.5 53 L 110 44 L 117.5 44 L 119.5 42 Z " /><path fill="rgb(249,214,54)" stroke="rgb(249,214,54)" stroke-width="1" opacity="1" d="M 129 42 Q 135.4 41 139 43.5 Q 135.4 46.1 129 45 L 129 42 Z M 131 43 L 131 44 L 136 44 L 131 43 Z " /><path fill="rgb(249,214,54)" stroke="rgb(249,214,54)" stroke-width="1" opacity="1" d="M 143.5 43 L 160 43.5 L 143.5 44 L 143.5 43 Z " /><path fill="rgb(249,214,54)" stroke="rgb(249,214,54)" stroke-width="1" opacity="1" d="M 184.5 44 Q 186.8 43.3 186 45.5 L 188 45.5 L 188 47.5 Q 188.8 49.8 186.5 49 L 184 48 Q 185.1 45.3 182.5 46 L 182.5 45 L 184.5 44 Z " /><path fill="rgb(249,214,54)" stroke="rgb(249,214,54)" stroke-width="1" opacity="1" d="M 112.5 49 L 113 64.5 L 112 64.5 L 112.5 49 Z " /><path fill="rgb(249,214,54)" stroke="rgb(249,214,54)" stroke-width="1" opacity="1" d="M 188.5 56 L 189 58.5 L 187 57.5 L 188.5 56 Z " /><path fill="rgb(249,214,54)" stroke="rgb(249,214,54)" stroke-width="1" opacity="1" d="M 186.5 60 L 187 63.5 L 186 63.5 L 186.5 60 Z " /><path fill="rgb(249,214,54)" stroke="rgb(249,214,54)" stroke-width="1" opacity="1" d="M 186 67 Q 189 65.8 188 69.5 L 186 68.5 L 186 67 Z " /><path fill="rgb(249,214,54)" stroke="rgb(249,214,54)" stroke-width="1" opacity="1" d="M 184.5 68 L 185 71 L 182 70.5 L 184.5 68 Z " /><path fill="rgb(249,214,54)" stroke="rgb(249,214,54)" stroke-width="1" opacity="1" d="M 112.5 70 L 113 95.5 L 112 95.5 L 112.5 70 Z " /><path fill="rgb(249,214,54)" stroke="rgb(249,214,54)" stroke-width="1" opacity="1" d="M 181.5 72 Q 183.8 71.3 183 73.5 L 182 76 L 178.5 77 L 176 75.5 L 180 75 L 181.5 72 Z " /><path fill="rgb(249,214,54)" stroke="rgb(249,214,54)" stroke-width="1" opacity="1" d="M 140.5 73 L 144 73 L 144.5 76 L 174.5 76 L 173.5 78 L 159.5 78 L 143.5 78 L 143 76.5 L 140.5 73 Z " /><path fill="rgb(249,214,54)" stroke="rgb(249,214,54)" stroke-width="1" opacity="1" d="M 137.5 76 L 138 79.5 L 137 79.5 L 137.5 76 Z " /><path fill="rgb(249,214,54)" stroke="rgb(249,214,54)" stroke-width="1" opacity="1" d="M 185.5 77 L 187 81.5 L 186 81.5 L 185.5 80 L 184 80.5 L 185.5 77 Z " /><path fill="rgb(249,214,54)" stroke="rgb(249,214,54)" stroke-width="1" opacity="1" d="M 110.5 81 L 111 94.5 L 110 94.5 L 110.5 81 Z " /><path fill="rgb(249,214,54)" stroke="rgb(249,214,54)" stroke-width="1" opacity="1" d="M 185.5 88 L 186 95.5 L 185 95.5 L 185.5 88 Z " /><path fill="rgb(249,214,54)" stroke="rgb(249,214,54)" stroke-width="1" opacity="1" d="M 176.5 96 L 177.5 98 Q 174.7 98.7 176.5 96 Z " /><path fill="rgb(249,214,54)" stroke="rgb(249,214,54)" stroke-width="1" opacity="1" d="M 143.5 100 L 147 101.5 L 142.5 102 L 143.5 100 Z " /><path fill="rgb(249,214,54)" stroke="rgb(249,214,54)" stroke-width="1" opacity="1" d="M 160.5 100 L 163 100.5 L 158.5 103 L 160.5 100 Z " /><path fill="rgb(249,214,54)" stroke="rgb(249,214,54)" stroke-width="1" opacity="1" d="M 172 100 Q 177.2 98.3 176 102 Q 170.8 103.7 172 100 Z " /><path fill="rgb(249,214,54)" stroke="rgb(249,214,54)" stroke-width="1" opacity="1" d="M 137 103 L 142 104.5 L 137 105 L 137 103 Z " /><path fill="rgb(249,214,54)" stroke="rgb(249,214,54)" stroke-width="1" opacity="1" d="M 146.5 104 L 153 104.5 L 146.5 105 L 146.5 104 Z " /><path fill="rgb(249,214,54)" stroke="rgb(249,214,54)" stroke-width="1" opacity="1" d="M 182.5 104 L 183 107.5 L 182 107.5 L 182.5 104 Z " /><path fill="rgb(249,214,54)" stroke="rgb(249,214,54)" stroke-width="1" opacity="1" d="M 110.5 105 L 111 110.5 L 110 110.5 L 110.5 105 Z " /><path fill="rgb(249,214,54)" stroke="rgb(249,214,54)" stroke-width="1" opacity="1" d="M 180.5 108 Q 183 109.2 182 113 L 179.5 112 L 178.5 116 L 178 112.5 L 180.5 108 Z " /><path fill="rgb(249,214,54)" stroke="rgb(249,214,54)" stroke-width="1" opacity="1" d="M 110.5 120 L 111 127.5 L 110 127.5 L 110.5 120 Z " /><path fill="rgb(249,214,54)" stroke="rgb(249,214,54)" stroke-width="1" opacity="1" d="M 110.5 129 L 111.5 137 Q 112.8 134.8 114 137.5 Q 111.3 139.2 115.5 141 L 117 141.5 L 114.5 142 L 112 141 L 111.5 138 L 110.5 143 L 110.5 129 Z " /><path fill="rgb(249,214,54)" stroke="rgb(249,214,54)" stroke-width="1" opacity="1" d="M 178.5 131 L 179 138.5 L 178 138.5 L 177 133.5 L 178.5 131 Z " /><path fill="rgb(249,214,54)" stroke="rgb(249,214,54)" stroke-width="1" opacity="1" d="M 150 133 L 153 133.5 L 152 135.5 L 153 137.5 L 151.5 137 L 148 136 Q 149 139 146 138 L 145 135.5 L 150 135 L 150 133 Z " /><path fill="rgb(249,214,54)" stroke="rgb(249,214,54)" stroke-width="1" opacity="1" d="M 181.5 137 L 182 139.5 L 181 139.5 L 181.5 137 Z " /><path fill="rgb(249,214,54)" stroke="rgb(249,214,54)" stroke-width="1" opacity="1" d="M 121.5 138 L 122 140 L 119 139.5 L 121.5 138 Z " /><path fill="rgb(249,214,54)" stroke="rgb(249,214,54)" stroke-width="1" opacity="1" d="M 152.5 139 L 153 141.5 L 152 141.5 L 152.5 139 Z " /><path fill="rgb(249,214,54)" stroke="rgb(249,214,54)" stroke-width="1" opacity="1" d="M 127.5 140 Q 133.3 138.3 132 142 L 126 141.5 L 127.5 140 Z " /><path fill="rgb(249,214,54)" stroke="rgb(249,214,54)" stroke-width="1" opacity="1" d="M 176.5 140 L 177 153.5 L 176 153.5 Q 173.3 149.7 175 141.5 L 176.5 140 Z " /><path fill="rgb(249,214,54)" stroke="rgb(249,214,54)" stroke-width="1" opacity="1" d="M 146.5 141 L 148 143.5 L 144 146 L 146.5 141 Z " /><path fill="rgb(249,214,54)" stroke="rgb(249,214,54)" stroke-width="1" opacity="1" d="M 134 142 Q 137.8 141 139 143.5 L 136.5 145 L 134 144 L 134 142 Z " /><path fill="rgb(249,214,54)" stroke="rgb(249,214,54)" stroke-width="1" opacity="1" d="M 116.5 143 L 120 143.5 L 116.5 144 L 116.5 143 Z " /><path fill="rgb(249,214,54)" stroke="rgb(249,214,54)" stroke-width="1" opacity="1" d="M 125 143 Q 128 141.8 127 145.5 L 125 144.5 L 125 143 Z " /><path fill="rgb(249,214,54)" stroke="rgb(249,214,54)" stroke-width="1" opacity="1" d="M 152.5 144 L 154 148.5 Q 152.8 151 149 150 Q 147.9 146.7 152 148 L 152.5 144 Z " /><path fill="rgb(249,214,54)" stroke="rgb(249,214,54)" stroke-width="1" opacity="1" d="M 137.5 146 L 142 146.5 L 138.5 148 L 137.5 146 Z " /><path fill="rgb(249,214,54)" stroke="rgb(249,214,54)" stroke-width="1" opacity="1" d="M 127.5 148 L 131 149.5 L 129.5 151 L 127.5 148 Z " /><path fill="rgb(249,214,54)" stroke="rgb(249,214,54)" stroke-width="1" opacity="1" d="M 120.5 149 Q 123.8 147.9 123 150.5 L 119.5 152 L 118.5 150 L 120.5 149 Z " /><path fill="rgb(249,214,54)" stroke="rgb(249,214,54)" stroke-width="1" opacity="1" d="M 178.5 149 L 179 151.5 L 178 151.5 L 178.5 149 Z " /><path fill="rgb(249,214,54)" stroke="rgb(249,214,54)" stroke-width="1" opacity="1" d="M 138.5 151 L 145 151.5 L 143.5 153 L 136 153.5 L 136.5 155 L 133 153.5 L 138.5 151 Z " /><path fill="rgb(249,214,54)" stroke="rgb(249,214,54)" stroke-width="1" opacity="1" d="M 129.5 153 L 130.5 155 L 128 155.5 L 128.5 157 Q 122.5 156 120.5 159 L 120 156.5 Q 121.4 153.4 126.5 154 Q 128 156.5 129.5 153 Z " /><path fill="rgb(249,214,54)" stroke="rgb(249,214,54)" stroke-width="1" opacity="1" d="M 112 154 Q 115.3 152.9 114 157 Q 110.7 158.1 112 154 Z " /><path fill="rgb(249,214,54)" stroke="rgb(249,214,54)" stroke-width="1" opacity="1" d="M 173 162 Q 176 161 175 164 Q 172 165 173 162 Z " /><path fill="rgb(249,214,54)" stroke="rgb(249,214,54)" stroke-width="1" opacity="1" d="M 112.5 165 L 113 169.5 L 112 169.5 L 111 166.5 L 112.5 165 Z " /><path fill="rgb(249,214,54)" stroke="rgb(249,214,54)" stroke-width="1" opacity="1" d="M 173.5 165 L 175 168.5 L 173 169.5 L 173.5 165 Z " /><path fill="rgb(249,214,54)" stroke="rgb(249,214,54)" stroke-width="1" opacity="1" d="M 112.5 172 L 113 175.5 L 112 175.5 L 112.5 172 Z " /><path fill="rgb(249,214,54)" stroke="rgb(249,214,54)" stroke-width="1" opacity="1" d="M 173.5 172 L 174 174 L 170.5 176 L 166.5 176 L 166.5 175 Q 171.7 175.2 173.5 172 Z " /><path fill="rgb(249,214,54)" stroke="rgb(249,214,54)" stroke-width="1" opacity="1" d="M 110.5 176 L 111.5 179 L 113 178.5 L 112 185.5 L 113 190.5 L 111 190.5 L 110.5 208 L 110.5 176 Z " /><path fill="rgb(249,214,54)" stroke="rgb(249,214,54)" stroke-width="1" opacity="1" d="M 154.5 178 L 156 178.5 L 152.5 181 L 151.5 179 L 154.5 178 Z " /><path fill="rgb(249,214,54)" stroke="rgb(249,214,54)" stroke-width="1" opacity="1" d="M 159.5 180 L 160 185 L 156 184.5 L 159.5 180 Z " /><path fill="rgb(249,214,54)" stroke="rgb(249,214,54)" stroke-width="1" opacity="1" d="M 142.5 181 L 149 182.5 L 146.5 183 L 142.5 182 L 142.5 181 Z " /><path fill="rgb(249,214,54)" stroke="rgb(249,214,54)" stroke-width="1" opacity="1" d="M 135.5 183 L 139 183.5 L 135.5 184 L 135.5 183 Z " /><path fill="rgb(249,214,54)" stroke="rgb(249,214,54)" stroke-width="1" opacity="1" d="M 142.5 185 Q 145.5 184.2 144 188 Q 140.2 189.5 141 186.5 L 142.5 185 Z " /><path fill="rgb(249,214,54)" stroke="rgb(249,214,54)" stroke-width="1" opacity="1" d="M 152.5 186 Q 154.8 189 160 188 Q 161.3 191.7 155.5 190 L 151 189 L 152.5 186 Z " /><path fill="rgb(249,214,54)" stroke="rgb(249,214,54)" stroke-width="1" opacity="1" d="M 123 187 L 127 188.5 Q 127.8 190.8 125.5 190 L 123 189 L 123 187 Z " /><path fill="rgb(249,214,54)" stroke="rgb(249,214,54)" stroke-width="1" opacity="1" d="M 132.5 189 L 136 189.5 L 132.5 190 L 132.5 189 Z " /><path fill="rgb(249,214,54)" stroke="rgb(249,214,54)" stroke-width="1" opacity="1" d="M 117 190 Q 120 189 119 192 Q 116 193 117 190 Z " /><path fill="rgb(249,214,54)" stroke="rgb(249,214,54)" stroke-width="1" opacity="1" d="M 161.5 200 L 171.5 200 L 172 201.5 L 170.5 201 L 163 201.5 L 168 202.5 L 163.5 204 L 163 202 L 160 201.5 L 161.5 200 Z " /><path fill="rgb(249,214,54)" stroke="rgb(249,214,54)" stroke-width="1" opacity="1" d="M 134.5 208 L 137 208.5 L 134.5 209 L 134.5 208 Z " /><path fill="rgb(249,214,54)" stroke="rgb(249,214,54)" stroke-width="1" opacity="1" d="M 143.5 208 L 144.5 210 L 143.5 208 Z " /><path fill="rgb(249,214,54)" stroke="rgb(249,214,54)" stroke-width="1" opacity="1" d="M 138.5 209 L 142 209.5 L 138.5 210 L 138.5 209 Z " /><path fill="rgb(249,214,54)" stroke="rgb(249,214,54)" stroke-width="1" opacity="1" d="M 112 210 Q 116.6 208.8 118 211.5 L 112 213 L 112 210 Z " /><path fill="rgb(249,214,54)" stroke="rgb(249,214,54)" stroke-width="1" opacity="1" d="M 110.5 211 L 111 217.5 L 108 217.5 Q 107.3 214.9 110 216 L 110.5 211 Z " /><path fill="rgb(249,214,54)" stroke="rgb(249,214,54)" stroke-width="1" opacity="1" d="M 130.5 212 L 133 212.5 L 130.5 213 L 130.5 212 Z " /><path fill="rgb(249,214,54)" stroke="rgb(249,214,54)" stroke-width="1" opacity="1" d="M 112 216 L 115 216.5 L 112 218 L 112 216 Z " /><path fill="rgb(253,254,252)" stroke="rgb(253,254,252)" stroke-width="1" opacity="0.9921568627450981" d="M 119.5 47 L 128.5 48 L 129.5 47 L 177.5 47 L 179 48.5 L 179 67.5 L 174.5 70 L 141.5 70 L 136.5 69 L 133 71.5 L 134 79.5 L 133 80.5 L 133 97.5 L 134 102.5 L 133 106.5 L 135.5 110 L 143.5 108 L 175 105 L 175 116.5 L 173 127.5 L 174 130.5 L 173 131.5 L 172 151.5 L 171 152.5 L 171 165.5 L 170 171 L 144.5 178 L 143 177.5 Q 143.9 180.9 138.5 179 L 136.5 178 L 136.5 180 L 116.5 185 L 115 181.5 L 116 178.5 L 115 173.5 L 115 171.5 Q 113.2 164.8 116.5 163 L 120.5 161 L 125.5 161 L 132.5 159 L 135.5 157 L 154.5 153 L 157 150.5 L 157 131.5 L 156 129 L 149.5 131 L 142.5 131 L 137.5 133 L 117.5 136 Q 115 135 116 130.5 L 118 124 Q 115.3 125.1 116 122.5 L 119 120.5 L 116 120 L 115 49.5 L 119.5 47 Z M 121 120 Q 120 124 123 123 Q 124 119 121 120 Z M 125 120 L 125 122 L 127 123 Q 128 119 125 120 Z M 136 120 Q 135 124 138 123 Q 139 119 136 120 Z M 129 121 L 129 126 L 130 124 L 129 121 Z M 132 122 Q 131 126 134 125 Q 135 121 132 122 Z M 138 125 L 139 127 L 141 126 L 138 125 Z M 143 125 L 145 127 Q 146 124 143 125 Z " /><path fill="rgb(204,187,90)" stroke="rgb(204,187,90)" stroke-width="1" opacity="0.6196078431372549" d="M 0.5 0 L 1 3.5 L 0 3.5 L 0.5 0 Z " /><path fill="rgb(204,187,90)" stroke="rgb(204,187,90)" stroke-width="1" opacity="0.6196078431372549" d="M 210.5 2 L 211 4.5 L 210 4.5 L 210.5 2 Z " /><path fill="rgb(204,187,90)" stroke="rgb(204,187,90)" stroke-width="1" opacity="0.6196078431372549" d="M 1.5 9 L 2 13.5 L 1 13.5 L 1.5 9 Z " /><path fill="rgb(204,187,90)" stroke="rgb(204,187,90)" stroke-width="1" opacity="0.6196078431372549" d="M 209.5 11 L 210 15.5 L 209 15.5 L 209.5 11 Z " /><path fill="rgb(204,187,90)" stroke="rgb(204,187,90)" stroke-width="1" opacity="0.6196078431372549" d="M 2.5 19 L 3 25.5 L 2 25.5 L 2.5 19 Z " /><path fill="rgb(204,187,90)" stroke="rgb(204,187,90)" stroke-width="1" opacity="0.6196078431372549" d="M 208.5 20 L 209 26.5 L 208 26.5 L 208.5 20 Z " /><path fill="rgb(204,187,90)" stroke="rgb(204,187,90)" stroke-width="1" opacity="0.6196078431372549" d="M 3.5 32 L 4 36.5 L 3 36.5 L 3.5 32 Z " /><path fill="rgb(204,187,90)" stroke="rgb(204,187,90)" stroke-width="1" opacity="0.6196078431372549" d="M 207.5 32 L 208 37.5 L 207 37.5 L 207.5 32 Z " /><path fill="rgb(204,187,90)" stroke="rgb(204,187,90)" stroke-width="1" opacity="0.6196078431372549" d="M 4.5 42 L 5 47.5 L 4 47.5 L 4.5 42 Z " /><path fill="rgb(204,187,90)" stroke="rgb(204,187,90)" stroke-width="1" opacity="0.6196078431372549" d="M 206.5 42 L 207 48.5 L 206 48.5 L 206.5 42 Z " /><path fill="rgb(204,187,90)" stroke="rgb(204,187,90)" stroke-width="1" opacity="0.6196078431372549" d="M 5.5 53 L 6 58.5 L 5 58.5 L 5.5 53 Z " /><path fill="rgb(204,187,90)" stroke="rgb(204,187,90)" stroke-width="1" opacity="0.6196078431372549" d="M 205.5 53 L 206 59.5 L 205 59.5 L 205.5 53 Z " /><path fill="rgb(204,187,90)" stroke="rgb(204,187,90)" stroke-width="1" opacity="0.6196078431372549" d="M 6.5 64 L 7 69.5 L 6 69.5 L 6.5 64 Z " /><path fill="rgb(204,187,90)" stroke="rgb(204,187,90)" stroke-width="1" opacity="0.6196078431372549" d="M 204.5 64 L 205 70.5 L 204 70.5 L 204.5 64 Z " /><path fill="rgb(204,187,90)" stroke="rgb(204,187,90)" stroke-width="1" opacity="0.6196078431372549" d="M 7.5 74 L 8 79.5 L 7 79.5 L 7.5 74 Z " /><path fill="rgb(204,187,90)" stroke="rgb(204,187,90)" stroke-width="1" opacity="0.6196078431372549" d="M 203.5 74 L 204 81.5 L 203 81.5 L 203.5 74 Z " /><path fill="rgb(204,187,90)" stroke="rgb(204,187,90)" stroke-width="1" opacity="0.6196078431372549" d="M 202.5 85 L 203 92.5 L 202 92.5 L 202.5 85 Z " /><path fill="rgb(204,187,90)" stroke="rgb(204,187,90)" stroke-width="1" opacity="0.6196078431372549" d="M 8.5 87 L 9 91.5 L 8 91.5 L 8.5 87 Z " /><path fill="rgb(204,187,90)" stroke="rgb(204,187,90)" stroke-width="1" opacity="0.6196078431372549" d="M 9.5 96 L 10 101.5 L 9 101.5 L 9.5 96 Z " /><path fill="rgb(204,187,90)" stroke="rgb(204,187,90)" stroke-width="1" opacity="0.6196078431372549" d="M 201.5 97 L 202 103.5 L 201 103.5 L 201.5 97 Z " /><path fill="rgb(204,187,90)" stroke="rgb(204,187,90)" stroke-width="1" opacity="0.6196078431372549" d="M 10.5 107 L 11 113.5 L 10 113.5 L 10.5 107 Z " /><path fill="rgb(204,187,90)" stroke="rgb(204,187,90)" stroke-width="1" opacity="0.6196078431372549" d="M 200.5 108 L 201 114.5 L 200 114.5 L 200.5 108 Z " /><path fill="rgb(204,187,90)" stroke="rgb(204,187,90)" stroke-width="1" opacity="0.6196078431372549" d="M 199.5 119 L 200 125.5 L 199 125.5 L 199.5 119 Z " /><path fill="rgb(204,187,90)" stroke="rgb(204,187,90)" stroke-width="1" opacity="0.6196078431372549" d="M 11.5 120 L 12 123.5 L 11 123.5 L 11.5 120 Z " /><path fill="rgb(204,187,90)" stroke="rgb(204,187,90)" stroke-width="1" opacity="0.6196078431372549" d="M 12.5 131 L 13 135.5 L 12 135.5 L 12.5 131 Z " /><path fill="rgb(204,187,90)" stroke="rgb(204,187,90)" stroke-width="1" opacity="0.6196078431372549" d="M 198.5 131 L 199 136.5 L 198 136.5 L 198.5 131 Z " /><path fill="rgb(204,187,90)" stroke="rgb(204,187,90)" stroke-width="1" opacity="0.6196078431372549" d="M 13.5 140 L 14 146.5 L 13 146.5 L 13.5 140 Z " /><path fill="rgb(204,187,90)" stroke="rgb(204,187,90)" stroke-width="1" opacity="0.6196078431372549" d="M 197.5 142 L 198 147.5 L 197 147.5 L 197.5 142 Z " /><path fill="rgb(204,187,90)" stroke="rgb(204,187,90)" stroke-width="1" opacity="0.6196078431372549" d="M 196.5 151 L 197 159.5 L 196 159.5 L 196.5 151 Z " /><path fill="rgb(204,187,90)" stroke="rgb(204,187,90)" stroke-width="1" opacity="0.6196078431372549" d="M 14.5 152 L 15 157.5 L 14 157.5 L 14.5 152 Z " /><path fill="rgb(204,187,90)" stroke="rgb(204,187,90)" stroke-width="1" opacity="0.6196078431372549" d="M 15.5 162 L 16 167.5 L 15 167.5 L 15.5 162 Z " /><path fill="rgb(204,187,90)" stroke="rgb(204,187,90)" stroke-width="1" opacity="0.6196078431372549" d="M 195.5 162 L 196 170.5 L 195 170.5 L 195.5 162 Z " /><path fill="rgb(204,187,90)" stroke="rgb(204,187,90)" stroke-width="1" opacity="0.6196078431372549" d="M 194.5 174 L 195 181.5 L 194 181.5 L 194.5 174 Z " /><path fill="rgb(204,187,90)" stroke="rgb(204,187,90)" stroke-width="1" opacity="0.6196078431372549" d="M 16.5 175 L 17 179.5 L 16 179.5 L 16.5 175 Z " /><path fill="rgb(204,187,90)" stroke="rgb(204,187,90)" stroke-width="1" opacity="0.6196078431372549" d="M 17.5 183 L 18 189.5 L 17 189.5 L 17.5 183 Z " /><path fill="rgb(204,187,90)" stroke="rgb(204,187,90)" stroke-width="1" opacity="0.6196078431372549" d="M 193.5 184 L 194 191.5 L 193 191.5 L 193.5 184 Z " /><path fill="rgb(204,187,90)" stroke="rgb(204,187,90)" stroke-width="1" opacity="0.6196078431372549" d="M 18.5 194 L 19 200.5 L 18 200.5 L 18.5 194 Z " /><path fill="rgb(204,187,90)" stroke="rgb(204,187,90)" stroke-width="1" opacity="0.6196078431372549" d="M 192.5 196 L 193 202.5 L 192 202.5 L 192.5 196 Z " /><path fill="rgb(204,187,90)" stroke="rgb(204,187,90)" stroke-width="1" opacity="0.6196078431372549" d="M 19.5 206 L 20 212.5 L 19 212.5 L 19.5 206 Z " /><path fill="rgb(204,187,90)" stroke="rgb(204,187,90)" stroke-width="1" opacity="0.6196078431372549" d="M 191.5 208 L 192 213.5 L 185.5 216 L 185.5 215 L 191 214 L 191.5 208 Z " /><path fill="rgb(204,187,90)" stroke="rgb(204,187,90)" stroke-width="1" opacity="0.6196078431372549" d="M 26.5 216 L 29 216.5 L 26.5 217 L 26.5 216 Z " /><path fill="rgb(204,187,90)" stroke="rgb(204,187,90)" stroke-width="1" opacity="0.6196078431372549" d="M 181.5 216 L 184 216.5 L 171.5 220 L 171.5 219 L 181.5 216 Z " /><path fill="rgb(204,187,90)" stroke="rgb(204,187,90)" stroke-width="1" opacity="0.6196078431372549" d="M 30.5 217 L 57 224.5 L 54.5 225 L 36.5 219 L 32.5 219 L 30.5 217 Z " /><path fill="rgb(204,187,90)" stroke="rgb(204,187,90)" stroke-width="1" opacity="0.6196078431372549" d="M 167.5 220 L 170 220.5 L 143.5 228 L 143.5 227 L 167.5 220 Z " /><path fill="rgb(204,187,90)" stroke="rgb(204,187,90)" stroke-width="1" opacity="0.6196078431372549" d="M 58.5 225 L 61 225.5 L 58.5 226 L 58.5 225 Z " /><path fill="rgb(204,187,90)" stroke="rgb(204,187,90)" stroke-width="1" opacity="0.6196078431372549" d="M 62.5 226 L 78 230.5 L 75.5 231 L 68.5 228 L 64.5 228 L 62.5 226 Z " /><path fill="rgb(204,187,90)" stroke="rgb(204,187,90)" stroke-width="1" opacity="0.6196078431372549" d="M 139.5 228 L 142 228.5 L 132.5 231 L 132.5 230 L 139.5 228 Z " /><path fill="rgb(204,187,90)" stroke="rgb(204,187,90)" stroke-width="1" opacity="0.6196078431372549" d="M 128.5 231 L 131 231.5 L 121.5 234 L 121.5 233 L 128.5 231 Z " /><path fill="rgb(204,187,90)" stroke="rgb(204,187,90)" stroke-width="1" opacity="0.6196078431372549" d="M 83.5 232 L 100 236.5 L 97.5 237 L 83.5 233 L 83.5 232 Z " /><path fill="rgb(204,187,90)" stroke="rgb(204,187,90)" stroke-width="1" opacity="0.6196078431372549" d="M 117.5 234 L 120 234.5 L 104.5 239 L 101 237.5 L 104.5 237 L 106.5 237 L 110.5 237 L 117.5 234 Z " /><path fill="rgb(209,182,42)" stroke="rgb(209,182,42)" stroke-width="1" opacity="0.996078431372549" d="M 3.5 0 L 4.5 8 L 5.5 6 L 6 13.5 L 5 17.5 Q 7.3 18.8 6 23.5 L 5 23.5 L 4.5 18 L 3.5 21 L 3 16.5 Q 5.8 14.8 4 8.5 L 3 7.5 L 3.5 0 Z " /><path fill="rgb(209,182,42)" stroke="rgb(209,182,42)" stroke-width="1" opacity="0.996078431372549" d="M 7.5 4 L 8 7.5 L 7 7.5 L 7.5 4 Z " /><path fill="rgb(209,182,42)" stroke="rgb(209,182,42)" stroke-width="1" opacity="0.996078431372549" d="M 7.5 16 L 8 20.5 L 7 20.5 L 7.5 16 Z " /><path fill="rgb(209,182,42)" stroke="rgb(209,182,42)" stroke-width="1" opacity="0.996078431372549" d="M 112.5 16 L 177 16.5 L 176.5 18 L 179 17.5 L 178.5 16 L 183.5 16 Q 182.5 19 187.5 18 L 191.5 16 L 191.5 17 L 189 17.5 L 192 18.5 L 104.5 19 L 104.5 18 Q 110.2 18.7 112.5 16 Z " /><path fill="rgb(209,182,42)" stroke="rgb(209,182,42)" stroke-width="1" opacity="0.996078431372549" d="M 104.5 23 L 105 115.5 L 104 115.5 L 104 48.5 L 102.5 47 L 101 47.5 L 101 110.5 L 101 112.5 L 100.5 120 L 99 115.5 L 99 49.5 L 100 46.5 L 101 43.5 L 96 40.5 L 101.5 40 L 101.5 41 L 100 41.5 L 104 43 L 104.5 23 Z M 103 44 L 104 46 Q 105 43 103 44 Z " /><path fill="rgb(209,182,42)" stroke="rgb(209,182,42)" stroke-width="1" opacity="0.996078431372549" d="M 192.5 24 L 193 35.5 L 191.5 38 L 191 29.5 L 192.5 24 Z " /><path fill="rgb(209,182,42)" stroke="rgb(209,182,42)" stroke-width="1" opacity="0.996078431372549" d="M 205.5 24 L 207 24.5 L 207 32 L 204.5 33 L 204 25.5 L 205.5 24 Z " /><path fill="rgb(209,182,42)" stroke="rgb(209,182,42)" stroke-width="1" opacity="0.996078431372549" d="M 5.5 27 L 7 28.5 L 7 37.5 L 5 36.5 L 5.5 27 Z " /><path fill="rgb(209,182,42)" stroke="rgb(209,182,42)" stroke-width="1" opacity="0.996078431372549" d="M 99 32 Q 102.8 30.5 102 33.5 Q 100.5 36.5 99 33.5 L 99 32 Z " /><path fill="rgb(209,182,42)" stroke="rgb(209,182,42)" stroke-width="1" opacity="0.996078431372549" d="M 201.5 32 L 202 35.5 L 200 44.5 L 201 48 Q 203.7 49.1 203 46.5 Q 200.8 45.3 202 40.5 L 203.5 35 L 205 40.5 Q 202.3 41.3 203 45.5 L 205 45.5 L 205 48 Q 202 46.8 203 50.5 L 201 57.5 L 203 65.5 L 202 65.5 L 200 56.5 Q 202.7 54.8 201 48.5 Q 197.8 47.3 199 41.5 L 201.5 32 Z " /><path fill="rgb(209,182,42)" stroke="rgb(209,182,42)" stroke-width="1" opacity="0.996078431372549" d="M 190.5 40 Q 193.7 43.3 192 51.5 L 191 55.5 L 192 58.5 L 191 58.5 L 190.5 56 L 189 65.5 L 190 69.5 L 189 71.5 L 192 75.5 L 192 78.5 L 191 78.5 Q 191.7 75.9 189 77 L 187.5 80 L 187 74.5 L 189 63.5 L 189 61.5 L 190.5 40 Z " /><path fill="rgb(209,182,42)" stroke="rgb(209,182,42)" stroke-width="1" opacity="0.996078431372549" d="M 76 42 L 80 42.5 L 79.5 45 Q 74.4 44.4 73 47.5 L 74 48.5 L 74 71.5 L 72.5 80 L 72 72.5 Q 74.8 70.8 73 64.5 L 72 63.5 L 72 48 L 70 47.5 L 74 45.5 L 72.5 43 L 75.5 44 L 76 42 Z " /><path fill="rgb(209,182,42)" stroke="rgb(209,182,42)" stroke-width="1" opacity="0.996078431372549" d="M 194 45 Q 197 44 196 47 Q 193 48 194 45 Z " /><path fill="rgb(209,182,42)" stroke="rgb(209,182,42)" stroke-width="1" opacity="0.996078431372549" d="M 7.5 48 L 8 50.5 L 7 50.5 L 7.5 48 Z " /><path fill="rgb(209,182,42)" stroke="rgb(209,182,42)" stroke-width="1" opacity="0.996078431372549" d="M 7.5 61 L 8 63.5 L 7 63.5 L 7.5 61 Z " /><path fill="rgb(209,182,42)" stroke="rgb(209,182,42)" stroke-width="1" opacity="0.996078431372549" d="M 201.5 69 L 203 74.5 L 202 77.5 L 203 79.5 L 201 79.5 L 200.5 88 L 200 72.5 L 201.5 69 Z M 202 72 L 201 75 L 202 75 L 202 72 Z " /><path fill="rgb(209,182,42)" stroke="rgb(209,182,42)" stroke-width="1" opacity="0.996078431372549" d="M 10 72 L 14 73.5 L 14 79.5 Q 10.5 78.5 12 85.5 L 9 85.5 L 10 72 Z " /><path fill="rgb(209,182,42)" stroke="rgb(209,182,42)" stroke-width="1" opacity="0.996078431372549" d="M 74.5 80 L 75 118.5 L 74 118.5 L 74.5 80 Z " /><path fill="rgb(209,182,42)" stroke="rgb(209,182,42)" stroke-width="1" opacity="0.996078431372549" d="M 189.5 80 L 190 83.5 L 189 83.5 L 189.5 80 Z " /><path fill="rgb(209,182,42)" stroke="rgb(209,182,42)" stroke-width="1" opacity="0.996078431372549" d="M 187.5 83 L 188 87.5 Q 185.8 88.8 187 93.5 L 188 96 L 186 95.5 L 186 88.5 L 187.5 83 Z " /><path fill="rgb(209,182,42)" stroke="rgb(209,182,42)" stroke-width="1" opacity="0.996078431372549" d="M 191.5 84 L 192 87.5 L 191 87.5 L 191.5 84 Z " /><path fill="rgb(209,182,42)" stroke="rgb(209,182,42)" stroke-width="1" opacity="0.996078431372549" d="M 11.5 88 L 12 92 Q 15.7 90.7 14 96.5 Q 16.5 98 15 103.5 L 14 108.5 L 15 112 L 13 111.5 L 13 104.5 L 12 104.5 L 11.5 111 L 11 104.5 L 13 96.5 Q 9.6 94 11.5 88 Z M 14 100 L 13 104 L 14 104 L 14 100 Z " /><path fill="rgb(209,182,42)" stroke="rgb(209,182,42)" stroke-width="1" opacity="0.996078431372549" d="M 189.5 88 L 190.5 96 L 191.5 91 L 192 100 Q 188.7 101.3 190 96.5 L 189 95.5 L 189.5 88 Z " /><path fill="rgb(209,182,42)" stroke="rgb(209,182,42)" stroke-width="1" opacity="0.996078431372549" d="M 200.5 91 L 201 95.5 L 200 95.5 L 200.5 91 Z " /><path fill="rgb(209,182,42)" stroke="rgb(209,182,42)" stroke-width="1" opacity="0.996078431372549" d="M 15.5 93 L 16 95.5 L 15 95.5 L 15.5 93 Z " /><path fill="rgb(209,182,42)" stroke="rgb(209,182,42)" stroke-width="1" opacity="0.996078431372549" d="M 185.5 98 L 187 104 L 185 104 L 185 110 L 187 110.5 L 185 112.5 L 184.5 120 L 184 104.5 L 185.5 98 Z " /><path fill="rgb(209,182,42)" stroke="rgb(209,182,42)" stroke-width="1" opacity="0.996078431372549" d="M 189 104 Q 193.9 102.4 192 108 L 188.5 110 L 186 108.5 L 189 104 Z " /><path fill="rgb(209,182,42)" stroke="rgb(209,182,42)" stroke-width="1" opacity="0.996078431372549" d="M 198.5 110 L 199 118.5 L 197 118.5 L 195.5 129 L 195 120.5 Q 197.5 119 196 113.5 L 198.5 110 Z " /><path fill="rgb(209,182,42)" stroke="rgb(209,182,42)" stroke-width="1" opacity="0.996078431372549" d="M 64.5 112 L 65 116.5 L 64 116.5 L 64.5 112 Z " /><path fill="rgb(209,182,42)" stroke="rgb(209,182,42)" stroke-width="1" opacity="0.996078431372549" d="M 68 112 L 70 112 L 70 117 L 68 117 L 68 112 Z " /><path fill="rgb(209,182,42)" stroke="rgb(209,182,42)" stroke-width="1" opacity="0.996078431372549" d="M 14.5 116 L 15 127.5 L 13.5 131 L 13 128.5 L 14 127.5 L 14.5 116 Z " /><path fill="rgb(209,182,42)" stroke="rgb(209,182,42)" stroke-width="1" opacity="0.996078431372549" d="M 193.5 120 L 194 122.5 L 193 122.5 L 193.5 120 Z " /><path fill="rgb(209,182,42)" stroke="rgb(209,182,42)" stroke-width="1" opacity="0.996078431372549" d="M 183.5 122 L 184 130.5 L 182.5 136 L 182 131.5 L 183 130.5 L 183.5 122 Z " /><path fill="rgb(209,182,42)" stroke="rgb(209,182,42)" stroke-width="1" opacity="0.996078431372549" d="M 192.5 126 L 193 130.5 L 192 130.5 L 192.5 126 Z " /><path fill="rgb(209,182,42)" stroke="rgb(209,182,42)" stroke-width="1" opacity="0.996078431372549" d="M 74.5 128 L 75 153.5 L 74 153.5 L 73.5 152 L 72.5 154 L 72 152.5 L 74 143.5 L 74.5 128 Z " /><path fill="rgb(209,182,42)" stroke="rgb(209,182,42)" stroke-width="1" opacity="0.996078431372549" d="M 99 128 L 101 128.5 L 101 176 L 99 175.5 L 99 128 Z " /><path fill="rgb(209,182,42)" stroke="rgb(209,182,42)" stroke-width="1" opacity="0.996078431372549" d="M 104.5 128 L 105 175.5 L 106 178.5 L 105 179.5 L 104.5 220 L 104 192.5 L 103 190.5 L 104 187.5 L 104.5 128 Z " /><path fill="rgb(209,182,42)" stroke="rgb(209,182,42)" stroke-width="1" opacity="0.996078431372549" d="M 194.5 130 L 195 132.5 L 194 132.5 L 194.5 130 Z " /><path fill="rgb(209,182,42)" stroke="rgb(209,182,42)" stroke-width="1" opacity="0.996078431372549" d="M 192.5 134 L 193 137.5 L 192 137.5 L 192.5 134 Z " /><path fill="rgb(209,182,42)" stroke="rgb(209,182,42)" stroke-width="1" opacity="0.996078431372549" d="M 195.5 135 L 197 135.5 L 195 136 Q 196.6 138.1 196 143.5 L 195 143.5 L 194 136.5 L 195.5 135 Z " /><path fill="rgb(209,182,42)" stroke="rgb(209,182,42)" stroke-width="1" opacity="0.996078431372549" d="M 15.5 136 L 16 143.5 L 15 143.5 L 15.5 136 Z " /><path fill="rgb(209,182,42)" stroke="rgb(209,182,42)" stroke-width="1" opacity="0.996078431372549" d="M 182.5 139 L 184 147.5 L 183 147.5 L 182.5 144 L 181.5 148 L 181 144.5 L 182.5 139 Z " /><path fill="rgb(209,182,42)" stroke="rgb(209,182,42)" stroke-width="1" opacity="0.996078431372549" d="M 46.5 144 L 55.5 146 L 55.5 144 L 59 145.5 L 56 146.5 L 60.5 148 L 63.5 146 L 64 149 L 61.5 150 L 58.5 149 L 56 149 Q 57.3 146 53.5 147 L 52 147.5 L 52.5 146 L 45 147 L 46.5 144 Z " /><path fill="rgb(209,182,42)" stroke="rgb(209,182,42)" stroke-width="1" opacity="0.996078431372549" d="M 60.5 144 L 64 144.5 L 60.5 145 L 60.5 144 Z " /><path fill="rgb(209,182,42)" stroke="rgb(209,182,42)" stroke-width="1" opacity="0.996078431372549" d="M 15.5 145 L 16 150.5 L 15 150.5 L 15.5 145 Z " /><path fill="rgb(209,182,42)" stroke="rgb(209,182,42)" stroke-width="1" opacity="0.996078431372549" d="M 193.5 150 Q 195.9 152.1 195 157.5 L 195 159.5 L 194.5 165 L 194 159 Q 191 160.3 192 156.5 L 193.5 150 Z " /><path fill="rgb(209,182,42)" stroke="rgb(209,182,42)" stroke-width="1" opacity="0.996078431372549" d="M 32.5 151 L 33 159.5 L 32 159.5 L 32.5 151 Z " /><path fill="rgb(209,182,42)" stroke="rgb(209,182,42)" stroke-width="1" opacity="0.996078431372549" d="M 182.5 151 L 184 154.5 L 182 153.5 L 182.5 151 Z " /><path fill="rgb(209,182,42)" stroke="rgb(209,182,42)" stroke-width="1" opacity="0.996078431372549" d="M 180.5 155 L 182 159.5 L 180 160 L 180 164.5 L 184 176 Q 180.7 177.3 182 172.5 L 181 172.5 L 181 191.5 L 177 204 Q 174.3 202.9 175 205.5 L 175.5 207 L 171 205.5 L 176 202.5 Q 174.8 196.5 178 197.5 L 178 192.5 L 177 188 L 179.5 189 L 180 174.5 L 179 173.5 L 179 160.5 L 180.5 155 Z M 181 168 L 180 172 L 181 172 L 181 168 Z " /><path fill="rgb(209,182,42)" stroke="rgb(209,182,42)" stroke-width="1" opacity="0.996078431372549" d="M 183.5 162 L 184 167.5 L 183 167.5 L 183.5 162 Z " /><path fill="rgb(209,182,42)" stroke="rgb(209,182,42)" stroke-width="1" opacity="0.996078431372549" d="M 17 168 L 20 168 L 20 175 L 17.5 176 L 17 168 Z " /><path fill="rgb(209,182,42)" stroke="rgb(209,182,42)" stroke-width="1" opacity="0.996078431372549" d="M 192.5 168 L 193 187.5 L 192 187.5 L 192.5 168 Z " /><path fill="rgb(209,182,42)" stroke="rgb(209,182,42)" stroke-width="1" opacity="0.996078431372549" d="M 32.5 171 L 33 174.5 L 32 174.5 L 32.5 171 Z " /><path fill="rgb(209,182,42)" stroke="rgb(209,182,42)" stroke-width="1" opacity="0.996078431372549" d="M 38.5 173 L 44 174.5 L 42.5 175 L 38.5 174 L 38.5 173 Z " /><path fill="rgb(209,182,42)" stroke="rgb(209,182,42)" stroke-width="1" opacity="0.996078431372549" d="M 19.5 176 L 20 179.5 L 19 179.5 L 19.5 176 Z " /><path fill="rgb(209,182,42)" stroke="rgb(209,182,42)" stroke-width="1" opacity="0.996078431372549" d="M 178.5 176 L 179 183.5 L 178 183.5 L 178.5 176 Z " /><path fill="rgb(209,182,42)" stroke="rgb(209,182,42)" stroke-width="1" opacity="0.996078431372549" d="M 50 177 L 55.5 177 L 65 180.5 L 62.5 182 Q 59 178.8 52 180 Q 53.2 183.7 48 182 L 48 179 Q 51 180 50 177 Z " /><path fill="rgb(209,182,42)" stroke="rgb(209,182,42)" stroke-width="1" opacity="0.996078431372549" d="M 23.5 179 L 24 183.5 L 23 183.5 L 23.5 179 Z " /><path fill="rgb(209,182,42)" stroke="rgb(209,182,42)" stroke-width="1" opacity="0.996078431372549" d="M 100.5 179 Q 103.5 182 102 189.5 L 101 189.5 L 99 184.5 L 100.5 179 Z " /><path fill="rgb(209,182,42)" stroke="rgb(209,182,42)" stroke-width="1" opacity="0.996078431372549" d="M 21.5 180 L 22 197.5 L 23 200 Q 19.3 201.3 21 195.5 L 20 195.5 L 19.5 197 L 19 190.5 L 20 189.5 L 20 181.5 L 21.5 180 Z " /><path fill="rgb(209,182,42)" stroke="rgb(209,182,42)" stroke-width="1" opacity="0.996078431372549" d="M 69.5 181 L 72 181.5 L 70 182.5 L 72 183.5 L 64 185 Q 62.8 182 66.5 183 L 69.5 181 Z " /><path fill="rgb(209,182,42)" stroke="rgb(209,182,42)" stroke-width="1" opacity="0.996078431372549" d="M 55 183 L 59 184.5 L 55 186 L 55 183 Z " /><path fill="rgb(209,182,42)" stroke="rgb(209,182,42)" stroke-width="1" opacity="0.996078431372549" d="M 182 184 L 184 184.5 L 182.5 188 L 182 184 Z " /><path fill="rgb(209,182,42)" stroke="rgb(209,182,42)" stroke-width="1" opacity="0.996078431372549" d="M 80.5 185 Q 85 184 86 186.5 L 81.5 187 L 80.5 185 Z " /><path fill="rgb(209,182,42)" stroke="rgb(209,182,42)" stroke-width="1" opacity="0.996078431372549" d="M 91.5 189 Q 98.8 186.7 97 192 L 88 190.5 L 91.5 189 Z " /><path fill="rgb(209,182,42)" stroke="rgb(209,182,42)" stroke-width="1" opacity="0.996078431372549" d="M 188 200 L 191 200 L 191 208 L 188 208 L 188 200 Z " /><path fill="rgb(209,182,42)" stroke="rgb(209,182,42)" stroke-width="1" opacity="0.996078431372549" d="M 22.5 201 L 24 206.5 L 23 209 L 21 208.5 L 22.5 201 Z " /><path fill="rgb(209,182,42)" stroke="rgb(209,182,42)" stroke-width="1" opacity="0.996078431372549" d="M 160.5 207 L 164 207.5 L 160 208 Q 161 211 158 210 Q 156.9 207.3 159.5 208 L 160.5 207 Z " /><path fill="rgb(209,182,42)" stroke="rgb(209,182,42)" stroke-width="1" opacity="0.996078431372549" d="M 25.5 208 L 28 208 L 28 213 L 29.5 213 L 33.5 212 L 34.5 214 Q 31.2 212.9 32 215.5 L 32.5 217 L 23 212.5 L 25.5 208 Z " /><path fill="rgb(209,182,42)" stroke="rgb(209,182,42)" stroke-width="1" opacity="0.996078431372549" d="M 185.5 209 L 191 209.5 L 185.5 210 L 185.5 209 Z " /><path fill="rgb(209,182,42)" stroke="rgb(209,182,42)" stroke-width="1" opacity="0.996078431372549" d="M 45 210 Q 49.1 208.7 48 212 Q 43.9 213.3 45 210 Z " /><path fill="rgb(209,182,42)" stroke="rgb(209,182,42)" stroke-width="1" opacity="0.996078431372549" d="M 151.5 210 L 152 212 L 144 213.5 L 146 214.5 L 143.5 216 L 139 214.5 L 151.5 210 Z " /><path fill="rgb(209,182,42)" stroke="rgb(209,182,42)" stroke-width="1" opacity="0.996078431372549" d="M 185.5 211 L 187 214.5 L 182.5 215 L 182.5 214 L 185 213.5 Q 182.8 212.3 185.5 211 Z " /><path fill="rgb(209,182,42)" stroke="rgb(209,182,42)" stroke-width="1" opacity="0.996078431372549" d="M 133.5 215 L 137 215.5 L 133.5 216 L 133.5 215 Z " /><path fill="rgb(209,182,42)" stroke="rgb(209,182,42)" stroke-width="1" opacity="0.996078431372549" d="M 176.5 215 L 179 216.5 L 165.5 219 L 160 218 Q 158.9 215.3 161.5 216 L 166.5 218 L 168.5 216 Q 174.8 217.8 176.5 215 Z " /><path fill="rgb(209,182,42)" stroke="rgb(209,182,42)" stroke-width="1" opacity="0.996078431372549" d="M 38.5 216 Q 45.3 214.7 48 217.5 L 45.5 218 L 40.5 217 L 40.5 218 L 44 218.5 L 40.5 219 L 38.5 216 Z " /><path fill="rgb(209,182,42)" stroke="rgb(209,182,42)" stroke-width="1" opacity="0.996078431372549" d="M 53.5 216 L 54 218 L 49 217.5 L 53.5 216 Z " /><path fill="rgb(209,182,42)" stroke="rgb(209,182,42)" stroke-width="1" opacity="0.996078431372549" d="M 128.5 216 L 131 216.5 L 126.5 218 L 126.5 217 L 128.5 216 Z " /><path fill="rgb(209,182,42)" stroke="rgb(209,182,42)" stroke-width="1" opacity="0.996078431372549" d="M 50.5 219 L 56 220 Q 57.1 222.7 54.5 222 L 50.5 220 L 50.5 219 Z " /><path fill="rgb(209,182,42)" stroke="rgb(209,182,42)" stroke-width="1" opacity="0.996078431372549" d="M 120.5 219 L 122 219.5 L 120 220.5 L 128 222.5 L 123.5 223 L 117 220.5 L 120.5 219 Z " /><path fill="rgb(209,182,42)" stroke="rgb(209,182,42)" stroke-width="1" opacity="0.996078431372549" d="M 104.5 221 L 106 224 Q 102.5 225.1 104.5 221 Z " /><path fill="rgb(209,182,42)" stroke="rgb(209,182,42)" stroke-width="1" opacity="0.996078431372549" d="M 112.5 221 L 115 221.5 L 110.5 223 L 110.5 222 L 112.5 221 Z " /><path fill="rgb(209,182,42)" stroke="rgb(209,182,42)" stroke-width="1" opacity="0.996078431372549" d="M 108.5 222 L 109 224 L 107 223.5 L 108.5 222 Z " /><path fill="rgb(209,182,42)" stroke="rgb(209,182,42)" stroke-width="1" opacity="0.996078431372549" d="M 66.5 224 L 69 224.5 L 66.5 225 L 66.5 224 Z " /><path fill="rgb(209,182,42)" stroke="rgb(209,182,42)" stroke-width="1" opacity="0.996078431372549" d="M 81.5 224 Q 89.1 222.5 88 226 Q 81.4 227.5 81.5 224 Z " /><path fill="rgb(209,182,42)" stroke="rgb(209,182,42)" stroke-width="1" opacity="0.996078431372549" d="M 135.5 224 L 137.5 224 L 140 224.5 L 138 225.5 L 141 226.5 L 138.5 227 L 135 226 L 135.5 224 Z " /><path fill="rgb(209,182,42)" stroke="rgb(209,182,42)" stroke-width="1" opacity="0.996078431372549" d="M 71.5 225 L 78.5 226 L 80 225.5 Q 77.8 226.8 80.5 228 Q 86.3 227.2 88 230.5 L 87.5 232 Q 86.2 229.7 81.5 231 L 80 229.5 Q 80.6 226.8 74.5 228 L 67 226.5 L 71.5 225 Z " /><path fill="rgb(209,182,42)" stroke="rgb(209,182,42)" stroke-width="1" opacity="0.996078431372549" d="M 106.5 226 L 109 226.5 L 106.5 227 L 106.5 226 Z " /><path fill="rgb(209,182,42)" stroke="rgb(209,182,42)" stroke-width="1" opacity="0.996078431372549" d="M 122.5 226 L 127 227.5 L 122.5 229 Q 119.5 227.5 122.5 226 Z " /><path fill="rgb(209,182,42)" stroke="rgb(209,182,42)" stroke-width="1" opacity="0.996078431372549" d="M 132.5 226 L 133 228 L 128 229 Q 126.7 225.7 131.5 227 L 132.5 226 Z " /><path fill="rgb(209,182,42)" stroke="rgb(209,182,42)" stroke-width="1" opacity="0.996078431372549" d="M 99 232 L 103.5 233 L 106 232 Q 104.8 235 108.5 234 L 108.5 235 L 104.5 234 L 105.5 237 L 101 237 L 101 234 Q 98 235 99 232 Z " /><path fill="rgb(209,182,42)" stroke="rgb(209,182,42)" stroke-width="1" opacity="0.996078431372549" d="M 108.5 232 L 114 234.5 L 112.5 235 L 108.5 233 L 108.5 232 Z " /><path fill="rgb(209,182,42)" stroke="rgb(209,182,42)" stroke-width="1" opacity="0.996078431372549" d="M 116.5 232 L 120 232.5 L 116.5 233 L 116.5 232 Z " /><path fill="rgb(239,216,101)" stroke="rgb(239,216,101)" stroke-width="1" opacity="0.9686274509803922" d="M 118.5 45 L 180.5 45 L 183 47.5 L 182 48.5 L 181 70.5 L 178.5 73 L 174.5 72 L 140.5 72 L 136 74.5 L 136 105.5 L 137.5 107 L 138.5 106 L 148.5 106 L 149.5 105 L 165.5 104 L 166.5 103 L 176.5 103 Q 179.3 104.3 178 109.5 L 177 110.5 L 176.5 119 L 176 108.5 L 177 104 L 167.5 104 L 166.5 105 L 135 108 L 135 72.5 L 136.5 71 L 179.5 71 L 180 70.5 L 180 60.5 L 181 59.5 L 181 46 L 118.5 46 L 118.5 45 Z " /><path fill="rgb(239,216,101)" stroke="rgb(239,216,101)" stroke-width="1" opacity="0.9686274509803922" d="M 76.5 46 L 77 154.5 L 76 154.5 L 76.5 46 Z " /><path fill="rgb(239,216,101)" stroke="rgb(239,216,101)" stroke-width="1" opacity="0.9686274509803922" d="M 96.5 46 Q 99.1 45.2 98 48.5 L 97 48.5 L 96.5 46 Z " /><path fill="rgb(239,216,101)" stroke="rgb(239,216,101)" stroke-width="1" opacity="0.9686274509803922" d="M 113.5 46 L 116 46.5 L 114 47 L 113.5 58 L 113 48.5 L 112 47.5 L 113.5 46 Z " /><path fill="rgb(239,216,101)" stroke="rgb(239,216,101)" stroke-width="1" opacity="0.9686274509803922" d="M 113.5 64 L 115 136.5 L 116.5 138 L 126.5 136 L 126.5 137 L 115.5 139 L 113 132.5 Q 115.3 131.3 114 126.5 L 113 125.5 L 113 114.5 L 114 113.5 L 114 105.5 L 113 104.5 L 113.5 64 Z " /><path fill="rgb(239,216,101)" stroke="rgb(239,216,101)" stroke-width="1" opacity="0.9686274509803922" d="M 176.5 120 L 177 121.5 L 176 122.5 L 174 158.5 L 172.5 166 L 172 157.5 L 173 156.5 L 175 122.5 L 176.5 120 Z " /><path fill="rgb(239,216,101)" stroke="rgb(239,216,101)" stroke-width="1" opacity="0.9686274509803922" d="M 152.5 131 L 156 132.5 L 155 139.5 L 156 142.5 Q 153.3 144.2 155 150.5 L 153.5 152 L 117.5 161 L 117.5 160 L 145.5 153 L 148.5 151 L 152.5 151 L 154 149.5 L 155 140.5 L 154 138.5 L 155 136.5 L 152.5 132 L 146.5 134 L 140.5 134 L 140.5 133 L 151.5 132 L 152.5 131 Z " /><path fill="rgb(239,216,101)" stroke="rgb(239,216,101)" stroke-width="1" opacity="0.9686274509803922" d="M 134.5 134 L 139 134.5 Q 135.3 136.8 128.5 136 L 128.5 135 Q 133.3 136.3 134.5 134 Z " /><path fill="rgb(239,216,101)" stroke="rgb(239,216,101)" stroke-width="1" opacity="0.9686274509803922" d="M 35 145 L 39 145.5 L 36 146 L 35.5 168 L 35 145 Z " /><path fill="rgb(239,216,101)" stroke="rgb(239,216,101)" stroke-width="1" opacity="0.9686274509803922" d="M 40.5 146 L 46 147.5 L 43.5 148 L 40.5 147 L 40.5 146 Z " /><path fill="rgb(239,216,101)" stroke="rgb(239,216,101)" stroke-width="1" opacity="0.9686274509803922" d="M 114 160 Q 117 159 116 162 Q 112.3 160.7 114 166.5 L 113 166.5 L 114 160 Z " /><path fill="rgb(239,216,101)" stroke="rgb(239,216,101)" stroke-width="1" opacity="0.9686274509803922" d="M 113.5 168 L 114 179.5 L 113 179.5 L 113.5 168 Z " /><path fill="rgb(239,216,101)" stroke="rgb(239,216,101)" stroke-width="1" opacity="0.9686274509803922" d="M 171.5 168 L 173 171.5 L 170.5 174 L 144.5 180 L 144.5 179 L 169.5 173 L 171 171.5 L 171.5 168 Z " /><path fill="rgb(239,216,101)" stroke="rgb(239,216,101)" stroke-width="1" opacity="0.9686274509803922" d="M 35.5 169 L 38 170.5 L 36.5 171 L 35.5 169 Z " /><path fill="rgb(239,216,101)" stroke="rgb(239,216,101)" stroke-width="1" opacity="0.9686274509803922" d="M 72.5 180 L 75 180.5 L 72.5 181 L 72.5 180 Z " /><path fill="rgb(239,216,101)" stroke="rgb(239,216,101)" stroke-width="1" opacity="0.9686274509803922" d="M 139.5 180 L 143 180.5 L 136.5 182 L 136.5 181 L 139.5 180 Z " /><path fill="rgb(239,216,101)" stroke="rgb(239,216,101)" stroke-width="1" opacity="0.9686274509803922" d="M 113.5 181 L 114 186 L 126.5 184 L 126.5 185 L 115.5 188 Q 111.5 186.5 113.5 181 Z " /><path fill="rgb(239,216,101)" stroke="rgb(239,216,101)" stroke-width="1" opacity="0.9686274509803922" d="M 132.5 182 L 135 182.5 L 128.5 185 L 128 183 L 132.5 182 Z " /><path fill="rgb(239,216,101)" stroke="rgb(239,216,101)" stroke-width="1" opacity="0.9686274509803922" d="M 83.5 183 L 86 183.5 L 83.5 184 L 83.5 183 Z " /><path fill="rgb(239,216,101)" stroke="rgb(239,216,101)" stroke-width="1" opacity="0.9686274509803922" d="M 97.5 184 L 98 187 L 94 186.5 L 97 186 L 97.5 184 Z " /><path fill="rgb(251,216,62)" stroke="rgb(251,216,62)" stroke-width="1" opacity="1" d="M 106.5 19 L 191.5 19 Q 192.5 19 192 23.5 L 190 30.5 L 190.5 32 L 189 32.5 L 190 37.5 L 187.5 36 Q 184.9 35.3 186 38 L 184 38 L 184 40 Q 188.1 38.3 187 42.5 L 188 42.5 Q 186.9 39.2 189.5 40 L 189 41.5 L 190 47.5 L 189 48.5 L 189 56 Q 186.3 54.9 187 57.5 Q 189.8 59.3 188 65.5 L 185.5 67 L 182 66.5 Q 182.8 72.3 179.5 74 L 174.5 73 L 140 72.5 L 174.5 72 L 178.5 73 L 181 70.5 L 182.5 48 L 184.5 56 L 185 53.5 L 184 48 Q 187.7 46.6 186 52.5 L 187.5 55 L 188 44.5 L 185.5 44 Q 180.7 42.7 182 46 L 184 46.5 L 182.5 47 L 180.5 45 L 160 44.5 L 180 43.5 L 178 42.5 L 183 39.5 Q 183.9 36.5 179.5 38 L 179.5 37 L 181 36.5 L 179 36 L 178 32 Q 181.8 31 183 33.5 L 184.5 36 Q 187.5 34 187 28.5 L 186 28.5 L 184.5 31 Q 184 27.5 179.5 28 L 176.5 30 L 113.5 29 Q 110.5 29.7 112 26 L 114.5 25 L 177.5 26 L 186 25 L 186.5 27 L 187.5 24 L 188.5 26 Q 191.8 24.8 191 21 L 184.5 21 L 183.5 20 L 178.5 22 L 177.5 21 L 110.5 21 Q 107.5 21.5 108 25.5 L 109 25.5 L 109.5 24 L 110 35.5 L 109 35.5 L 108.5 31 L 108 38.5 L 110 38.5 L 110.5 113 L 113 112 L 113.5 105 L 114 113.5 L 112 120.5 L 114 126.5 L 114 131.5 L 113 131.5 Q 114 126.5 111 127.5 L 111 117.5 L 110 117.5 L 109.5 216 L 108.5 212 L 108 218.5 L 109 218.5 L 109.5 217 L 112.5 218 L 115 216.5 L 113 216 Q 111.8 213 115.5 214 L 118.5 215 L 123 212.5 L 120.5 209 L 117.5 210 Q 111.4 211.3 112 208.5 Q 112.8 206.3 116.5 207 L 124 208.5 L 122 209.5 L 128 210 L 128.5 212 L 130.5 210 L 137.5 209 L 137.5 210 L 136 210.5 L 139.5 211 L 142 210 L 143.5 207 L 158.5 207 L 159 205.5 L 160.5 204 L 168 204 Q 166.5 200.3 169.5 201 L 172.5 202 L 175 201 L 175 176.5 L 177 174.5 L 173.5 172 L 171 173.5 L 173 170.5 L 172 166.5 L 173 166.5 L 173 170 Q 175.7 168.9 175 171.5 L 176 171.5 Q 178.7 169.2 178 163.5 L 177 163.5 L 176.5 165 L 175 164.5 L 174.5 167 L 173 164.5 L 177 162.5 L 175 162 L 174.5 160 L 173.5 162 L 173 159.5 L 174 158.5 L 174.5 146 L 175.5 160 L 178 152.5 L 177 148.5 Q 179.3 147.3 178 142.5 L 176.5 139 L 175 139.5 L 176 122.5 L 177 120.5 L 177 118.5 L 178 104.5 Q 176.4 101.5 171 103 L 171.5 101 L 176 102 L 176 100 L 170 100 Q 171 103 168 102 Q 166.5 98.2 169.5 99 L 169.5 98 L 166.5 97 L 163.5 98 L 156.5 100 L 154.5 100 L 144 101 Q 145.1 98.3 142.5 99 L 140 100.5 Q 140.6 95.9 138 94.5 L 138 81.5 L 141 80 L 142.5 76 L 144 79.5 L 141 81 L 141 94.5 L 142 97 L 145.5 98 L 148.5 97 L 152.5 98 L 154.5 96 L 170.5 96 L 176 98.5 Q 175.3 100.8 177.5 100 L 180.5 96 L 183 94.5 L 183 86.5 Q 185.6 85.1 185 80.5 L 182.5 80 Q 178.8 79.3 178 81.5 L 179 95 L 176 94.5 L 176 85.5 L 174 77.5 L 176 76.5 L 176.5 79 L 184 77 L 183 71.5 L 185 71.5 Q 184.3 69.3 186.5 70 Q 189.3 71.3 187 72.5 L 186.5 78 L 185.5 76 L 185 79.5 L 187 79.5 L 185 88.5 L 183 127.5 L 181 136.5 L 181 147.5 L 180 148.5 L 180 159.5 L 178 168.5 L 178 183.5 L 176 192.5 L 176 202 L 159.5 208 L 155.5 208 L 127.5 217 L 106 222 L 106 24.5 L 107 23.5 L 106 21.5 L 106.5 19 Z M 185 41 L 183 43 L 186 43 Q 187 40 185 41 Z M 184 56 L 183 64 L 185 64 L 187 64 L 187 61 L 187 59 L 186 56 L 185 60 L 184 56 Z M 181 104 L 179 111 L 181 120 L 183 112 L 183 105 L 181 104 Z M 179 112 L 178 122 L 177 123 L 178 128 L 177 132 L 178 137 L 177 139 L 179 140 L 179 112 Z M 181 123 L 180 128 L 182 127 L 181 123 Z M 179 148 L 178 152 L 179 152 L 179 148 Z M 109 177 L 108 180 L 109 180 L 109 177 Z M 109 182 L 108 185 L 109 185 L 109 182 Z M 109 187 L 108 193 L 109 193 L 109 187 Z M 131 212 L 131 213 L 133 213 L 131 212 Z " /><path fill="rgb(251,216,62)" stroke="rgb(251,216,62)" stroke-width="1" opacity="1" d="M 115 32 Q 118 31 117 34 Q 114 35 115 32 Z " /><path fill="rgb(251,216,62)" stroke="rgb(251,216,62)" stroke-width="1" opacity="1" d="M 120 32 Q 123 31 122 34 Q 119 35 120 32 Z " /><path fill="rgb(251,216,62)" stroke="rgb(251,216,62)" stroke-width="1" opacity="1" d="M 142.5 32 L 158.5 32 L 160 33.5 L 142 34 L 142.5 32 Z " /><path fill="rgb(251,216,62)" stroke="rgb(251,216,62)" stroke-width="1" opacity="1" d="M 123.5 34 L 129 36.5 Q 124.3 39 117 38 L 117.5 36 L 119.5 36 L 123.5 34 Z " /><path fill="rgb(251,216,62)" stroke="rgb(251,216,62)" stroke-width="1" opacity="1" d="M 143.5 36 L 175.5 36 L 176 38 L 143.5 38 L 142.5 39 L 142 37.5 L 143.5 36 Z " /><path fill="rgb(251,216,62)" stroke="rgb(251,216,62)" stroke-width="1" opacity="1" d="M 111 40 L 114.5 41 L 119 40 L 117.5 44 L 111 43 L 111 40 Z " /><path fill="rgb(251,216,62)" stroke="rgb(251,216,62)" stroke-width="1" opacity="1" d="M 136.5 40 L 175 40.5 L 144 41 L 143.5 43 L 136.5 43 L 135.5 42 L 124 41.5 L 135.5 41 L 136.5 40 Z M 137 41 L 137 42 L 143 42 L 137 41 Z " /><path fill="rgb(251,216,62)" stroke="rgb(251,216,62)" stroke-width="1" opacity="1" d="M 160.5 42 L 176 42.5 L 160.5 43 L 160.5 42 Z " /><path fill="rgb(251,216,62)" stroke="rgb(251,216,62)" stroke-width="1" opacity="1" d="M 145.5 44 L 152 44.5 L 145.5 45 L 145.5 44 Z " /><path fill="rgb(251,216,62)" stroke="rgb(251,216,62)" stroke-width="1" opacity="1" d="M 114.5 45 L 118 45.5 L 114.5 46 L 114.5 45 Z " /><path fill="rgb(251,216,62)" stroke="rgb(251,216,62)" stroke-width="1" opacity="1" d="M 111 46 L 113 46.5 L 112.5 49 Q 109.5 49.7 111 46 Z " /><path fill="rgb(251,216,62)" stroke="rgb(251,216,62)" stroke-width="1" opacity="1" d="M 113.5 58 L 114 63.5 L 113 63.5 L 113.5 58 Z " /><path fill="rgb(251,216,62)" stroke="rgb(251,216,62)" stroke-width="1" opacity="1" d="M 137.5 73 L 139 73.5 L 138 75.5 L 139 77.5 L 138 77.5 L 137.5 76 L 137 105 L 142.5 104 L 149 105.5 L 138.5 106 L 137.5 107 L 136 105.5 L 136 74.5 L 137.5 73 Z " /><path fill="rgb(251,216,62)" stroke="rgb(251,216,62)" stroke-width="1" opacity="1" d="M 112.5 96 L 113 101.5 L 112 101.5 L 112.5 96 Z " /><path fill="rgb(251,216,62)" stroke="rgb(251,216,62)" stroke-width="1" opacity="1" d="M 147.5 102 L 166 103.5 L 153.5 105 L 148.5 104 L 147.5 102 Z " /><path fill="rgb(251,216,62)" stroke="rgb(251,216,62)" stroke-width="1" opacity="1" d="M 152.5 132 L 155 137.5 L 154 139.5 L 155 142.5 L 153.5 148 L 152.5 144 L 150 145 L 150 138.5 L 152 138 L 152.5 143 L 154 136.5 L 152.5 132 Z " /><path fill="rgb(251,216,62)" stroke="rgb(251,216,62)" stroke-width="1" opacity="1" d="M 147.5 133 L 150 133.5 L 148.5 135 L 140 135 L 139.5 137 L 127.5 137 L 127.5 136 L 134.5 136 L 147.5 133 Z " /><path fill="rgb(251,216,62)" stroke="rgb(251,216,62)" stroke-width="1" opacity="1" d="M 112.5 134 Q 115.1 133.2 114 136.5 L 113 136.5 L 112.5 134 Z " /><path fill="rgb(251,216,62)" stroke="rgb(251,216,62)" stroke-width="1" opacity="1" d="M 143.5 136 L 147 140.5 L 144 146 L 148.5 144 L 145 148.5 L 145.5 150 L 152.5 150 L 154 149.5 L 144.5 153 L 143.5 150 L 133 148 L 134.5 151 Q 137.1 150.3 136 153 L 129.5 152 L 126.5 154 L 126.5 153 Q 128.8 153.8 128 151.5 L 126.5 150 L 123 150.5 Q 123.8 147.9 120.5 149 L 118.5 150 L 118 147.5 L 118.5 146 L 120.5 147 L 123.5 146 L 125 145.5 L 122.5 143 L 118.5 143 L 114 139.5 L 114.5 138 L 117.5 139 L 119.5 138 L 119 139.5 L 118 141.5 L 126 142.5 L 125 144.5 L 127 145.5 Q 126.4 142.8 132.5 144 L 137 145 L 138.5 148 L 140.5 147 L 144.5 148 L 143 145.5 Q 143.8 142.9 140.5 144 Q 138.5 141 132.5 142 L 129.5 143 L 129.5 142 Q 133.3 143 132 140 L 130 139.5 Q 135.4 136.9 144 137.5 L 143.5 136 Z M 138 140 L 138 142 Q 143 143 145 141 L 138 140 Z M 129 145 L 128 148 Q 125 149 130 151 Q 132 150 130 149 L 132 149 L 132 146 L 129 145 Z " /><path fill="rgb(251,216,62)" stroke="rgb(251,216,62)" stroke-width="1" opacity="1" d="M 124.5 137 L 128 138.5 L 123 140 L 124.5 137 Z " /><path fill="rgb(251,216,62)" stroke="rgb(251,216,62)" stroke-width="1" opacity="1" d="M 114.5 142 L 116 144.5 Q 114 149 112 145.5 L 114.5 142 Z " /><path fill="rgb(251,216,62)" stroke="rgb(251,216,62)" stroke-width="1" opacity="1" d="M 115.5 150 L 116 152 L 118.5 151 Q 120 154.1 125 153.5 L 119.5 154 Q 118.3 151.8 117 154.5 L 116 156.5 L 117.5 157 L 119 156.5 L 116.5 158 L 114 157 Q 112.7 160.7 118.5 159 L 118.5 160 L 116.5 161 L 113 160 L 112 157.5 L 114 157 L 115 153.5 L 115 151.5 L 115.5 150 Z " /><path fill="rgb(251,216,62)" stroke="rgb(251,216,62)" stroke-width="1" opacity="1" d="M 137 153 L 142 153.5 L 137.5 155 L 137 153 Z " /><path fill="rgb(251,216,62)" stroke="rgb(251,216,62)" stroke-width="1" opacity="1" d="M 135.5 154 L 134.5 156 L 129.5 157 L 128.5 155 Q 134 156.5 135.5 154 Z " /><path fill="rgb(251,216,62)" stroke="rgb(251,216,62)" stroke-width="1" opacity="1" d="M 123.5 157 L 126 157.5 L 122.5 159 L 123.5 157 Z " /><path fill="rgb(251,216,62)" stroke="rgb(251,216,62)" stroke-width="1" opacity="1" d="M 111.5 163 L 112 165.5 L 111 165.5 L 111.5 163 Z " /><path fill="rgb(251,216,62)" stroke="rgb(251,216,62)" stroke-width="1" opacity="1" d="M 163.5 175 L 168 176.5 L 159.5 177 L 159.5 176 L 163.5 175 Z " /><path fill="rgb(251,216,62)" stroke="rgb(251,216,62)" stroke-width="1" opacity="1" d="M 155.5 177 L 158 178.5 L 157 181.5 L 158 182.5 L 156.5 185 Q 160.9 186.5 160 183.5 L 161 183.5 L 159.5 188 L 156.5 186 Q 151.8 187.3 150.5 185 L 149 185.5 Q 149.8 182.9 146.5 184 L 146.5 183 L 151.5 184 L 150.5 182 L 143 180.5 L 152.5 178 L 152.5 179 L 151 179.5 L 154.5 182 L 155 179 L 157 178.5 L 155.5 177 Z " /><path fill="rgb(251,216,62)" stroke="rgb(251,216,62)" stroke-width="1" opacity="1" d="M 140.5 181 L 142 181.5 L 132 185 Q 130.6 189 137.5 187 L 141 186 Q 139.9 189.3 144 188 L 145.5 185 L 146 186.5 L 145 190 Q 139.6 188.5 138 191.5 L 138.5 193 L 133 190.5 L 136 189.5 L 131.5 188 L 127.5 193 Q 125.3 193.8 126 191.5 L 131 187.5 L 128 187 L 127.5 185 L 122 187.5 Q 124.8 188.6 124 192 L 120.5 191 L 119 191.5 Q 122.5 190 120 188.5 Q 118.7 184.3 123.5 186 L 127.5 184 L 129.5 184 L 140.5 181 Z " /><path fill="rgb(251,216,62)" stroke="rgb(251,216,62)" stroke-width="1" opacity="1" d="M 112.5 184 L 115.5 188 L 118.5 187 L 118 188.5 L 117 191.5 L 117.5 193 L 112 192.5 L 114.5 191 L 116 191.5 Q 116.7 188.9 114 190 L 114 187.5 Q 111 186.5 112.5 184 Z " /><path fill="rgb(251,216,62)" stroke="rgb(251,216,62)" stroke-width="1" opacity="1" d="M 147.5 185 L 148 187.5 L 146 188.5 L 147.5 185 Z " /><path fill="rgb(251,216,62)" stroke="rgb(251,216,62)" stroke-width="1" opacity="1" d="M 149.5 190 L 159.5 190 Q 161 193.3 166 192 L 166 194 Q 171.2 192.3 170 196 L 160.5 196 L 159.5 193 L 150.5 193 L 146 191.5 L 149.5 190 Z " /><path fill="rgb(251,216,62)" stroke="rgb(251,216,62)" stroke-width="1" opacity="1" d="M 128.5 208 L 132 208.5 L 128.5 209 L 128.5 208 Z " /></svg>