<svg width="212" height="238" version="1.1" xmlns="http://www.w3.org/2000/svg" desc="Created with imagetracer.js version 1.2.6" ><path fill="rgb(246,249,248)" stroke="rgb(246,249,248)" stroke-width="1" opacity="0.996078431372549" d="M 106 44 L 171.5 44 L 172 45.5 L 171 46.5 L 171 55.5 L 170 56.5 L 169 70 L 160.5 69 L 159.5 70 L 151.5 70 Q 150.3 67.8 145.5 69 L 144.5 70 L 128.5 70 L 127.5 69 L 104 68.5 L 106 67.5 L 104 66.5 L 107 65.5 L 106 64.5 L 106 44 Z M 110 45 L 109 48 L 110 48 L 110 45 Z " /><path fill="rgb(246,249,248)" stroke="rgb(246,249,248)" stroke-width="1" opacity="0.996078431372549" d="M 103.5 72 L 106 72.5 L 106 79.5 L 102.5 79 L 97.5 80 L 92.5 78 L 92.5 80 L 87 79.5 L 103.5 72 Z M 97 77 L 99 79 L 100 79 L 97 77 Z M 101 77 L 101 78 L 103 78 L 101 77 Z " /><path fill="rgb(246,249,248)" stroke="rgb(246,249,248)" stroke-width="1" opacity="0.996078431372549" d="M 84.5 80 L 87 81.5 L 85.5 81 L 80.5 84 L 82.5 81 L 84.5 80 Z " /><path fill="rgb(246,249,248)" stroke="rgb(246,249,248)" stroke-width="1" opacity="0.996078431372549" d="M 106 97 L 166.5 97 L 167 99.5 L 166 100.5 L 166 111.5 L 165 112.5 L 165 123.5 L 163 134.5 L 163 145.5 L 162 146.5 L 160 177 L 106.5 193 L 106 165 L 128.5 158 L 136 157 L 138 122 L 106 122 L 106 102.5 L 106 100.5 L 106 97 Z " /><path fill="rgb(246,249,248)" stroke="rgb(246,249,248)" stroke-width="1" opacity="0.996078431372549" d="M 93.5 121 L 105 121.5 L 93.5 122 L 93.5 121 Z " /><path fill="rgb(246,249,248)" stroke="rgb(246,249,248)" stroke-width="1" opacity="0.996078431372549" d="M 102.5 187 L 104 187.5 L 100 189.5 L 100.5 191 L 98 189.5 L 102.5 187 Z " /><path fill="rgb(246,249,248)" stroke="rgb(246,249,248)" stroke-width="1" opacity="0.996078431372549" d="M 104.5 190 L 103.5 192 L 104.5 190 Z " /><path fill="rgb(0,0,0)" stroke="rgb(0,0,0)" stroke-width="1" opacity="0" d="M 0.5 5 L 4 48.5 L 5 49.5 L 5 60.5 L 7 71.5 L 7 81.5 L 9 92.5 L 10 114.5 L 11 115.5 L 13 145.5 L 14 146.5 L 14 157.5 L 15 158.5 L 18 201.5 L 19 202.5 L 19 212.5 L 20 215 L 105 237.5 L 0 238 L 0.5 5 Z " /><path fill="rgb(0,0,0)" stroke="rgb(0,0,0)" stroke-width="1" opacity="0" d="M 211.5 7 L 212 238 L 107 237.5 L 192 215 L 194 202.5 L 194 190.5 L 196 179.5 L 196 168.5 L 198 157.5 L 198 147.5 L 200 136.5 L 203 92.5 L 205 81.5 L 205 71.5 L 206 70.5 L 206 60.5 L 207 59.5 L 207 49.5 L 208 48.5 L 211.5 7 Z " /><path fill="rgb(214,216,217)" stroke="rgb(214,216,217)" stroke-width="1" opacity="0.996078431372549" d="M 41 45 L 47 45.5 L 46 47.5 Q 47.3 50.3 48.5 48 L 52 48.5 L 50 49 L 50 63.5 L 48 64 L 47.5 58 L 47 65 L 50.5 66 L 56.5 66 L 72 66.5 L 48.5 67 L 46.5 66 L 44 67 L 43 64.5 L 44.5 65 L 46 64.5 L 45 61.5 L 46 59.5 L 44 54.5 L 45 54.5 L 46.5 58 L 48 53.5 L 44.5 48 L 44 51.5 L 44.5 53 Q 40.8 51.8 42 55.5 Q 44.6 56.9 44 61.5 L 43 61.5 L 40 55.5 L 40 52.5 L 42 48.5 L 41 45 Z " /><path fill="rgb(214,216,217)" stroke="rgb(214,216,217)" stroke-width="1" opacity="0.996078431372549" d="M 170.5 56 L 171 58.5 L 170 58.5 L 170.5 56 Z " /><path fill="rgb(214,216,217)" stroke="rgb(214,216,217)" stroke-width="1" opacity="0.996078431372549" d="M 41.5 61 L 42 63.5 L 41 63.5 L 41.5 61 Z " /><path fill="rgb(214,216,217)" stroke="rgb(214,216,217)" stroke-width="1" opacity="0.996078431372549" d="M 47.5 68 L 46.5 70 L 45 69.5 L 47.5 68 Z " /><path fill="rgb(214,216,217)" stroke="rgb(214,216,217)" stroke-width="1" opacity="0.996078431372549" d="M 80.5 69 L 87 69.5 L 80.5 70 L 80.5 69 Z " /><path fill="rgb(214,216,217)" stroke="rgb(214,216,217)" stroke-width="1" opacity="0.996078431372549" d="M 88.5 69 L 167 70.5 L 161.5 73 L 160.5 72 L 157.5 75 L 155.5 76 L 153 75 L 152.5 77 L 151.5 75 L 150.5 78 L 148.5 77 L 147.5 79 L 145.5 78 L 145.5 80 L 144 79.5 Q 144.8 82.1 141.5 81 L 139.5 81 L 138 81.5 L 138.5 83 L 133.5 85 L 132 84.5 L 131.5 86 L 129.5 85 L 129.5 87 L 127.5 87 Q 124.2 85.9 125 88.5 L 123.5 88 L 122 88.5 L 122.5 90 L 120.5 89 L 118 90 L 117.5 92 L 116 91.5 L 115.5 93 L 113.5 92 L 113.5 94 Q 111.3 94.8 112 92.5 L 110.5 93 L 107 94.5 L 109 95.5 L 105.5 97 L 103.5 97 L 62.5 97 L 61.5 98 L 52.5 98 L 47 99 L 48.5 102 L 56 103 Q 54.6 99.3 60.5 101 L 60.5 102 L 56 103.5 L 58 104 L 58 111.5 L 59.5 112 L 59.5 113 L 56.5 114 L 53.5 113 L 50 114.5 L 55.5 116 L 57.5 115 L 60 116 Q 57.8 121.6 63.5 120 L 63.5 121 L 48.5 121 L 46 122 L 46.5 120 L 48 120.5 L 46 111.5 L 48 111.5 L 48 107.5 L 45 100.5 L 47 97.5 L 45 97.5 Q 44.3 95.3 46.5 96 L 48 96.5 Q 47.3 94.3 49.5 95 L 51.5 95 Q 53.8 95.8 53 93.5 L 55 93.5 L 55.5 92 L 57 92.5 L 57.5 91 L 59 91.5 L 59.5 90 L 60.5 91 Q 62.3 87.9 64 89.5 Q 63.2 86.9 66.5 88 L 69 87.5 L 69.5 86 L 71.5 87 L 73.5 87 L 76.5 88 L 74.5 84 L 82.5 88 L 83.5 86 L 79.5 84 L 78 84.5 Q 79.8 81.3 81.5 85 L 86.5 87 L 92.5 87 L 93.5 86 L 102.5 86 L 105 86.5 L 105.5 88 L 106 72.5 L 105.5 71 L 108 72 L 107.5 70 L 88.5 70 L 88.5 69 Z M 109 84 L 108 88 L 109 88 L 109 84 Z M 106 89 L 106 90 L 108 90 L 106 89 Z M 109 91 L 109 92 L 111 92 L 109 91 Z M 53 104 L 53 112 L 56 112 L 56 104 L 53 104 Z " /><path fill="rgb(214,216,217)" stroke="rgb(214,216,217)" stroke-width="1" opacity="0.996078431372549" d="M 45.5 106 L 46 108.5 L 45 108.5 L 45.5 106 Z " /><path fill="rgb(214,216,217)" stroke="rgb(214,216,217)" stroke-width="1" opacity="0.996078431372549" d="M 165.5 113 L 166 115.5 L 165 115.5 L 165.5 113 Z " /><path fill="rgb(214,216,217)" stroke="rgb(214,216,217)" stroke-width="1" opacity="0.996078431372549" d="M 137.5 126 L 138 129.5 L 137 129.5 L 137.5 126 Z " /><path fill="rgb(214,216,217)" stroke="rgb(214,216,217)" stroke-width="1" opacity="0.996078431372549" d="M 52.5 137 L 53 139 L 58 139.5 L 52 140 L 52.5 137 Z " /><path fill="rgb(214,216,217)" stroke="rgb(214,216,217)" stroke-width="1" opacity="0.996078431372549" d="M 50 141 L 57 141.5 L 56.5 143 L 62 143.5 L 59.5 145 L 58 144.5 L 58 147 Q 60.7 145.9 60 148.5 Q 56.2 151.7 58 160.5 L 60 160.5 L 60 166.5 L 58 167 L 58 169.5 L 58 171.5 Q 59.3 176.8 56.5 178 L 54 177.5 Q 56.3 176.3 55 171.5 L 53.5 168 L 51.5 172 L 51 169.5 Q 54 168.5 53 163.5 L 51.5 159 L 50.5 161 L 50 158.5 L 51.5 154 L 53 154.5 Q 51.9 150.3 56 152 L 56 146.5 L 54 146.5 L 53.5 144 L 52.5 149 L 51.5 144 L 51 149 Q 47.7 150.3 49 145.5 L 50 141 Z M 56 156 L 54 161 L 55 170 L 56 170 L 56 156 Z " /><path fill="rgb(214,216,217)" stroke="rgb(214,216,217)" stroke-width="1" opacity="0.996078431372549" d="M 75.5 142 L 76 145.5 L 75 145.5 L 75.5 142 Z " /><path fill="rgb(214,216,217)" stroke="rgb(214,216,217)" stroke-width="1" opacity="0.996078431372549" d="M 136.5 143 L 137 146.5 L 136 146.5 L 136.5 143 Z " /><path fill="rgb(214,216,217)" stroke="rgb(214,216,217)" stroke-width="1" opacity="0.996078431372549" d="M 53.5 172 L 54 175.5 L 52 176.5 L 53.5 172 Z " /><path fill="rgb(214,216,217)" stroke="rgb(214,216,217)" stroke-width="1" opacity="0.996078431372549" d="M 64.5 176 Q 70 175.5 72 178.5 L 70.5 179 Q 69.1 176.4 64.5 177 L 60.5 178 L 60.5 177 L 64.5 176 Z " /><path fill="rgb(214,216,217)" stroke="rgb(214,216,217)" stroke-width="1" opacity="0.996078431372549" d="M 65.5 178 L 67 178.5 L 65 179 L 64.5 181 L 64 179.5 L 65.5 178 Z " /><path fill="rgb(214,216,217)" stroke="rgb(214,216,217)" stroke-width="1" opacity="0.996078431372549" d="M 69.5 180 L 71 180.5 L 68.5 182 L 69.5 180 Z " /><path fill="rgb(214,216,217)" stroke="rgb(214,216,217)" stroke-width="1" opacity="0.996078431372549" d="M 72.5 180 L 78 182.5 L 76.5 183 L 72.5 181 L 72.5 180 Z " /><path fill="rgb(225,226,226)" stroke="rgb(225,226,226)" stroke-width="1" opacity="1" d="M 39.5 44 L 105.5 44 L 106 44.5 L 106 64.5 L 106.5 66 L 104 64.5 Q 102.9 67.8 105.5 67 L 105.5 68 L 103.5 69 L 48.5 69 L 46.5 69 Q 42.8 69.8 42 67.5 L 41 57.5 L 42 57.5 L 43.5 62 L 44 58.5 L 42 53 L 45 52.5 L 44 48.5 L 45 48.5 L 48 55.5 L 47 57.5 L 48 64 L 50 63.5 L 50 49.5 L 51.5 49 L 51.5 48 L 47.5 49 L 46 46.5 L 46.5 45 L 41 45 L 41 47.5 L 42 50.5 L 40 51.5 Q 40.5 45.5 39.5 44 Z M 46 56 L 46 60 L 45 64 L 46 65 Q 43 64 44 67 L 47 66 L 49 67 L 72 67 L 57 66 L 51 66 L 47 65 Q 48 59 46 56 Z " /><path fill="rgb(225,226,226)" stroke="rgb(225,226,226)" stroke-width="1" opacity="1" d="M 109.5 45 L 110 47.5 L 109 47.5 L 109.5 45 Z " /><path fill="rgb(225,226,226)" stroke="rgb(225,226,226)" stroke-width="1" opacity="1" d="M 109.5 69 L 128 69.5 L 109.5 70 L 109.5 69 Z " /><path fill="rgb(225,226,226)" stroke="rgb(225,226,226)" stroke-width="1" opacity="1" d="M 145.5 69 L 151 69.5 L 145.5 70 L 145.5 69 Z " /><path fill="rgb(225,226,226)" stroke="rgb(225,226,226)" stroke-width="1" opacity="1" d="M 160.5 69 L 163 69.5 L 160.5 70 L 160.5 69 Z " /><path fill="rgb(225,226,226)" stroke="rgb(225,226,226)" stroke-width="1" opacity="1" d="M 160.5 72 L 159.5 74 L 160.5 72 Z " /><path fill="rgb(225,226,226)" stroke="rgb(225,226,226)" stroke-width="1" opacity="1" d="M 151.5 75 L 152 77 L 150 76.5 L 151.5 75 Z " /><path fill="rgb(225,226,226)" stroke="rgb(225,226,226)" stroke-width="1" opacity="1" d="M 91.5 77 L 99.5 80 L 99.5 79 L 96 77.5 L 98.5 77 L 100.5 77 L 103 77.5 L 100 78.5 L 103.5 80 Q 104.8 77.8 106 80.5 L 105.5 88 L 104.5 86 L 102.5 86 L 86.5 87 L 84.5 86 L 81.5 88 L 79 87.5 L 79.5 86 L 76 86.5 L 76.5 88 L 72.5 86 L 70.5 87 L 70.5 86 L 80.5 82 L 83 83.5 L 84.5 81 L 93 79.5 L 91.5 77 Z M 80 83 L 81 85 Q 82 82 80 83 Z M 82 85 L 82 86 L 84 86 L 82 85 Z " /><path fill="rgb(225,226,226)" stroke="rgb(225,226,226)" stroke-width="1" opacity="1" d="M 145.5 78 L 147 78.5 L 144.5 80 L 145.5 78 Z " /><path fill="rgb(225,226,226)" stroke="rgb(225,226,226)" stroke-width="1" opacity="1" d="M 108.5 84 L 109 87.5 L 108 87.5 L 108.5 84 Z " /><path fill="rgb(225,226,226)" stroke="rgb(225,226,226)" stroke-width="1" opacity="1" d="M 128.5 84 L 131 85.5 L 125.5 88 L 125.5 87 L 129 85.5 L 128.5 84 Z " /><path fill="rgb(225,226,226)" stroke="rgb(225,226,226)" stroke-width="1" opacity="1" d="M 105.5 89 L 108 89.5 L 105.5 90 L 105.5 89 Z " /><path fill="rgb(225,226,226)" stroke="rgb(225,226,226)" stroke-width="1" opacity="1" d="M 120.5 89 L 119.5 91 L 118 90.5 L 120.5 89 Z " /><path fill="rgb(225,226,226)" stroke="rgb(225,226,226)" stroke-width="1" opacity="1" d="M 114.5 90 L 117 91.5 L 115.5 91 L 114.5 90 Z " /><path fill="rgb(225,226,226)" stroke="rgb(225,226,226)" stroke-width="1" opacity="1" d="M 108.5 91 L 112 92.5 Q 112.8 94.8 110.5 94 L 107.5 95 L 108.5 93 L 111 92.5 Q 107.7 92.6 108.5 91 Z " /><path fill="rgb(225,226,226)" stroke="rgb(225,226,226)" stroke-width="1" opacity="1" d="M 47.5 96 L 47 97.5 Q 46.1 100.9 51.5 99 L 62.5 97 L 103.5 97 L 104.5 96 Q 106.8 96.8 106 100.5 L 106 102.5 L 105.5 122 L 104.5 121 L 93.5 121 L 90.5 122 L 48.5 122 L 46 119.5 Q 44.2 113.3 47 111.5 L 45 101.5 L 46 101.5 L 46.5 104 L 48 101.5 L 46.5 99 L 45 99.5 L 47.5 96 Z M 56 101 L 56 103 L 61 102 L 56 101 Z M 48 102 L 47 105 L 48 108 L 47 113 L 48 118 L 49 121 L 64 121 L 64 120 Q 58 122 60 116 L 58 115 L 56 116 L 50 115 L 54 113 L 57 114 L 60 113 L 60 112 L 58 112 L 58 104 L 56 105 L 56 112 L 53 112 L 53 104 L 56 104 L 48 102 Z " /><path fill="rgb(225,226,226)" stroke="rgb(225,226,226)" stroke-width="1" opacity="1" d="M 49 137 Q 53.5 135.5 52 140 L 57.5 140 L 57.5 139 Q 51.6 140.7 53 137 L 75 137 L 75 145.5 L 76 147.5 L 75 149.5 Q 77.5 151 76 156.5 L 77.5 158 L 88 160 L 88.5 162 L 92 161 Q 90.9 163.7 93.5 163 L 95.5 162 L 101.5 165 L 104 164 L 104.5 166 L 106 165.5 L 106 191.5 L 104.5 192 L 100.5 190 L 99 190.5 L 99.5 189 L 96 190 Q 97.1 187.3 94.5 188 L 93.5 189 L 89.5 187 Q 84.5 188 83.5 185 L 81.5 185 L 65 181 L 64.5 179 L 62.5 180 L 57 177.5 L 59 170.5 L 58 167 Q 61.5 168.1 60 160.5 L 58 160.5 Q 56.7 150.9 60 147 Q 57 148.3 58 144.5 L 60.5 144 L 62 143.5 L 56 142.5 L 56.5 141 L 50 141 L 50 144.5 L 49 144.5 Q 47.1 139.1 50.5 140 L 50.5 139 Q 47.9 139.7 49 137 Z M 65 176 L 65 177 L 68 177 L 65 176 Z M 61 177 L 61 178 L 64 178 L 61 177 Z M 72 180 L 73 182 L 75 181 L 72 180 Z M 76 181 L 77 183 L 78 183 L 76 181 Z M 104 186 L 102 188 L 104 188 L 104 186 Z " /><path fill="rgb(225,226,226)" stroke="rgb(225,226,226)" stroke-width="1" opacity="1" d="M 54.5 142 L 55 143.5 L 54 146.5 L 56 146.5 L 56 152 Q 51.9 150.3 53 154.5 L 50 154.5 L 51.5 144 L 52.5 149 L 54.5 142 Z " /><path fill="rgb(225,226,226)" stroke="rgb(225,226,226)" stroke-width="1" opacity="1" d="M 55.5 156 L 56 169.5 L 55 169.5 L 54 160.5 L 55.5 156 Z " /><path fill="rgb(225,226,226)" stroke="rgb(225,226,226)" stroke-width="1" opacity="1" d="M 51.5 159 L 56 177.5 L 54 176.5 L 53.5 172 L 52.5 176 L 52 170.5 L 53 168.5 L 51 168.5 L 51.5 159 Z " /><path fill="rgb(225,226,226)" stroke="rgb(225,226,226)" stroke-width="1" opacity="1" d="M 112.5 189 L 113.5 191 L 112.5 189 Z " /><path fill="rgb(164,195,225)" stroke="rgb(164,195,225)" stroke-width="1" opacity="0.6862745098039216" d="M 0.5 2 L 1 4.5 L 0 4.5 L 0.5 2 Z " /><path fill="rgb(164,195,225)" stroke="rgb(164,195,225)" stroke-width="1" opacity="0.6862745098039216" d="M 211.5 2 L 212 6.5 L 211 6.5 L 211.5 2 Z " /><path fill="rgb(164,195,225)" stroke="rgb(164,195,225)" stroke-width="1" opacity="0.6862745098039216" d="M 1.5 13 L 2 17.5 L 1 17.5 L 1.5 13 Z " /><path fill="rgb(164,195,225)" stroke="rgb(164,195,225)" stroke-width="1" opacity="0.6862745098039216" d="M 210.5 13 L 211 16.5 L 210 16.5 L 210.5 13 Z " /><path fill="rgb(164,195,225)" stroke="rgb(164,195,225)" stroke-width="1" opacity="0.6862745098039216" d="M 2.5 24 L 3 27.5 L 2 27.5 L 2.5 24 Z " /><path fill="rgb(164,195,225)" stroke="rgb(164,195,225)" stroke-width="1" opacity="0.6862745098039216" d="M 209.5 24 L 210 28.5 L 209 28.5 L 209.5 24 Z " /><path fill="rgb(164,195,225)" stroke="rgb(164,195,225)" stroke-width="1" opacity="0.6862745098039216" d="M 3.5 35 L 4 38.5 L 3 38.5 L 3.5 35 Z " /><path fill="rgb(164,195,225)" stroke="rgb(164,195,225)" stroke-width="1" opacity="0.6862745098039216" d="M 208.5 35 L 209 38.5 L 208 38.5 L 208.5 35 Z " /><path fill="rgb(164,195,225)" stroke="rgb(164,195,225)" stroke-width="1" opacity="0.6862745098039216" d="M 207.5 46 L 208 48.5 L 207 48.5 L 207.5 46 Z " /><path fill="rgb(164,195,225)" stroke="rgb(164,195,225)" stroke-width="1" opacity="0.6862745098039216" d="M 5.5 56 L 6 60.5 L 5 60.5 L 5.5 56 Z " /><path fill="rgb(164,195,225)" stroke="rgb(164,195,225)" stroke-width="1" opacity="0.6862745098039216" d="M 206.5 57 L 207 59.5 L 206 59.5 L 206.5 57 Z " /><path fill="rgb(164,195,225)" stroke="rgb(164,195,225)" stroke-width="1" opacity="0.6862745098039216" d="M 6.5 68 L 7 70.5 L 6 70.5 L 6.5 68 Z " /><path fill="rgb(164,195,225)" stroke="rgb(164,195,225)" stroke-width="1" opacity="0.6862745098039216" d="M 205.5 68 L 206 70.5 L 205 70.5 L 205.5 68 Z " /><path fill="rgb(164,195,225)" stroke="rgb(164,195,225)" stroke-width="1" opacity="0.6862745098039216" d="M 7.5 78 L 8 81.5 L 7 81.5 L 7.5 78 Z " /><path fill="rgb(164,195,225)" stroke="rgb(164,195,225)" stroke-width="1" opacity="0.6862745098039216" d="M 204.5 79 L 205 81.5 L 204 81.5 L 204.5 79 Z " /><path fill="rgb(164,195,225)" stroke="rgb(164,195,225)" stroke-width="1" opacity="0.6862745098039216" d="M 8.5 89 L 9 91.5 L 8 91.5 L 8.5 89 Z " /><path fill="rgb(164,195,225)" stroke="rgb(164,195,225)" stroke-width="1" opacity="0.6862745098039216" d="M 9.5 100 L 10 103.5 L 9 103.5 L 9.5 100 Z " /><path fill="rgb(164,195,225)" stroke="rgb(164,195,225)" stroke-width="1" opacity="0.6862745098039216" d="M 202.5 100 L 203 103.5 L 202 103.5 L 202.5 100 Z " /><path fill="rgb(164,195,225)" stroke="rgb(164,195,225)" stroke-width="1" opacity="0.6862745098039216" d="M 10.5 112 L 11 114.5 L 10 114.5 L 10.5 112 Z " /><path fill="rgb(164,195,225)" stroke="rgb(164,195,225)" stroke-width="1" opacity="0.6862745098039216" d="M 201.5 112 L 202 114.5 L 201 114.5 L 201.5 112 Z " /><path fill="rgb(164,195,225)" stroke="rgb(164,195,225)" stroke-width="1" opacity="0.6862745098039216" d="M 11.5 122 L 12 124.5 L 11 124.5 L 11.5 122 Z " /><path fill="rgb(164,195,225)" stroke="rgb(164,195,225)" stroke-width="1" opacity="0.6862745098039216" d="M 200.5 122 L 201 125.5 L 200 125.5 L 200.5 122 Z " /><path fill="rgb(164,195,225)" stroke="rgb(164,195,225)" stroke-width="1" opacity="0.6862745098039216" d="M 199.5 133 L 200 136.5 L 199 136.5 L 199.5 133 Z " /><path fill="rgb(164,195,225)" stroke="rgb(164,195,225)" stroke-width="1" opacity="0.6862745098039216" d="M 198.5 143 L 199 146.5 L 198 146.5 L 198.5 143 Z " /><path fill="rgb(164,195,225)" stroke="rgb(164,195,225)" stroke-width="1" opacity="0.6862745098039216" d="M 14.5 155 L 15 157.5 L 14 157.5 L 14.5 155 Z " /><path fill="rgb(164,195,225)" stroke="rgb(164,195,225)" stroke-width="1" opacity="0.6862745098039216" d="M 15.5 165 L 16 168.5 L 15 168.5 L 15.5 165 Z " /><path fill="rgb(164,195,225)" stroke="rgb(164,195,225)" stroke-width="1" opacity="0.6862745098039216" d="M 196.5 165 L 197 167.5 L 196 167.5 L 196.5 165 Z " /><path fill="rgb(164,195,225)" stroke="rgb(164,195,225)" stroke-width="1" opacity="0.6862745098039216" d="M 16.5 176 L 17 179.5 L 16 179.5 L 16.5 176 Z " /><path fill="rgb(164,195,225)" stroke="rgb(164,195,225)" stroke-width="1" opacity="0.6862745098039216" d="M 195.5 176 L 196 179.5 L 195 179.5 L 195.5 176 Z " /><path fill="rgb(164,195,225)" stroke="rgb(164,195,225)" stroke-width="1" opacity="0.6862745098039216" d="M 17.5 187 L 18 190.5 L 17 190.5 L 17.5 187 Z " /><path fill="rgb(164,195,225)" stroke="rgb(164,195,225)" stroke-width="1" opacity="0.6862745098039216" d="M 194.5 187 L 195 189.5 L 194 189.5 L 194.5 187 Z " /><path fill="rgb(164,195,225)" stroke="rgb(164,195,225)" stroke-width="1" opacity="0.6862745098039216" d="M 18.5 198 L 19 200.5 L 18 200.5 L 18.5 198 Z " /><path fill="rgb(164,195,225)" stroke="rgb(164,195,225)" stroke-width="1" opacity="0.6862745098039216" d="M 193.5 198 L 194 202.5 L 193 202.5 L 193.5 198 Z " /><path fill="rgb(164,195,225)" stroke="rgb(164,195,225)" stroke-width="1" opacity="0.6862745098039216" d="M 19.5 208 L 20 211.5 L 19 211.5 L 19.5 208 Z " /><path fill="rgb(164,195,225)" stroke="rgb(164,195,225)" stroke-width="1" opacity="0.6862745098039216" d="M 192.5 208 L 193 211.5 L 192 211.5 L 192.5 208 Z " /><path fill="rgb(94,140,183)" stroke="rgb(94,140,183)" stroke-width="1" opacity="0.6980392156862745" d="M 1.5 10 L 2 12.5 L 1 12.5 L 1.5 10 Z " /><path fill="rgb(94,140,183)" stroke="rgb(94,140,183)" stroke-width="1" opacity="0.6980392156862745" d="M 210.5 10 L 211 12.5 L 210 12.5 L 210.5 10 Z " /><path fill="rgb(94,140,183)" stroke="rgb(94,140,183)" stroke-width="1" opacity="0.6980392156862745" d="M 2.5 21 L 3 23.5 L 2 23.5 L 2.5 21 Z " /><path fill="rgb(94,140,183)" stroke="rgb(94,140,183)" stroke-width="1" opacity="0.6980392156862745" d="M 209.5 21 L 210 23.5 L 209 23.5 L 209.5 21 Z " /><path fill="rgb(94,140,183)" stroke="rgb(94,140,183)" stroke-width="1" opacity="0.6980392156862745" d="M 3.5 32 L 4 34.5 L 3 34.5 L 3.5 32 Z " /><path fill="rgb(94,140,183)" stroke="rgb(94,140,183)" stroke-width="1" opacity="0.6980392156862745" d="M 208.5 32 L 209 34.5 L 208 34.5 L 208.5 32 Z " /><path fill="rgb(94,140,183)" stroke="rgb(94,140,183)" stroke-width="1" opacity="0.6980392156862745" d="M 4.5 43 L 5 45.5 L 4 45.5 L 4.5 43 Z " /><path fill="rgb(94,140,183)" stroke="rgb(94,140,183)" stroke-width="1" opacity="0.6980392156862745" d="M 5.5 53 L 6 55.5 L 5 55.5 L 5.5 53 Z " /><path fill="rgb(94,140,183)" stroke="rgb(94,140,183)" stroke-width="1" opacity="0.6980392156862745" d="M 206.5 53 L 207 55.5 L 206 55.5 L 206.5 53 Z " /><path fill="rgb(94,140,183)" stroke="rgb(94,140,183)" stroke-width="1" opacity="0.6980392156862745" d="M 6.5 64 L 7 67.5 L 6 67.5 L 6.5 64 Z " /><path fill="rgb(94,140,183)" stroke="rgb(94,140,183)" stroke-width="1" opacity="0.6980392156862745" d="M 205.5 64 L 206 67.5 L 205 67.5 L 205.5 64 Z " /><path fill="rgb(94,140,183)" stroke="rgb(94,140,183)" stroke-width="1" opacity="0.6980392156862745" d="M 7.5 75 L 8 77.5 L 7 77.5 L 7.5 75 Z " /><path fill="rgb(94,140,183)" stroke="rgb(94,140,183)" stroke-width="1" opacity="0.6980392156862745" d="M 204.5 75 L 205 78.5 L 204 78.5 L 204.5 75 Z " /><path fill="rgb(94,140,183)" stroke="rgb(94,140,183)" stroke-width="1" opacity="0.6980392156862745" d="M 203.5 86 L 204 88.5 L 203 88.5 L 203.5 86 Z " /><path fill="rgb(94,140,183)" stroke="rgb(94,140,183)" stroke-width="1" opacity="0.6980392156862745" d="M 9.5 96 L 10 99.5 L 9 99.5 L 9.5 96 Z " /><path fill="rgb(94,140,183)" stroke="rgb(94,140,183)" stroke-width="1" opacity="0.6980392156862745" d="M 202.5 96 L 203 99.5 L 202 99.5 L 202.5 96 Z " /><path fill="rgb(94,140,183)" stroke="rgb(94,140,183)" stroke-width="1" opacity="0.6980392156862745" d="M 201.5 107 L 202 110.5 L 201 110.5 L 201.5 107 Z " /><path fill="rgb(94,140,183)" stroke="rgb(94,140,183)" stroke-width="1" opacity="0.6980392156862745" d="M 11.5 119 L 12 121.5 L 11 121.5 L 11.5 119 Z " /><path fill="rgb(94,140,183)" stroke="rgb(94,140,183)" stroke-width="1" opacity="0.6980392156862745" d="M 200.5 119 L 201 121.5 L 200 121.5 L 200.5 119 Z " /><path fill="rgb(94,140,183)" stroke="rgb(94,140,183)" stroke-width="1" opacity="0.6980392156862745" d="M 12.5 129 L 13 131.5 L 12 131.5 L 12.5 129 Z " /><path fill="rgb(94,140,183)" stroke="rgb(94,140,183)" stroke-width="1" opacity="0.6980392156862745" d="M 199.5 129 L 200 131.5 L 199 131.5 L 199.5 129 Z " /><path fill="rgb(94,140,183)" stroke="rgb(94,140,183)" stroke-width="1" opacity="0.6980392156862745" d="M 13.5 140 L 14 143.5 L 13 143.5 L 13.5 140 Z " /><path fill="rgb(94,140,183)" stroke="rgb(94,140,183)" stroke-width="1" opacity="0.6980392156862745" d="M 198.5 140 L 199 142.5 L 198 142.5 L 198.5 140 Z " /><path fill="rgb(94,140,183)" stroke="rgb(94,140,183)" stroke-width="1" opacity="0.6980392156862745" d="M 15.5 161 L 16 164.5 L 15 164.5 L 15.5 161 Z " /><path fill="rgb(94,140,183)" stroke="rgb(94,140,183)" stroke-width="1" opacity="0.6980392156862745" d="M 196.5 161 L 197 164.5 L 196 164.5 L 196.5 161 Z " /><path fill="rgb(94,140,183)" stroke="rgb(94,140,183)" stroke-width="1" opacity="0.6980392156862745" d="M 16.5 173 L 17 175.5 L 16 175.5 L 16.5 173 Z " /><path fill="rgb(94,140,183)" stroke="rgb(94,140,183)" stroke-width="1" opacity="0.6980392156862745" d="M 195.5 173 L 196 175.5 L 195 175.5 L 195.5 173 Z " /><path fill="rgb(94,140,183)" stroke="rgb(94,140,183)" stroke-width="1" opacity="0.6980392156862745" d="M 17.5 184 L 18 186.5 L 17 186.5 L 17.5 184 Z " /><path fill="rgb(94,140,183)" stroke="rgb(94,140,183)" stroke-width="1" opacity="0.6980392156862745" d="M 194.5 184 L 195 186.5 L 194 186.5 L 194.5 184 Z " /><path fill="rgb(94,140,183)" stroke="rgb(94,140,183)" stroke-width="1" opacity="0.6980392156862745" d="M 18.5 194 L 19 196.5 L 18 196.5 L 18.5 194 Z " /><path fill="rgb(94,140,183)" stroke="rgb(94,140,183)" stroke-width="1" opacity="0.6980392156862745" d="M 193.5 194 L 194 196.5 L 193 196.5 L 193.5 194 Z " /><path fill="rgb(94,140,183)" stroke="rgb(94,140,183)" stroke-width="1" opacity="0.6980392156862745" d="M 19.5 205 L 20 207.5 L 19 207.5 L 19.5 205 Z " /><path fill="rgb(94,140,183)" stroke="rgb(94,140,183)" stroke-width="1" opacity="0.6980392156862745" d="M 192.5 205 L 193 207.5 L 192 207.5 L 192.5 205 Z " /><path fill="rgb(60,156,217)" stroke="rgb(60,156,217)" stroke-width="1" opacity="1" d="M 107.5 18 L 110 18.5 L 108 19.5 L 109.5 21 L 175.5 21 L 175.5 20 L 113.5 20 L 112 18.5 L 189 18 L 188 22.5 L 189 22.5 L 190.5 18 L 191 20.5 L 190 22.5 L 191 24.5 L 189.5 30 L 189 24 Q 184.5 22.3 186 27.5 L 188 27.5 L 188.5 36 L 189.5 32 L 190 38.5 L 188 42.5 L 189 47.5 L 187 55.5 L 188 58.5 Q 185.3 59.2 186 63.5 L 187 67.5 L 186 67.5 Q 187.5 63.1 184.5 64 L 183 65.5 L 182 106.5 L 180.5 110 L 178.5 107 Q 175.4 108.4 176 113.5 L 177 113.5 L 177.5 112 L 178 113.5 L 176.5 116 L 176 114 L 174 114.5 L 174 123.5 L 175.5 128 L 177 120.5 L 176 117.5 L 177 117.5 L 178.5 121 L 179.5 112 L 180.5 118 L 181 112 Q 184 110.8 183 114.5 L 182 120 Q 178.7 118.7 180 123.5 L 182 128.5 L 180 127.5 L 179.5 125 L 179 130.5 L 181 138.5 L 178 149.5 L 178 157.5 L 179 161.5 L 178 168 L 176 168.5 L 176 176.5 L 174 175.5 L 175 166.5 L 173 161.5 L 174 160.5 L 174 145 Q 170 143.6 172 150.5 L 170 152.5 L 170 160 L 167.5 159 L 166 161.5 L 167.5 168 L 170.5 163 L 171 167.5 L 170 168.5 L 170 177 L 166 175.5 Q 168.5 174 167 168.5 L 166 168.5 L 165 175.5 L 163.5 177 Q 160.8 177.6 162 171.5 Q 165 168.5 164 161.5 L 163.5 160 Q 166.3 160.6 165 154.5 L 164 152.5 L 165.5 144 L 168 145 L 168 151.5 L 170 152 L 170 143.5 Q 166.2 140.8 167 135 Q 163.3 136.3 165 130.5 Q 169 127 168 118.5 L 168 116.5 L 167 108.5 L 169.5 105 Q 172.5 104.1 171 108.5 L 172 110.5 L 169 112 L 170.5 126 L 173 113.5 L 175 109.5 L 175 104.5 L 172 100 L 174.5 99 Q 177 100.2 176 104 L 179 104 L 179 95.5 L 180 94.5 L 180 65.5 L 183 62.5 L 183 49.5 L 184.5 48 L 185.5 53 L 187 49.5 L 185.5 42 L 184.5 45 L 184 37.5 L 185 36.5 L 185 24 L 178.5 25 L 112 25 Q 113 22 110 23 L 111 28.5 L 110 30.5 L 111.5 32 L 127.5 32 L 128.5 33 L 143.5 32 L 146.5 31 L 160.5 31 L 162 32.5 Q 161.3 34.8 163.5 34 Q 164.3 36.8 168.5 36 L 170.5 35 L 174.5 37 L 177 36.5 L 176.5 33 L 170 34 L 170.5 31 L 173.5 32 L 176 30.5 L 174.5 29 L 113.5 30 Q 110.9 30.7 112 28 L 178.5 28 L 180 29.5 L 178 30 L 178 32 L 181 32.5 L 181 48 L 178 48.5 L 178 62.5 L 175.5 66 Q 171.5 66.5 171 63.5 L 171.5 62 L 172 64 L 174 63.5 L 173 59.5 L 174 59.5 L 175.5 64 L 176 60.5 L 174.5 55 L 173 55.5 L 173.5 49 L 175.5 54 L 176 49.5 L 174 46.5 L 175.5 44 L 172 41.5 Q 171.3 39.3 173.5 40 L 175 40.5 L 175.5 39 L 177 39.5 Q 177.6 36.8 171.5 38 L 168 39 L 166.5 42 L 163.5 41 L 143.5 41 L 142.5 42 L 127.5 42 Q 126 39.5 120.5 41 Q 119 43.5 113.5 42 L 110.5 40 L 108.5 41 L 106 40.5 L 107.5 37 L 109.5 37 L 111 36.5 L 109 36 L 109 33 Q 106.3 34.1 107 31.5 Q 104.5 30 106 24.5 L 109 22.5 L 106 22 L 107.5 18 Z M 179 20 Q 179 23 184 22 Q 185 18 179 20 Z M 187 20 L 186 23 L 187 23 L 187 20 Z M 187 32 L 186 35 L 187 35 L 187 32 Z M 144 34 L 144 36 L 114 36 L 112 38 L 114 40 L 128 40 L 129 39 L 144 39 L 146 38 L 158 38 L 160 40 L 167 40 L 162 37 L 162 36 L 160 34 L 144 34 Z M 188 37 L 187 40 L 188 40 L 188 37 Z M 180 104 L 179 107 L 180 107 L 180 104 Z M 169 125 L 168 139 L 170 138 L 171 143 L 172 141 L 172 133 L 173 132 Q 175 126 169 128 L 169 125 Z M 178 131 L 177 134 L 176 132 L 174 133 L 174 145 L 176 144 L 177 148 L 179 141 L 179 136 L 177 140 L 176 140 Q 175 135 178 136 L 178 131 Z M 167 154 L 166 159 L 167 159 L 167 154 Z M 177 160 L 176 163 L 177 163 L 177 160 Z M 175 161 L 174 164 L 175 164 L 175 161 Z M 165 168 L 164 171 L 165 171 L 165 168 Z " /><path fill="rgb(60,156,217)" stroke="rgb(60,156,217)" stroke-width="1" opacity="1" d="M 183.5 28 L 184 30.5 L 183 30.5 L 183.5 28 Z " /><path fill="rgb(60,156,217)" stroke="rgb(60,156,217)" stroke-width="1" opacity="1" d="M 174.5 67 L 177 68 Q 178.8 72.5 173.5 71 Q 170 73 174.5 75 Q 178.3 73.8 177 77.5 L 174.5 79 L 169.5 78 L 167 79 Q 168.3 82.7 162.5 81 L 162 78.5 L 163.5 77 L 170 74.5 L 170 72.5 L 171 68 L 174.5 67 Z " /><path fill="rgb(60,156,217)" stroke="rgb(60,156,217)" stroke-width="1" opacity="1" d="M 185.5 69 L 187 73.5 L 186 73.5 L 185.5 72 L 185 79.5 L 185.5 81 Q 182.3 79.3 184 72.5 L 185.5 69 Z " /><path fill="rgb(60,156,217)" stroke="rgb(60,156,217)" stroke-width="1" opacity="1" d="M 163.5 74 L 164.5 76 L 159.5 78 L 157 76.5 L 163.5 74 Z " /><path fill="rgb(60,156,217)" stroke="rgb(60,156,217)" stroke-width="1" opacity="1" d="M 153 78 L 159 79.5 Q 157.3 81.8 152.5 81 L 153 79.5 L 153 78 Z " /><path fill="rgb(60,156,217)" stroke="rgb(60,156,217)" stroke-width="1" opacity="1" d="M 143.5 82 L 145 86 L 166 86 L 166 88 L 170 90 L 170 94.5 L 170.5 96 L 168 94.5 Q 169 90.8 166 92 L 165.5 94 L 144.5 94 L 142.5 95 L 135 92 Q 136.8 96.9 130.5 95 L 127 93.5 L 128 91 L 125 92.5 L 123.5 95 L 117 94.5 L 119.5 93 L 121 93.5 Q 120.3 91.3 122.5 92 L 128.5 89 L 132 89 Q 130.9 86.3 133.5 87 L 139.5 84 L 139.5 85 L 138 85.5 L 145 88 L 143.5 83 L 141.5 84 L 141.5 83 L 143.5 82 Z M 137 86 L 136 89 L 138 90 L 141 89 L 137 86 Z M 130 90 Q 129 94 134 92 Q 135 88 130 90 Z M 143 91 L 141 93 L 144 93 Q 145 90 143 91 Z " /><path fill="rgb(60,156,217)" stroke="rgb(60,156,217)" stroke-width="1" opacity="1" d="M 184.5 85 L 185 87.5 L 184 87.5 L 184.5 85 Z " /><path fill="rgb(60,156,217)" stroke="rgb(60,156,217)" stroke-width="1" opacity="1" d="M 184.5 91 L 185 95.5 L 184 95.5 L 184.5 91 Z " /><path fill="rgb(60,156,217)" stroke="rgb(60,156,217)" stroke-width="1" opacity="1" d="M 127.5 125 L 130 126 L 128.5 129 L 110 129 L 110 159 L 116.5 158 L 118 156.5 L 116.5 154 Q 110.4 155.3 111 152.5 L 112.5 150 L 120.5 153 L 123 152 Q 121.5 148.2 124.5 149 L 128 148 Q 126.7 144.7 131.5 146 L 134 144.5 L 135 149.5 L 134 151.5 L 134.5 153 L 132 153.5 Q 134.3 154.8 131.5 156 L 121.5 155 L 121.5 157 Q 118.9 156.3 120 159 L 117.5 159 L 113.5 161 L 110 160.5 Q 110.8 162.8 108.5 162 L 106.5 163 L 106.5 162 Q 108.8 162.8 108 160.5 L 106 160.5 L 107 158.5 L 107 128.5 L 106 126.5 L 107 126.5 Q 106.3 129.1 109 128 L 109.5 126 L 119.5 126 Q 121.3 128.7 127.5 127 L 127.5 125 Z M 129 148 Q 125 155 132 153 L 133 150 L 129 148 Z " /><path fill="rgb(60,156,217)" stroke="rgb(60,156,217)" stroke-width="1" opacity="1" d="M 133.5 126 Q 136.1 125.2 135 128.5 L 132 135.5 L 132 144 Q 128.2 145 127 142.5 L 127.5 137 L 129 137.5 L 128 134 L 132 132.5 Q 130.8 127.3 133.5 126 Z " /><path fill="rgb(60,156,217)" stroke="rgb(60,156,217)" stroke-width="1" opacity="1" d="M 165.5 136 L 166 140.5 L 165 140.5 L 165.5 136 Z " /><path fill="rgb(60,156,217)" stroke="rgb(60,156,217)" stroke-width="1" opacity="1" d="M 119.5 143 L 125 144.5 Q 122.3 147.8 116.5 148 Q 113 146 117.5 144 L 119.5 143 Z " /><path fill="rgb(60,156,217)" stroke="rgb(60,156,217)" stroke-width="1" opacity="1" d="M 163.5 155 L 164 157.5 L 163 157.5 L 163.5 155 Z " /><path fill="rgb(60,156,217)" stroke="rgb(60,156,217)" stroke-width="1" opacity="1" d="M 177.5 172 L 178 176.5 L 177 176.5 L 177.5 172 Z " /><path fill="rgb(60,156,217)" stroke="rgb(60,156,217)" stroke-width="1" opacity="1" d="M 157.5 179 L 159.5 180 L 161 179.5 L 158.5 183 L 160.5 182 L 161 183.5 L 160 185.5 L 161 188.5 L 159.5 188 Q 156.2 189.1 157 186.5 Q 160.8 184.8 157.5 183 L 155 183.5 L 155.5 185 L 147.5 187 L 144 184.5 Q 145.3 181.8 146.5 184 L 152 182.5 L 151.5 181 L 155.5 180 L 158.5 181 L 158.5 180 L 157.5 179 Z " /><path fill="rgb(60,156,217)" stroke="rgb(60,156,217)" stroke-width="1" opacity="1" d="M 176.5 180 L 177 186.5 L 175.5 191 L 175 185.5 L 176.5 180 Z " /><path fill="rgb(60,156,217)" stroke="rgb(60,156,217)" stroke-width="1" opacity="1" d="M 137.5 185 Q 141.3 184 140 187 L 138 187.5 L 139.5 189 L 142.5 188 L 146 188.5 L 144 189 L 144 193 L 132.5 193 L 129.5 191 L 127.5 192 L 124 190.5 L 131.5 188 L 131.5 189 L 130 189.5 L 132.5 190 L 133.5 187 L 137.5 185 Z " /><path fill="rgb(60,156,217)" stroke="rgb(60,156,217)" stroke-width="1" opacity="1" d="M 148.5 189 L 153.5 190 L 155.5 192 L 159.5 192 L 161 191.5 L 160 194 L 147 192 L 148.5 189 Z " /><path fill="rgb(60,156,217)" stroke="rgb(60,156,217)" stroke-width="1" opacity="1" d="M 118 191 Q 122.7 190.1 125 192.5 L 118 193 L 118 191 Z " /><path fill="rgb(60,156,217)" stroke="rgb(60,156,217)" stroke-width="1" opacity="1" d="M 168 192 L 175 192 L 175 194.5 L 176 198.5 L 172.5 201 Q 163.5 200 158.5 203 L 155.5 202 L 156.5 205 L 150.5 206 L 150.5 205 L 154 204.5 L 152 204 L 150.5 201 L 148 201.5 Q 149.2 206.1 144 204 Q 142.3 199.9 146.5 201 L 149 199.5 Q 147.8 197 144 198 Q 142.8 194.3 148 196 Q 146.7 199.7 152.5 198 Q 154.3 200.8 160.5 199 L 163.5 198 Q 166.8 199.1 166 196.5 Q 168.8 195.4 168 192 Z M 152 200 L 152 202 L 155 202 L 152 200 Z M 158 200 L 158 201 L 160 201 L 158 200 Z " /><path fill="rgb(60,156,217)" stroke="rgb(60,156,217)" stroke-width="1" opacity="1" d="M 109.5 194 L 113 195.5 Q 113.9 198.5 109.5 197 L 109.5 196 L 112 195.5 Q 108.7 195.6 109.5 194 Z " /><path fill="rgb(60,156,217)" stroke="rgb(60,156,217)" stroke-width="1" opacity="1" d="M 106 196 L 108 196 Q 106.9 198.7 109.5 198 L 112 199 Q 113 203.3 110 204.5 L 114.5 211 L 123 209 L 123.5 207 L 125.5 207 L 132.5 207 L 141 209.5 L 132.5 211 L 128.5 210 L 126 211 Q 127.3 208 123.5 209 L 120 210.5 L 123 211 Q 121.8 214 125.5 213 L 128.5 212 L 128.5 213 L 123.5 214 L 118.5 212 L 113 214 Q 111.9 216.7 114.5 216 L 114.5 217 L 112.5 216 L 108.5 218 L 108 216.5 L 108.5 215 Q 105.9 214.2 107 217.5 L 106 217.5 L 107 205.5 L 106 200.5 L 107 198.5 L 106 196 Z M 109 207 L 108 211 L 109 211 L 109 207 Z M 128 208 L 128 209 L 130 209 L 128 208 Z " /><path fill="rgb(60,156,217)" stroke="rgb(60,156,217)" stroke-width="1" opacity="1" d="M 165.5 202 L 168 202.5 L 165.5 203 L 165.5 202 Z " /><path fill="rgb(60,156,217)" stroke="rgb(60,156,217)" stroke-width="1" opacity="1" d="M 161.5 203 L 164 203.5 L 160.5 205 L 161.5 203 Z " /><path fill="rgb(60,156,217)" stroke="rgb(60,156,217)" stroke-width="1" opacity="1" d="M 144.5 207 L 147 207.5 L 142.5 209 L 142.5 208 L 144.5 207 Z " /><path fill="rgb(29,90,158)" stroke="rgb(29,90,158)" stroke-width="1" opacity="0.9411764705882353" d="M 210.5 0 L 211 9.5 L 210 9.5 L 209 6.5 L 210.5 0 Z " /><path fill="rgb(29,90,158)" stroke="rgb(29,90,158)" stroke-width="1" opacity="0.9411764705882353" d="M 1.5 1 L 2 9.5 L 1 9.5 L 1.5 1 Z " /><path fill="rgb(29,90,158)" stroke="rgb(29,90,158)" stroke-width="1" opacity="0.9411764705882353" d="M 2.5 12 L 3 20.5 L 2 20.5 L 2.5 12 Z " /><path fill="rgb(29,90,158)" stroke="rgb(29,90,158)" stroke-width="1" opacity="0.9411764705882353" d="M 209.5 12 L 210 20.5 L 209 21.5 L 209 31.5 L 208 32.5 L 208 42.5 L 207 43.5 L 205.5 64 L 205 53.5 L 206 52.5 L 206 43.5 L 207 42.5 L 207 32.5 L 208 31.5 L 208 21.5 L 209 20.5 L 209.5 12 Z " /><path fill="rgb(29,90,158)" stroke="rgb(29,90,158)" stroke-width="1" opacity="0.9411764705882353" d="M 3.5 23 L 4 31.5 L 3 31.5 L 3.5 23 Z " /><path fill="rgb(29,90,158)" stroke="rgb(29,90,158)" stroke-width="1" opacity="0.9411764705882353" d="M 4.5 33 L 5 42.5 L 4 42.5 L 4.5 33 Z " /><path fill="rgb(29,90,158)" stroke="rgb(29,90,158)" stroke-width="1" opacity="0.9411764705882353" d="M 39.5 41 L 46 42.5 L 39 43 L 39.5 41 Z " /><path fill="rgb(29,90,158)" stroke="rgb(29,90,158)" stroke-width="1" opacity="0.9411764705882353" d="M 47.5 42 L 80 42.5 L 47.5 43 L 47.5 42 Z " /><path fill="rgb(29,90,158)" stroke="rgb(29,90,158)" stroke-width="1" opacity="0.9411764705882353" d="M 88.5 42 L 96 42.5 L 88.5 43 L 88.5 42 Z " /><path fill="rgb(29,90,158)" stroke="rgb(29,90,158)" stroke-width="1" opacity="0.9411764705882353" d="M 5.5 44 L 6 52.5 L 5 52.5 L 5.5 44 Z " /><path fill="rgb(29,90,158)" stroke="rgb(29,90,158)" stroke-width="1" opacity="0.9411764705882353" d="M 37.5 45 Q 40.3 44.4 39 50.5 L 38 50.5 L 37.5 45 Z " /><path fill="rgb(29,90,158)" stroke="rgb(29,90,158)" stroke-width="1" opacity="0.9411764705882353" d="M 6.5 54 L 7 63.5 L 6 63.5 L 6.5 54 Z " /><path fill="rgb(29,90,158)" stroke="rgb(29,90,158)" stroke-width="1" opacity="0.9411764705882353" d="M 39.5 54 L 40 56.5 L 39 56.5 L 39.5 54 Z " /><path fill="rgb(29,90,158)" stroke="rgb(29,90,158)" stroke-width="1" opacity="0.9411764705882353" d="M 40.5 61 L 41 65.5 L 40 65.5 L 40.5 61 Z " /><path fill="rgb(29,90,158)" stroke="rgb(29,90,158)" stroke-width="1" opacity="0.9411764705882353" d="M 7.5 66 L 8 74.5 L 7 74.5 L 7.5 66 Z " /><path fill="rgb(29,90,158)" stroke="rgb(29,90,158)" stroke-width="1" opacity="0.9411764705882353" d="M 204.5 66 L 205 74.5 L 204 74.5 L 204.5 66 Z " /><path fill="rgb(29,90,158)" stroke="rgb(29,90,158)" stroke-width="1" opacity="0.9411764705882353" d="M 43.5 70 L 105 70.5 L 43.5 71 L 43.5 70 Z " /><path fill="rgb(29,90,158)" stroke="rgb(29,90,158)" stroke-width="1" opacity="0.9411764705882353" d="M 99.5 72 L 101 72.5 L 95.5 75 L 96.5 73 L 99.5 72 Z " /><path fill="rgb(29,90,158)" stroke="rgb(29,90,158)" stroke-width="1" opacity="0.9411764705882353" d="M 88.5 74 L 87.5 76 L 88.5 74 Z " /><path fill="rgb(29,90,158)" stroke="rgb(29,90,158)" stroke-width="1" opacity="0.9411764705882353" d="M 92.5 75 L 94 75.5 L 88.5 78 L 89.5 76 L 92.5 75 Z " /><path fill="rgb(29,90,158)" stroke="rgb(29,90,158)" stroke-width="1" opacity="0.9411764705882353" d="M 203.5 76 L 204 85.5 L 203 86.5 L 202.5 96 L 202 86.5 L 203 85.5 L 203.5 76 Z " /><path fill="rgb(29,90,158)" stroke="rgb(29,90,158)" stroke-width="1" opacity="0.9411764705882353" d="M 8.5 77 L 9 85.5 L 8 85.5 L 8.5 77 Z " /><path fill="rgb(29,90,158)" stroke="rgb(29,90,158)" stroke-width="1" opacity="0.9411764705882353" d="M 85 77 L 87 77.5 L 83.5 80 L 83.5 79 Q 86.1 79.7 85 77 Z " /><path fill="rgb(29,90,158)" stroke="rgb(29,90,158)" stroke-width="1" opacity="0.9411764705882353" d="M 67.5 85 L 69 85.5 L 64.5 88 L 65.5 86 L 67.5 85 Z " /><path fill="rgb(29,90,158)" stroke="rgb(29,90,158)" stroke-width="1" opacity="0.9411764705882353" d="M 10.5 87 L 10 88.5 L 9.5 96 L 9 88.5 L 10.5 87 Z " /><path fill="rgb(29,90,158)" stroke="rgb(29,90,158)" stroke-width="1" opacity="0.9411764705882353" d="M 56.5 90 L 58 90.5 L 54.5 92 L 54.5 91 L 56.5 90 Z " /><path fill="rgb(29,90,158)" stroke="rgb(29,90,158)" stroke-width="1" opacity="0.9411764705882353" d="M 11.5 93 L 12 95.5 L 11 95.5 L 11.5 93 Z " /><path fill="rgb(29,90,158)" stroke="rgb(29,90,158)" stroke-width="1" opacity="0.9411764705882353" d="M 48.5 93 L 50 93.5 L 44 96 L 43.5 102 L 43 96.5 L 48.5 93 Z " /><path fill="rgb(29,90,158)" stroke="rgb(29,90,158)" stroke-width="1" opacity="0.9411764705882353" d="M 10.5 98 L 11 107.5 L 10 107.5 L 10.5 98 Z " /><path fill="rgb(29,90,158)" stroke="rgb(29,90,158)" stroke-width="1" opacity="0.9411764705882353" d="M 201.5 98 L 202 106.5 L 201 106.5 L 201.5 98 Z " /><path fill="rgb(29,90,158)" stroke="rgb(29,90,158)" stroke-width="1" opacity="0.9411764705882353" d="M 44.5 104 L 45 111.5 L 44 111.5 L 44.5 104 Z " /><path fill="rgb(29,90,158)" stroke="rgb(29,90,158)" stroke-width="1" opacity="0.9411764705882353" d="M 12.5 107 L 13 108.5 L 12 109.5 L 12 118.5 L 15 135.5 L 14 139.5 L 15 140.5 L 15 150.5 L 17 160.5 L 17 172.5 L 19 175.5 Q 16.3 177.2 18 183.5 L 19 184.5 L 19 193.5 L 18 193.5 L 11 109.5 L 12.5 107 Z " /><path fill="rgb(29,90,158)" stroke="rgb(29,90,158)" stroke-width="1" opacity="0.9411764705882353" d="M 200.5 108 L 201 118.5 L 200 119.5 L 199.5 129 L 199 119.5 L 200 118.5 L 200.5 108 Z " /><path fill="rgb(29,90,158)" stroke="rgb(29,90,158)" stroke-width="1" opacity="0.9411764705882353" d="M 45.5 118 L 47 123.5 L 45 122.5 L 45.5 118 Z " /><path fill="rgb(29,90,158)" stroke="rgb(29,90,158)" stroke-width="1" opacity="0.9411764705882353" d="M 96.5 123 L 104 123.5 L 96.5 124 L 96.5 123 Z " /><path fill="rgb(29,90,158)" stroke="rgb(29,90,158)" stroke-width="1" opacity="0.9411764705882353" d="M 198.5 131 L 199 139.5 L 198 140.5 L 198 151.5 L 196 161.5 L 196 172.5 L 195 173.5 L 193.5 194 L 193 184.5 L 194 183.5 L 194 172.5 L 195 171.5 L 195 161.5 L 196 160.5 L 197 138.5 L 198.5 131 Z " /><path fill="rgb(29,90,158)" stroke="rgb(29,90,158)" stroke-width="1" opacity="0.9411764705882353" d="M 48.5 135 L 74 135.5 L 48 136 L 49 152.5 L 48 152.5 L 47 136.5 L 48.5 135 Z " /><path fill="rgb(29,90,158)" stroke="rgb(29,90,158)" stroke-width="1" opacity="0.9411764705882353" d="M 76.5 139 L 77 147.5 L 76 147.5 L 76.5 139 Z " /><path fill="rgb(29,90,158)" stroke="rgb(29,90,158)" stroke-width="1" opacity="0.9411764705882353" d="M 77.5 154 L 78 156 L 86 158.5 L 84.5 159 L 77 157 L 77.5 154 Z " /><path fill="rgb(29,90,158)" stroke="rgb(29,90,158)" stroke-width="1" opacity="0.9411764705882353" d="M 49.5 156 L 50 163.5 L 49 163.5 L 49.5 156 Z " /><path fill="rgb(29,90,158)" stroke="rgb(29,90,158)" stroke-width="1" opacity="0.9411764705882353" d="M 87.5 159 L 90 159.5 L 87.5 160 L 87.5 159 Z " /><path fill="rgb(29,90,158)" stroke="rgb(29,90,158)" stroke-width="1" opacity="0.9411764705882353" d="M 91.5 160 L 94 160.5 L 91.5 161 L 91.5 160 Z " /><path fill="rgb(29,90,158)" stroke="rgb(29,90,158)" stroke-width="1" opacity="0.9411764705882353" d="M 95.5 161 Q 100.3 160.3 102 162.5 L 99.5 163 L 95.5 162 L 95.5 161 Z " /><path fill="rgb(29,90,158)" stroke="rgb(29,90,158)" stroke-width="1" opacity="0.9411764705882353" d="M 103.5 163 L 106 163.5 L 103.5 164 L 103.5 163 Z " /><path fill="rgb(29,90,158)" stroke="rgb(29,90,158)" stroke-width="1" opacity="0.9411764705882353" d="M 50.5 168 L 51 175.5 L 50 175.5 L 50.5 168 Z " /><path fill="rgb(29,90,158)" stroke="rgb(29,90,158)" stroke-width="1" opacity="0.9411764705882353" d="M 50.5 177 L 55 178.5 L 52.5 179 L 50.5 177 Z " /><path fill="rgb(29,90,158)" stroke="rgb(29,90,158)" stroke-width="1" opacity="0.9411764705882353" d="M 59.5 180 L 62 180.5 L 59.5 181 L 59.5 180 Z " /><path fill="rgb(29,90,158)" stroke="rgb(29,90,158)" stroke-width="1" opacity="0.9411764705882353" d="M 66.5 182 L 72 183.5 L 69.5 184 L 66.5 183 L 66.5 182 Z " /><path fill="rgb(29,90,158)" stroke="rgb(29,90,158)" stroke-width="1" opacity="0.9411764705882353" d="M 73.5 184 L 78 185.5 L 75.5 186 L 73.5 184 Z " /><path fill="rgb(29,90,158)" stroke="rgb(29,90,158)" stroke-width="1" opacity="0.9411764705882353" d="M 83.5 187 L 86 187.5 L 83.5 188 L 83.5 187 Z " /><path fill="rgb(29,90,158)" stroke="rgb(29,90,158)" stroke-width="1" opacity="0.9411764705882353" d="M 93.5 190 L 96 190.5 L 93.5 191 L 93.5 190 Z " /><path fill="rgb(29,90,158)" stroke="rgb(29,90,158)" stroke-width="1" opacity="0.9411764705882353" d="M 97.5 191 L 103 192.5 L 100.5 193 L 97.5 192 L 96 192.5 L 97.5 191 Z " /><path fill="rgb(29,90,158)" stroke="rgb(29,90,158)" stroke-width="1" opacity="0.9411764705882353" d="M 104.5 193 Q 106.8 192.3 106 194.5 L 104.5 193 Z " /><path fill="rgb(29,90,158)" stroke="rgb(29,90,158)" stroke-width="1" opacity="0.9411764705882353" d="M 192.5 195 L 193 204.5 L 192 204.5 L 192.5 195 Z " /><path fill="rgb(29,90,158)" stroke="rgb(29,90,158)" stroke-width="1" opacity="0.9411764705882353" d="M 19.5 196 L 20 204.5 L 19 204.5 L 19.5 196 Z " /><path fill="rgb(29,90,158)" stroke="rgb(29,90,158)" stroke-width="1" opacity="0.9411764705882353" d="M 20.5 207 L 21 214 L 27 215.5 L 24.5 216 L 20 215 L 20.5 207 Z " /><path fill="rgb(29,90,158)" stroke="rgb(29,90,158)" stroke-width="1" opacity="0.9411764705882353" d="M 191.5 207 L 192 215 L 170.5 220 L 170.5 219 L 175.5 217 L 177.5 217 L 191 214 L 191.5 207 Z " /><path fill="rgb(29,90,158)" stroke="rgb(29,90,158)" stroke-width="1" opacity="0.9411764705882353" d="M 28.5 216 L 42 219.5 L 39.5 220 L 28.5 217 L 28.5 216 Z " /><path fill="rgb(29,90,158)" stroke="rgb(29,90,158)" stroke-width="1" opacity="0.9411764705882353" d="M 47.5 218 L 48 220 L 46 220.5 L 57 223.5 L 54.5 224 L 43 220.5 L 47.5 218 Z " /><path fill="rgb(29,90,158)" stroke="rgb(29,90,158)" stroke-width="1" opacity="0.9411764705882353" d="M 165.5 220 L 169 220.5 L 160.5 223 L 161.5 221 L 165.5 220 Z " /><path fill="rgb(29,90,158)" stroke="rgb(29,90,158)" stroke-width="1" opacity="0.9411764705882353" d="M 152.5 223 L 154.5 223 L 158 223.5 L 151.5 225 L 152.5 223 Z " /><path fill="rgb(29,90,158)" stroke="rgb(29,90,158)" stroke-width="1" opacity="0.9411764705882353" d="M 58.5 224 L 64 225.5 L 61.5 226 L 58.5 225 L 58.5 224 Z " /><path fill="rgb(29,90,158)" stroke="rgb(29,90,158)" stroke-width="1" opacity="0.9411764705882353" d="M 147.5 225 L 150 225.5 L 133.5 230 L 133.5 229 L 147.5 225 Z " /><path fill="rgb(29,90,158)" stroke="rgb(29,90,158)" stroke-width="1" opacity="0.9411764705882353" d="M 65.5 226 L 71 227.5 L 69.5 228 L 65.5 227 L 65.5 226 Z " /><path fill="rgb(29,90,158)" stroke="rgb(29,90,158)" stroke-width="1" opacity="0.9411764705882353" d="M 72.5 228 Q 77.3 227.3 79 229.5 L 76.5 230 L 72.5 229 L 72.5 228 Z " /><path fill="rgb(29,90,158)" stroke="rgb(29,90,158)" stroke-width="1" opacity="0.9411764705882353" d="M 80.5 229 L 95.5 234 L 97.5 234 L 108.5 236 L 112.5 235 L 112.5 236 L 102.5 237 L 80 231 L 80.5 229 Z " /><path fill="rgb(29,90,158)" stroke="rgb(29,90,158)" stroke-width="1" opacity="0.9411764705882353" d="M 127.5 230 L 128 232 L 118.5 234 L 118.5 233 L 127.5 230 Z " /><path fill="rgb(29,90,158)" stroke="rgb(29,90,158)" stroke-width="1" opacity="0.9411764705882353" d="M 129.5 230 L 132 230.5 L 129.5 231 L 129.5 230 Z " /><path fill="rgb(29,90,158)" stroke="rgb(29,90,158)" stroke-width="1" opacity="0.9411764705882353" d="M 114.5 234 L 117 234.5 L 114.5 235 L 114.5 234 Z " /><path fill="rgb(35,100,176)" stroke="rgb(35,100,176)" stroke-width="1" opacity="0.9568627450980393" d="M 202.5 83 L 203 85.5 L 202 85.5 L 202.5 83 Z " /><path fill="rgb(35,100,176)" stroke="rgb(35,100,176)" stroke-width="1" opacity="0.9568627450980393" d="M 167.5 219 L 170 219.5 L 167.5 220 L 167.5 219 Z " /><path fill="rgb(35,100,176)" stroke="rgb(35,100,176)" stroke-width="1" opacity="0.9568627450980393" d="M 157.5 222 L 160 222.5 L 157.5 223 L 157.5 222 Z " /><path fill="rgb(60,152,209)" stroke="rgb(60,152,209)" stroke-width="1" opacity="1" d="M 106.5 17 L 192 17.5 L 106.5 18 L 106.5 17 Z " /><path fill="rgb(60,152,209)" stroke="rgb(60,152,209)" stroke-width="1" opacity="1" d="M 191.5 19 L 192 21.5 L 191 21.5 L 191.5 19 Z " /><path fill="rgb(60,152,209)" stroke="rgb(60,152,209)" stroke-width="1" opacity="1" d="M 190.5 28 L 191 33.5 L 190 33.5 L 190.5 28 Z " /><path fill="rgb(60,152,209)" stroke="rgb(60,152,209)" stroke-width="1" opacity="1" d="M 166.5 32 L 168 36 L 164 34.5 L 166.5 32 Z " /><path fill="rgb(60,152,209)" stroke="rgb(60,152,209)" stroke-width="1" opacity="1" d="M 184.5 32 L 185 34.5 L 184 34.5 L 184.5 32 Z " /><path fill="rgb(60,152,209)" stroke="rgb(60,152,209)" stroke-width="1" opacity="1" d="M 172 34 Q 175 33 174 36 Q 171 37 172 34 Z " /><path fill="rgb(60,152,209)" stroke="rgb(60,152,209)" stroke-width="1" opacity="1" d="M 160 35 L 162 35.5 L 160 36.5 L 160 35 Z " /><path fill="rgb(60,152,209)" stroke="rgb(60,152,209)" stroke-width="1" opacity="1" d="M 187.5 39 L 188.5 41 L 187.5 39 Z " /><path fill="rgb(60,152,209)" stroke="rgb(60,152,209)" stroke-width="1" opacity="1" d="M 110.5 40 L 111 42 L 126.5 41 L 127.5 42 L 143.5 42 L 144.5 41 L 159.5 41 L 160.5 42 L 168.5 42 L 168.5 40 Q 170.8 39.3 170 41.5 L 171 41.5 L 171.5 40 L 174.5 44 L 176 44.5 L 174 47.5 Q 177 48.5 176 53.5 L 175 53.5 L 173.5 48 L 172 57.5 Q 174.3 58.7 173 63.5 L 172 63.5 L 171.5 61 L 171 64.5 L 171 68.5 Q 172.1 71.8 169.5 71 L 167 72 L 168 74.5 L 166.5 75 L 162 73.5 L 170 70 L 172 43 L 40.5 44 L 40.5 43 L 105.5 43 L 107.5 41 L 110 42 L 110.5 40 Z " /><path fill="rgb(60,152,209)" stroke="rgb(60,152,209)" stroke-width="1" opacity="1" d="M 189.5 42 L 190 44.5 L 189 44.5 L 189.5 42 Z " /><path fill="rgb(60,152,209)" stroke="rgb(60,152,209)" stroke-width="1" opacity="1" d="M 188.5 52 L 189 55.5 L 188 55.5 L 188.5 52 Z " /><path fill="rgb(60,152,209)" stroke="rgb(60,152,209)" stroke-width="1" opacity="1" d="M 187.5 60 L 188 63.5 L 187 63.5 L 187.5 60 Z " /><path fill="rgb(60,152,209)" stroke="rgb(60,152,209)" stroke-width="1" opacity="1" d="M 187.5 65 L 188 67.5 L 187 67.5 L 187.5 65 Z " /><path fill="rgb(60,152,209)" stroke="rgb(60,152,209)" stroke-width="1" opacity="1" d="M 173 71 Q 177.5 69.5 176 74 Q 171.5 75.5 173 71 Z " /><path fill="rgb(60,152,209)" stroke="rgb(60,152,209)" stroke-width="1" opacity="1" d="M 185.5 72 L 187 77.5 L 186 77.5 L 185.5 72 Z " /><path fill="rgb(60,152,209)" stroke="rgb(60,152,209)" stroke-width="1" opacity="1" d="M 159.5 74 L 161 74.5 L 157 76.5 L 163 79.5 L 160.5 80 L 155.5 77 L 152 78 Q 153.1 80.7 150.5 80 L 143 82.5 L 144 85.5 L 143.5 88 L 140.5 87 L 138.5 88 L 138.5 87 L 140 86.5 L 135.5 85 Q 129.3 90.3 120 92.5 L 120.5 94 L 118.5 93 L 117.5 95 L 124.5 95 L 125 92 L 126.5 92 L 128 91.5 Q 128.8 93.8 126.5 93 L 126.5 94 L 137.5 95 L 139.5 95 L 167.5 95 L 168 98.5 L 169 103.5 Q 166.3 105.8 167 111.5 L 168 116.5 L 167 117.5 L 167 126.5 L 165 130.5 L 165 142.5 L 166 142.5 L 166.5 136 L 168 143.5 Q 166.8 146.3 165.5 144 Q 162.1 143.1 164 148.5 L 166 153.5 L 165 153.5 L 164.5 152 Q 162.3 153.8 163 158.5 L 164 158.5 L 164.5 155 L 165 158.5 Q 162.3 159.3 163 163.5 L 164 166.5 Q 160.8 168.8 162 175.5 L 159 180.5 L 160 182.5 L 159 182.5 Q 159.8 180.3 157.5 181 L 154 179.5 L 160 178 L 161 175.5 L 161 164.5 L 162 163.5 L 162 152.5 L 163 151.5 L 163 141.5 L 164 140.5 L 164 129.5 L 165 128.5 L 167 96 L 110 95.5 L 159.5 74 Z M 139 84 L 141 86 L 142 86 L 139 84 Z " /><path fill="rgb(60,152,209)" stroke="rgb(60,152,209)" stroke-width="1" opacity="1" d="M 184.5 80 L 185 82.5 L 184 82.5 L 184.5 80 Z " /><path fill="rgb(60,152,209)" stroke="rgb(60,152,209)" stroke-width="1" opacity="1" d="M 185.5 86 L 186 90.5 L 185 90.5 L 185.5 86 Z " /><path fill="rgb(60,152,209)" stroke="rgb(60,152,209)" stroke-width="1" opacity="1" d="M 142.5 91 Q 145.1 90.3 144 93 L 141 92.5 L 142.5 91 Z " /><path fill="rgb(60,152,209)" stroke="rgb(60,152,209)" stroke-width="1" opacity="1" d="M 172 96 Q 175.7 94.8 174 100 Q 170.3 101.2 172 96 Z " /><path fill="rgb(60,152,209)" stroke="rgb(60,152,209)" stroke-width="1" opacity="1" d="M 184.5 98 L 185 101.5 L 184 101.5 L 184.5 98 Z " /><path fill="rgb(60,152,209)" stroke="rgb(60,152,209)" stroke-width="1" opacity="1" d="M 45.5 112 L 46 114.5 L 45 114.5 L 45.5 112 Z " /><path fill="rgb(60,152,209)" stroke="rgb(60,152,209)" stroke-width="1" opacity="1" d="M 178.5 116 L 179 119.5 L 178 119.5 L 178.5 116 Z " /><path fill="rgb(60,152,209)" stroke="rgb(60,152,209)" stroke-width="1" opacity="1" d="M 182.5 117 L 183 119.5 L 182 119.5 L 182.5 117 Z " /><path fill="rgb(60,152,209)" stroke="rgb(60,152,209)" stroke-width="1" opacity="1" d="M 176.5 120 L 177 122.5 L 176 122.5 L 176.5 120 Z " /><path fill="rgb(60,152,209)" stroke="rgb(60,152,209)" stroke-width="1" opacity="1" d="M 80.5 122 L 137 123 L 136 156 L 113.5 162 L 112 161.5 Q 112.8 164.1 109.5 163 L 106.5 164 L 106.5 163 L 110 162 L 110.5 160 L 113.5 161 L 120 159 L 120.5 157 L 122.5 158 L 122 156.5 Q 121.1 153.5 125.5 155 Q 126.7 157.3 131.5 156 L 135 154.5 L 133 153.5 L 135 152.5 L 134 150.5 L 135 146.5 L 134 144.5 L 135 143.5 L 135 128.5 L 136 126 L 131.5 127 L 128 126 L 127.5 124 L 120.5 124 Q 118.8 126.7 112.5 125 L 105.5 123 L 80.5 123 L 80.5 122 Z " /><path fill="rgb(60,152,209)" stroke="rgb(60,152,209)" stroke-width="1" opacity="1" d="M 182.5 122 L 183 124.5 L 182 124.5 L 182.5 122 Z " /><path fill="rgb(60,152,209)" stroke="rgb(60,152,209)" stroke-width="1" opacity="1" d="M 170 128 L 172 128 L 172 134 L 170 134 L 170 128 Z " /><path fill="rgb(60,152,209)" stroke="rgb(60,152,209)" stroke-width="1" opacity="1" d="M 128.5 129 L 129 133.5 L 128 133.5 L 128.5 129 Z " /><path fill="rgb(60,152,209)" stroke="rgb(60,152,209)" stroke-width="1" opacity="1" d="M 181.5 133 L 182 135.5 L 181 135.5 L 181.5 133 Z " /><path fill="rgb(60,152,209)" stroke="rgb(60,152,209)" stroke-width="1" opacity="1" d="M 177.5 134 L 179 137.5 L 178 137.5 L 177.5 134 Z " /><path fill="rgb(60,152,209)" stroke="rgb(60,152,209)" stroke-width="1" opacity="1" d="M 176.5 143 L 177 146.5 L 176 146.5 L 176.5 143 Z " /><path fill="rgb(60,152,209)" stroke="rgb(60,152,209)" stroke-width="1" opacity="1" d="M 180.5 144 L 181 147.5 L 180 147.5 L 180.5 144 Z " /><path fill="rgb(60,152,209)" stroke="rgb(60,152,209)" stroke-width="1" opacity="1" d="M 168 145 Q 171 143.8 170 147.5 L 168 146.5 L 168 145 Z " /><path fill="rgb(60,152,209)" stroke="rgb(60,152,209)" stroke-width="1" opacity="1" d="M 128.5 148 Q 131 149.2 130 153 Q 125.9 154.2 128.5 148 Z " /><path fill="rgb(60,152,209)" stroke="rgb(60,152,209)" stroke-width="1" opacity="1" d="M 170.5 152 L 172 153.5 L 172 165.5 L 171 165.5 Q 168.5 160.3 170.5 152 Z " /><path fill="rgb(60,152,209)" stroke="rgb(60,152,209)" stroke-width="1" opacity="1" d="M 178.5 152 L 180 159.5 L 179 159.5 L 178.5 152 Z " /><path fill="rgb(60,152,209)" stroke="rgb(60,152,209)" stroke-width="1" opacity="1" d="M 113.5 154 L 115 156.5 L 112 158 L 113.5 154 Z " /><path fill="rgb(60,152,209)" stroke="rgb(60,152,209)" stroke-width="1" opacity="1" d="M 166.5 155 L 167 157.5 L 166 157.5 L 166.5 155 Z " /><path fill="rgb(60,152,209)" stroke="rgb(60,152,209)" stroke-width="1" opacity="1" d="M 178.5 165 L 179 170.5 L 178 170.5 L 178.5 165 Z " /><path fill="rgb(60,152,209)" stroke="rgb(60,152,209)" stroke-width="1" opacity="1" d="M 167.5 167 L 167 168.5 L 166.5 171 L 166 168.5 L 167.5 167 Z " /><path fill="rgb(60,152,209)" stroke="rgb(60,152,209)" stroke-width="1" opacity="1" d="M 165.5 173 L 166 175.5 L 165 175.5 L 165.5 173 Z " /><path fill="rgb(60,152,209)" stroke="rgb(60,152,209)" stroke-width="1" opacity="1" d="M 177.5 178 L 178 180.5 L 177 180.5 L 177.5 178 Z " /><path fill="rgb(60,152,209)" stroke="rgb(60,152,209)" stroke-width="1" opacity="1" d="M 150.5 180 L 153 180.5 L 146.5 184 L 143.5 183 L 144 184.5 L 142.5 187 Q 141.1 184.4 136.5 185 L 132 187.5 L 134 188.5 L 131.5 190 L 131.5 188 L 122.5 191 L 116.5 191 L 108 194.5 L 110 195.5 L 107.5 196 L 106 193 L 150.5 180 Z " /><path fill="rgb(60,152,209)" stroke="rgb(60,152,209)" stroke-width="1" opacity="1" d="M 150 186 L 154.5 186 Q 155.8 189 160 188 Q 161.1 190.7 158.5 190 Q 155.5 187.2 150 188 L 150 186 Z " /><path fill="rgb(60,152,209)" stroke="rgb(60,152,209)" stroke-width="1" opacity="1" d="M 176.5 188 L 177 193.5 L 176 193.5 L 176.5 188 Z " /><path fill="rgb(60,152,209)" stroke="rgb(60,152,209)" stroke-width="1" opacity="1" d="M 109.5 197 Q 112.8 195.9 112 198.5 L 110.5 198 L 109.5 197 Z " /><path fill="rgb(60,152,209)" stroke="rgb(60,152,209)" stroke-width="1" opacity="1" d="M 152.5 200 L 155 201.5 L 150.5 203 L 150.5 202 Q 153 202.7 152.5 200 Z " /><path fill="rgb(60,152,209)" stroke="rgb(60,152,209)" stroke-width="1" opacity="1" d="M 168.5 201 L 169.5 203 Q 166.7 203.7 168.5 201 Z " /><path fill="rgb(60,152,209)" stroke="rgb(60,152,209)" stroke-width="1" opacity="1" d="M 144.5 205 L 147 205.5 L 144.5 206 L 144.5 205 Z " /><path fill="rgb(60,152,209)" stroke="rgb(60,152,209)" stroke-width="1" opacity="1" d="M 156.5 205 L 159 205.5 L 150.5 208 L 150.5 207 L 156.5 205 Z " /><path fill="rgb(60,152,209)" stroke="rgb(60,152,209)" stroke-width="1" opacity="1" d="M 138.5 208 L 141 208.5 L 138.5 209 L 138.5 208 Z " /><path fill="rgb(60,152,209)" stroke="rgb(60,152,209)" stroke-width="1" opacity="1" d="M 123.5 209 L 126 209.5 L 123.5 210 L 123.5 209 Z " /><path fill="rgb(60,152,209)" stroke="rgb(60,152,209)" stroke-width="1" opacity="1" d="M 125.5 211 L 128 211.5 L 125.5 212 L 125.5 211 Z " /><path fill="rgb(60,152,209)" stroke="rgb(60,152,209)" stroke-width="1" opacity="1" d="M 133.5 211 L 136 211.5 L 131.5 213 L 131.5 212 L 133.5 211 Z " /><path fill="rgb(60,152,209)" stroke="rgb(60,152,209)" stroke-width="1" opacity="1" d="M 111.5 217 L 114 217.5 L 111.5 218 L 111.5 217 Z " /><path fill="rgb(120,174,212)" stroke="rgb(120,174,212)" stroke-width="1" opacity="0.8901960784313725" d="M 106.5 43 L 168 43.5 L 106.5 44 L 106.5 43 Z " /><path fill="rgb(120,174,212)" stroke="rgb(120,174,212)" stroke-width="1" opacity="0.8901960784313725" d="M 171.5 48 L 172 50.5 L 171 50.5 L 171.5 48 Z " /><path fill="rgb(120,174,212)" stroke="rgb(120,174,212)" stroke-width="1" opacity="0.8901960784313725" d="M 42.5 69 L 45 69.5 L 42.5 70 L 42.5 69 Z " /><path fill="rgb(120,174,212)" stroke="rgb(120,174,212)" stroke-width="1" opacity="0.8901960784313725" d="M 47.5 69 L 80 69.5 L 47.5 70 L 47.5 69 Z " /><path fill="rgb(120,174,212)" stroke="rgb(120,174,212)" stroke-width="1" opacity="0.8901960784313725" d="M 162.5 72 L 161.5 74 L 160 73.5 L 162.5 72 Z " /><path fill="rgb(120,174,212)" stroke="rgb(120,174,212)" stroke-width="1" opacity="0.8901960784313725" d="M 109.5 95 L 110.5 96 L 167 96.5 L 107.5 97 L 107.5 96 L 109.5 95 Z " /><path fill="rgb(120,174,212)" stroke="rgb(120,174,212)" stroke-width="1" opacity="0.8901960784313725" d="M 44.5 97 L 45 100.5 L 44 100.5 L 44.5 97 Z " /><path fill="rgb(120,174,212)" stroke="rgb(120,174,212)" stroke-width="1" opacity="0.8901960784313725" d="M 166.5 103 L 167 105.5 L 166 105.5 L 166.5 103 Z " /><path fill="rgb(120,174,212)" stroke="rgb(120,174,212)" stroke-width="1" opacity="0.8901960784313725" d="M 45.5 109 L 46 111.5 L 45 111.5 L 45.5 109 Z " /><path fill="rgb(120,174,212)" stroke="rgb(120,174,212)" stroke-width="1" opacity="0.8901960784313725" d="M 106.5 122 L 136 122.5 L 106.5 123 L 106.5 122 Z " /><path fill="rgb(120,174,212)" stroke="rgb(120,174,212)" stroke-width="1" opacity="0.8901960784313725" d="M 137.5 123 L 138 125.5 L 137 125.5 L 137.5 123 Z " /><path fill="rgb(120,174,212)" stroke="rgb(120,174,212)" stroke-width="1" opacity="0.8901960784313725" d="M 48.5 136 L 74 136.5 L 48.5 137 L 48.5 136 Z " /><path fill="rgb(120,174,212)" stroke="rgb(120,174,212)" stroke-width="1" opacity="0.8901960784313725" d="M 48.5 138 L 49 140.5 L 48 140.5 L 48.5 138 Z " /><path fill="rgb(120,174,212)" stroke="rgb(120,174,212)" stroke-width="1" opacity="0.8901960784313725" d="M 163.5 138 L 164 140.5 L 163 140.5 L 163.5 138 Z " /><path fill="rgb(120,174,212)" stroke="rgb(120,174,212)" stroke-width="1" opacity="0.8901960784313725" d="M 75.5 139 L 76 141.5 L 75 141.5 L 75.5 139 Z " /><path fill="rgb(120,174,212)" stroke="rgb(120,174,212)" stroke-width="1" opacity="0.8901960784313725" d="M 136.5 139 L 137 142.5 L 136 142.5 L 136.5 139 Z " /><path fill="rgb(120,174,212)" stroke="rgb(120,174,212)" stroke-width="1" opacity="0.8901960784313725" d="M 49.5 149 L 50 151.5 L 49 151.5 L 49.5 149 Z " /><path fill="rgb(120,174,212)" stroke="rgb(120,174,212)" stroke-width="1" opacity="0.8901960784313725" d="M 162.5 149 L 163 151.5 L 162 151.5 L 162.5 149 Z " /><path fill="rgb(120,174,212)" stroke="rgb(120,174,212)" stroke-width="1" opacity="0.8901960784313725" d="M 76.5 152 L 77 154.5 L 76 154.5 L 76.5 152 Z " /><path fill="rgb(120,174,212)" stroke="rgb(120,174,212)" stroke-width="1" opacity="0.8901960784313725" d="M 161.5 160 L 162 163.5 L 161 163.5 L 161.5 160 Z " /><path fill="rgb(120,174,212)" stroke="rgb(120,174,212)" stroke-width="1" opacity="0.8901960784313725" d="M 50.5 161 L 51 163.5 L 50 163.5 L 50.5 161 Z " /><path fill="rgb(120,174,212)" stroke="rgb(120,174,212)" stroke-width="1" opacity="0.8901960784313725" d="M 51.5 172 L 52 175.5 L 51 175.5 L 51.5 172 Z " /><path fill="rgb(120,174,212)" stroke="rgb(120,174,212)" stroke-width="1" opacity="0.8901960784313725" d="M 160.5 172 L 161 175.5 L 160 175.5 L 160.5 172 Z " /><path fill="rgb(61,154,215)" stroke="rgb(61,154,215)" stroke-width="1" opacity="1" d="M 110.5 18 L 113.5 20 L 176 20.5 L 109.5 21 L 108.5 19 L 110.5 18 Z " /><path fill="rgb(61,154,215)" stroke="rgb(61,154,215)" stroke-width="1" opacity="1" d="M 189.5 18 L 191 22.5 L 190 22.5 L 189.5 21 L 188.5 23 L 188 20.5 L 189.5 18 Z " /><path fill="rgb(61,154,215)" stroke="rgb(61,154,215)" stroke-width="1" opacity="1" d="M 178.5 20 Q 185.4 18 184 22 Q 179.1 22.8 178.5 20 Z " /><path fill="rgb(61,154,215)" stroke="rgb(61,154,215)" stroke-width="1" opacity="1" d="M 186.5 20 L 187 22.5 L 186 22.5 L 186.5 20 Z " /><path fill="rgb(61,154,215)" stroke="rgb(61,154,215)" stroke-width="1" opacity="1" d="M 106 22 L 109 22.5 L 106.5 24 L 106 22 Z " /><path fill="rgb(61,154,215)" stroke="rgb(61,154,215)" stroke-width="1" opacity="1" d="M 110.5 23 L 112.5 25 L 178.5 25 L 185 24 L 184 34.5 L 185 36.5 Q 182.3 38.3 184 44.5 L 185 44.5 L 185.5 42 L 187 49.5 L 185.5 53 L 184.5 48 L 183 49.5 L 183 62.5 L 180 65.5 L 180 94.5 L 179 95.5 L 179 103.5 L 180 106.5 L 179 108.5 L 181 109.5 L 182 106.5 L 183 65.5 L 184.5 64 Q 187.5 66 187 71.5 L 186 71.5 L 185.5 69 Q 182.5 73.5 184 82.5 L 185 82.5 L 185.5 81 L 186 85.5 L 184 85.5 L 185 90.5 L 184 95.5 L 185 97.5 L 184 98.5 L 184 112 L 180.5 113 L 179 112.5 L 178 119.5 L 178.5 121 L 176.5 117 L 176 122.5 L 176 124.5 Q 176.8 128.3 174.5 129 L 175 127.5 L 174 114 Q 177.3 115.3 176 110.5 L 179 106.5 L 179 104 Q 174.5 105.8 176 100.5 Q 173.3 99.4 174 96 Q 170 94.6 172 101.5 Q 176.3 102.8 175 109.5 L 173 113.5 L 170.5 126 L 169 112 L 172 110.5 L 171 105 L 168.5 106 L 168 104.5 L 169 99.5 L 168 95 L 144 94.5 L 166 94 Q 165 91 168 92 L 169.5 96 L 171 95.5 L 170 90 L 168 90 L 168 88 Q 164.9 88.8 165.5 86 L 145 86 L 144.5 88 L 142 87.5 L 145 86 L 144 82.5 L 145.5 81 L 152 80 L 152.5 78 L 153 79.5 L 152.5 81 L 156.5 81 L 162 78 Q 160.8 75 164.5 76 L 164.5 74 L 167.5 75 L 167 73.5 Q 166.3 71.3 168.5 72 L 170 71.5 L 169 73.5 Q 171.3 74.8 168.5 76 Q 162.8 76.3 160 79.5 Q 162.3 81.9 167 81 Q 165.9 78.3 168.5 79 L 173.5 78 L 175.5 79 L 177 75 L 174 74.5 L 176 74 L 177 68.5 L 176 65.5 L 178 62.5 L 178 48 L 181 47.5 L 181 32 Q 176.9 33.3 178 30 L 180 29.5 L 178.5 28 L 112 28 Q 110.9 30.7 113.5 30 L 174.5 29 L 176 30.5 L 171.5 32 L 170 31.5 L 170 34 Q 172.7 32.9 172 35.5 L 170.5 35 L 168.5 36 L 166.5 32 Q 165.4 34.8 162 34 L 160.5 31 L 145.5 32 L 142.5 33 L 127.5 32 L 111.5 32 L 110 30.5 L 111 25.5 L 110.5 23 Z M 184 28 L 183 31 L 184 31 L 184 28 Z " /><path fill="rgb(61,154,215)" stroke="rgb(61,154,215)" stroke-width="1" opacity="1" d="M 186 24 Q 188.7 22.9 188 25.5 L 190 32 Q 186.3 33.4 188 27.5 L 186 27.5 L 186 24 Z " /><path fill="rgb(61,154,215)" stroke="rgb(61,154,215)" stroke-width="1" opacity="1" d="M 190.5 25 L 191 27.5 L 190 27.5 L 190.5 25 Z " /><path fill="rgb(61,154,215)" stroke="rgb(61,154,215)" stroke-width="1" opacity="1" d="M 106.5 31 L 107 33 L 109 33 Q 107.5 36.7 110.5 36 L 110.5 37 L 108.5 38 L 106 37.5 L 106.5 31 Z " /><path fill="rgb(61,154,215)" stroke="rgb(61,154,215)" stroke-width="1" opacity="1" d="M 176.5 33 L 177 36.5 L 174 36.5 Q 172.9 33.2 175.5 34 L 176.5 33 Z " /><path fill="rgb(61,154,215)" stroke="rgb(61,154,215)" stroke-width="1" opacity="1" d="M 144 34 L 159.5 34 L 160 37 L 163.5 37 L 167 39.5 L 159.5 40 L 157.5 38 L 145.5 38 L 143.5 39 L 128.5 39 L 127.5 40 L 113.5 40 L 112 37.5 L 113.5 36 L 144 36 L 144 34 Z " /><path fill="rgb(61,154,215)" stroke="rgb(61,154,215)" stroke-width="1" opacity="1" d="M 171.5 38 Q 177.6 36.8 177 39.5 L 175 39.5 L 174.5 41 L 171.5 40 L 169.5 40 L 168 39.5 L 171.5 38 Z " /><path fill="rgb(61,154,215)" stroke="rgb(61,154,215)" stroke-width="1" opacity="1" d="M 189.5 39 L 190 41.5 L 188 42.5 L 189.5 39 Z " /><path fill="rgb(61,154,215)" stroke="rgb(61,154,215)" stroke-width="1" opacity="1" d="M 107.5 40 L 110 41.5 L 108.5 42 L 106 41.5 L 107.5 40 Z " /><path fill="rgb(61,154,215)" stroke="rgb(61,154,215)" stroke-width="1" opacity="1" d="M 160.5 41 L 164 41.5 L 160.5 42 L 160.5 41 Z " /><path fill="rgb(61,154,215)" stroke="rgb(61,154,215)" stroke-width="1" opacity="1" d="M 188.5 48 L 189 51.5 L 188 51.5 L 188.5 48 Z " /><path fill="rgb(61,154,215)" stroke="rgb(61,154,215)" stroke-width="1" opacity="1" d="M 187.5 53 L 188 55.5 L 187 55.5 L 187.5 53 Z " /><path fill="rgb(61,154,215)" stroke="rgb(61,154,215)" stroke-width="1" opacity="1" d="M 174.5 55 L 173.5 58 Q 175.8 57.3 175 59.5 L 176 63.5 L 175 63.5 L 172 56 L 174.5 55 Z " /><path fill="rgb(61,154,215)" stroke="rgb(61,154,215)" stroke-width="1" opacity="1" d="M 187.5 59 L 187 60.5 L 188 64.5 L 186 63.5 Q 185.3 59.8 187.5 59 Z " /><path fill="rgb(61,154,215)" stroke="rgb(61,154,215)" stroke-width="1" opacity="1" d="M 171.5 64 L 175 66.5 L 172.5 68 L 171 66.5 L 171.5 64 Z " /><path fill="rgb(61,154,215)" stroke="rgb(61,154,215)" stroke-width="1" opacity="1" d="M 186.5 74 L 186 75.5 L 185.5 80 L 185 75.5 L 186.5 74 Z " /><path fill="rgb(61,154,215)" stroke="rgb(61,154,215)" stroke-width="1" opacity="1" d="M 158.5 77 L 157.5 79 L 158.5 77 Z " /><path fill="rgb(61,154,215)" stroke="rgb(61,154,215)" stroke-width="1" opacity="1" d="M 135.5 85 L 138 86 Q 136.8 89 140.5 88 L 139.5 90 L 136.5 89 L 135 89.5 L 137 87.5 L 135.5 85 Z " /><path fill="rgb(61,154,215)" stroke="rgb(61,154,215)" stroke-width="1" opacity="1" d="M 125.5 90 L 126.5 92 L 125.5 90 Z " /><path fill="rgb(61,154,215)" stroke="rgb(61,154,215)" stroke-width="1" opacity="1" d="M 130 90 Q 135.2 88.3 134 92 Q 128.8 93.7 130 90 Z " /><path fill="rgb(61,154,215)" stroke="rgb(61,154,215)" stroke-width="1" opacity="1" d="M 135 92 L 142 94.5 L 139.5 95 L 137.5 95 Q 133.3 96.1 135 92 Z " /><path fill="rgb(61,154,215)" stroke="rgb(61,154,215)" stroke-width="1" opacity="1" d="M 166.5 106 L 167.5 108 L 166.5 106 Z " /><path fill="rgb(61,154,215)" stroke="rgb(61,154,215)" stroke-width="1" opacity="1" d="M 180.5 114 L 181 117.5 L 180 117.5 L 180.5 114 Z " /><path fill="rgb(61,154,215)" stroke="rgb(61,154,215)" stroke-width="1" opacity="1" d="M 167.5 118 L 170 134 Q 173.5 132.9 172 140.5 L 170 145 Q 166.2 145.8 165 142.5 L 165.5 141 L 167.5 144 L 168 141.5 L 167 139.5 L 168 138.5 L 168 125.5 Q 165.2 123.7 167.5 118 Z M 170 138 L 168 140 L 169 143 L 170 143 L 170 138 Z " /><path fill="rgb(61,154,215)" stroke="rgb(61,154,215)" stroke-width="1" opacity="1" d="M 181.5 120 Q 183.8 119.3 183 121.5 L 181 128.5 L 182 132.5 L 180.5 136 L 179 129.5 Q 181.8 128.8 181 124.5 L 180 121.5 L 181.5 120 Z " /><path fill="rgb(61,154,215)" stroke="rgb(61,154,215)" stroke-width="1" opacity="1" d="M 106 124 L 109.5 125 L 111.5 124 Q 113.3 126.7 119.5 125 Q 121.3 122.2 127.5 124 L 127.5 127 Q 121.3 125.2 119.5 128 L 119.5 126 L 111.5 126 L 110.5 125 L 107 128.5 L 106.5 159 L 106 128.5 L 107 126.5 L 106 124 Z " /><path fill="rgb(61,154,215)" stroke="rgb(61,154,215)" stroke-width="1" opacity="1" d="M 130.5 126 L 133 126.5 Q 130.8 127.7 132 132.5 L 130.5 134 Q 127.8 134.6 129 128.5 L 130.5 126 Z " /><path fill="rgb(61,154,215)" stroke="rgb(61,154,215)" stroke-width="1" opacity="1" d="M 172.5 128 L 173 131.5 L 172 131.5 L 172.5 128 Z " /><path fill="rgb(61,154,215)" stroke="rgb(61,154,215)" stroke-width="1" opacity="1" d="M 110 129 L 128 129 L 128 135.5 L 129 137.5 L 127 137.5 L 128 148 L 123 149 L 123 152 L 115.5 152 L 112.5 150 L 111 154 L 113 154.5 L 112 159 L 110 158.5 L 110 129 Z M 120 143 L 118 144 Q 113 146 117 148 Q 122 148 125 145 L 120 143 Z " /><path fill="rgb(61,154,215)" stroke="rgb(61,154,215)" stroke-width="1" opacity="1" d="M 134.5 129 L 135 144 L 129 146 L 129 144 L 132 143.5 L 132 135.5 L 134.5 129 Z " /><path fill="rgb(61,154,215)" stroke="rgb(61,154,215)" stroke-width="1" opacity="1" d="M 177.5 131 L 178 133.5 Q 175.4 134.9 176 139.5 L 177 139.5 L 177.5 137 L 179 140.5 L 177.5 144 Q 175.8 141.2 174 145.5 L 174 160.5 L 175 163.5 L 174 165.5 L 175 167.5 Q 172.2 169.2 174 175.5 L 178 177.5 L 176 180.5 L 175 190.5 L 176 194.5 L 175 194.5 L 175 192 L 168 192 L 166 198 L 162.5 199 L 160.5 199 L 148.5 198 L 148.5 200 L 144 201 Q 142.4 205.9 148 204 L 148.5 201 L 151 201.5 L 150.5 203 Q 153.1 202.3 152 205 L 150 205.5 L 152 206.5 L 147.5 208 L 144.5 207 L 142 208 L 141.5 210 L 141 208 L 137 209.5 L 139 210.5 L 137.5 211 L 136.5 208 L 125.5 207 L 123 207.5 L 122.5 209 L 120 208 Q 118.6 212 125.5 210 L 126.5 213 L 128 213.5 L 126.5 214 L 123.5 213 L 123.5 215 L 115.5 217 L 113.5 216 L 112 216.5 L 113 214 L 120 212 Q 118.9 214.7 121.5 214 L 123 211 L 115.5 210 Q 113.8 212.8 112 208.5 L 110 204.5 L 112 202.5 L 113 195.5 L 111.5 196 L 110 195.5 L 112 194.5 L 110 193.5 L 118 191 Q 116.9 194.5 124.5 193 L 124.5 192 Q 122.3 192.8 123 190.5 L 124.5 191 L 128.5 192 L 130.5 191 L 132.5 193 L 144 193 L 144 189 L 145.5 189 L 145.5 188 L 141.5 189 L 138 187.5 L 140.5 186 L 142.5 187 Q 144 183.5 145.5 186 L 147.5 187 L 150 186 Q 148.7 189.7 154.5 188 L 159.5 190 L 161 186.5 L 160 184.5 L 161 182.5 L 160 180.5 L 161 177.5 L 161.5 176 L 163.5 177 L 167.5 176 L 170 177 Q 168.2 168.8 172 165.5 L 172 153.5 L 171 151.5 L 172 145 L 174 144.5 L 174 132.5 L 176 132 L 176.5 134 L 177.5 131 Z M 174 161 L 173 164 L 174 164 L 174 161 Z M 149 189 L 147 192 L 156 194 Q 161 196 160 192 L 156 192 L 154 190 L 149 189 Z M 144 196 Q 143 200 148 198 Q 149 194 144 196 Z M 145 205 L 145 206 L 147 206 L 145 205 Z " /><path fill="rgb(61,154,215)" stroke="rgb(61,154,215)" stroke-width="1" opacity="1" d="M 180.5 139 L 181 143.5 L 179 151.5 L 180 154.5 L 178.5 158 L 178 155.5 L 179 152.5 L 178 149.5 L 180.5 139 Z " /><path fill="rgb(61,154,215)" stroke="rgb(61,154,215)" stroke-width="1" opacity="1" d="M 164.5 144 L 165 148.5 L 164 148.5 L 164.5 144 Z " /><path fill="rgb(61,154,215)" stroke="rgb(61,154,215)" stroke-width="1" opacity="1" d="M 168.5 147 Q 171 148.2 170 152 Q 165.9 153.2 168.5 147 Z " /><path fill="rgb(61,154,215)" stroke="rgb(61,154,215)" stroke-width="1" opacity="1" d="M 130.5 149 L 133 150 L 132 152.5 L 135 154.5 L 133.5 155 L 130 153 L 130.5 149 Z " /><path fill="rgb(61,154,215)" stroke="rgb(61,154,215)" stroke-width="1" opacity="1" d="M 124.5 152 L 123.5 154 L 122 153.5 L 124.5 152 Z " /><path fill="rgb(61,154,215)" stroke="rgb(61,154,215)" stroke-width="1" opacity="1" d="M 114.5 154 L 118 155.5 L 116.5 158 L 114 157.5 L 115 155.5 L 114.5 154 Z " /><path fill="rgb(61,154,215)" stroke="rgb(61,154,215)" stroke-width="1" opacity="1" d="M 163.5 158 L 164.5 160 L 163.5 158 Z " /><path fill="rgb(61,154,215)" stroke="rgb(61,154,215)" stroke-width="1" opacity="1" d="M 166.5 158 L 170 160 L 169 167 Q 166 168.3 167 164.5 L 168 163.5 L 166.5 161 L 168 160.5 L 166.5 158 Z " /><path fill="rgb(61,154,215)" stroke="rgb(61,154,215)" stroke-width="1" opacity="1" d="M 107.5 160 L 108 162 L 106 161.5 L 107.5 160 Z " /><path fill="rgb(61,154,215)" stroke="rgb(61,154,215)" stroke-width="1" opacity="1" d="M 163.5 161 L 164 163.5 L 163 163.5 L 163.5 161 Z " /><path fill="rgb(61,154,215)" stroke="rgb(61,154,215)" stroke-width="1" opacity="1" d="M 178.5 162 L 179 164.5 L 178 164.5 L 178.5 162 Z " /><path fill="rgb(61,154,215)" stroke="rgb(61,154,215)" stroke-width="1" opacity="1" d="M 165.5 166 L 166 167.5 L 165 171 Q 168.3 169.7 167 174.5 L 166 174.5 L 163 167.5 L 165 167.5 L 165.5 166 Z " /><path fill="rgb(61,154,215)" stroke="rgb(61,154,215)" stroke-width="1" opacity="1" d="M 176 168 Q 179.3 166.7 178 171.5 L 176.5 176 L 176 168 Z " /><path fill="rgb(61,154,215)" stroke="rgb(61,154,215)" stroke-width="1" opacity="1" d="M 149.5 182 L 152 182.5 L 149.5 183 L 149.5 182 Z " /><path fill="rgb(61,154,215)" stroke="rgb(61,154,215)" stroke-width="1" opacity="1" d="M 158.5 182 L 159 184.5 L 157 186.5 L 156.5 188 L 154.5 185 L 156 184.5 L 155.5 183 L 158.5 182 Z " /><path fill="rgb(61,154,215)" stroke="rgb(61,154,215)" stroke-width="1" opacity="1" d="M 129.5 188 L 130.5 190 L 129.5 188 Z " /><path fill="rgb(61,154,215)" stroke="rgb(61,154,215)" stroke-width="1" opacity="1" d="M 175.5 199 L 176 201 L 173 200.5 L 175.5 199 Z " /><path fill="rgb(61,154,215)" stroke="rgb(61,154,215)" stroke-width="1" opacity="1" d="M 164.5 201 L 168 201.5 L 165 202 L 164.5 204 L 161.5 203 L 157.5 205 L 155.5 202 L 158 202.5 L 157.5 204 L 164.5 201 Z " /><path fill="rgb(61,154,215)" stroke="rgb(61,154,215)" stroke-width="1" opacity="1" d="M 169.5 201 L 172 201.5 L 169.5 202 L 169.5 201 Z " /><path fill="rgb(61,154,215)" stroke="rgb(61,154,215)" stroke-width="1" opacity="1" d="M 106.5 205 L 107 212.5 L 106 212.5 L 106.5 205 Z " /><path fill="rgb(61,154,215)" stroke="rgb(61,154,215)" stroke-width="1" opacity="1" d="M 108.5 207 L 109 210.5 L 108 210.5 L 108.5 207 Z " /><path fill="rgb(61,154,215)" stroke="rgb(61,154,215)" stroke-width="1" opacity="1" d="M 132.5 209 L 132.5 212 L 129.5 213 L 128 210 L 132.5 209 Z " /><path fill="rgb(61,154,215)" stroke="rgb(61,154,215)" stroke-width="1" opacity="1" d="M 107 215 L 109 215.5 L 108 217.5 L 109.5 217 L 111 217.5 L 106.5 219 L 107 217.5 L 107 215 Z " /><path fill="rgb(33,98,176)" stroke="rgb(33,98,176)" stroke-width="1" opacity="1" d="M 1.5 0 L 209.5 0 Q 210.6 0.1 210 5.5 L 210 7.5 L 209 18.5 L 208 19.5 L 206 52.5 L 205 53.5 L 204 75.5 L 203 76.5 L 202 93.5 L 201 95.5 L 202 97.5 L 201 98.5 L 198 137.5 L 197 138.5 L 197 149.5 L 196 150.5 L 195 171.5 L 193 182.5 L 192 206.5 Q 189.8 207.7 191 212.5 L 189.5 214 L 167.5 219 L 153.5 224 Q 152 221.5 150.5 225 L 146.5 225 L 120.5 233 L 104.5 236 L 96.5 233 L 94.5 233 L 47 220.5 L 48 218.5 L 45.5 220 L 32.5 216 L 27.5 216 L 21 212.5 L 18 176.5 L 18 174.5 L 17 172.5 L 17 160.5 L 16 159.5 L 14 136.5 L 15 134.5 L 13 128.5 L 12 109.5 L 13 107.5 L 11 107.5 L 10 88.5 Q 12.5 87 9 85.5 L 7 54.5 L 6 53.5 L 5 33.5 L 4 32.5 L 3 12.5 L 2 11.5 L 2 1.5 L 1.5 0 Z M 112 16 L 111 17 Q 106 16 106 18 L 106 43 L 97 43 L 96 42 Q 89 40 88 43 Q 81 45 80 42 L 48 42 L 47 43 L 40 41 L 39 45 L 37 46 L 38 51 L 40 53 L 39 55 L 41 60 L 40 62 L 40 66 L 42 70 L 44 71 L 104 72 L 103 72 L 101 72 L 90 76 L 90 78 L 88 78 Q 89 80 87 79 L 87 77 Q 84 76 85 79 L 83 79 L 83 81 L 81 81 Q 77 80 78 83 L 77 82 L 73 83 L 73 85 L 70 84 L 70 86 L 68 85 L 68 87 L 66 86 L 66 88 L 65 87 L 64 89 L 62 88 L 61 90 L 60 89 L 59 91 L 58 90 L 54 91 L 54 93 L 51 92 L 51 94 L 49 93 L 49 95 L 48 94 L 43 97 Q 41 103 45 102 L 44 105 Q 43 112 46 116 L 45 123 L 47 122 L 80 122 L 81 123 L 96 123 L 97 124 Q 103 126 105 123 Q 107 124 105 126 L 106 127 L 106 163 L 103 164 L 102 162 L 100 161 L 95 162 L 94 160 L 91 161 L 90 159 L 87 160 L 86 158 L 84 159 L 82 159 L 84 158 L 84 157 Q 79 158 80 156 L 79 156 L 78 155 L 78 153 L 76 150 L 77 148 Q 79 138 74 135 L 49 135 L 47 137 L 48 144 L 48 143 L 49 143 L 48 145 Q 46 152 50 155 L 49 157 Q 47 164 51 166 L 50 176 L 51 178 L 53 177 L 53 179 L 56 178 L 56 180 L 60 179 L 60 181 L 63 180 L 63 182 L 66 181 L 66 183 L 70 182 L 70 184 L 73 183 L 73 185 L 76 184 L 77 185 L 76 185 L 76 186 L 80 185 Q 81 188 83 187 Q 82 189 86 188 L 90 188 L 90 190 L 93 189 L 93 191 L 97 190 L 97 192 L 101 193 L 104 192 L 106 196 L 107 220 L 149 208 L 152 209 L 152 207 L 176 201 L 178 172 L 179 171 L 179 161 L 180 160 L 180 149 L 181 148 L 181 137 L 183 136 L 182 135 L 185 92 L 186 91 L 186 79 L 188 68 L 188 57 L 190 56 L 189 55 L 191 23 L 192 17 L 113 17 L 112 16 Z M 12 93 L 11 96 L 12 96 L 12 93 Z " /></svg>