<?xml version="1.0" encoding="UTF-8"?>
<svg version="1.1" xmlns="http://www.w3.org/2000/svg" width="297" height="170">
<path d="M0 0 C1.98 0.99 3.96 1.98 6 3 C6.23272688 7.06153166 6.37454311 11.12135243 6.5 15.1875 C6.60054687 16.91323242 6.60054687 16.91323242 6.703125 18.67382812 C6.8952082 26.95741632 6.8952082 26.95741632 4.32421875 29.95166016 C1.43489489 31.88882047 -0.61041531 33.21840853 -4.14355469 32.66308594 C-7.34630409 31.51912652 -10.08340055 29.73874198 -13 28 C-13.47574716 24.22706072 -13.70097331 20.75257892 -13 17 C-10.70514864 14.47512857 -8.20970161 13.11081452 -5 12 C-4.01 12 -3.02 12 -2 12 C-1.93941406 11.21753906 -1.87882813 10.43507813 -1.81640625 9.62890625 C-1.73261719 8.61699219 -1.64882812 7.60507812 -1.5625 6.5625 C-1.48128906 5.55316406 -1.40007812 4.54382812 -1.31640625 3.50390625 C-1 1 -1 1 0 0 Z M-5 20 C-5.33 21.32 -5.66 22.64 -6 24 C-4.68 24.33 -3.36 24.66 -2 25 C-1.67 23.68 -1.34 22.36 -1 21 C-2.32 20.67 -3.64 20.34 -5 20 Z " fill="#3B3C30" transform="translate(150,45)"/>
<path d="M0 0 C3.33350718 1.45306723 5.71439058 2.58694598 8.4375 5.0625 C9.64957227 8.89603091 10.07439445 12.45289404 8.578125 16.234375 C6.93800249 18.8630645 5.24248364 19.78750744 2.4375 21.0625 C-1.45242266 21.64185018 -3.29745478 21.18752133 -6.875 19.5 C-9.5625 17.0625 -9.5625 17.0625 -10.5 13.625 C-10.60671053 7.5425 -10.60671053 7.5425 -9.5625 5.0625 C-6.72769514 2.22769514 -4.08742174 0.09969321 0 0 Z " fill="#85C542" transform="translate(123.5625,56.9375)"/>
<path d="M0 0 C1.625 1.6875 1.625 1.6875 1.875 4.375 C1.7925 5.138125 1.71 5.90125 1.625 6.6875 C-1.015 7.6775 -3.655 8.6675 -6.375 9.6875 C-4.725 10.6775 -3.075 11.6675 -1.375 12.6875 C-2.375 15.6875 -2.375 15.6875 -4.9375 17.1875 C-9.25282233 17.81518325 -11.24832412 17.05233271 -14.7734375 14.58203125 C-17.48018695 11.38014471 -17.46110863 8.3659125 -17.1640625 4.30078125 C-16.2368585 1.22999177 -15.35656673 0.2016095 -12.75 -1.625 C-7.58887651 -4.15085019 -4.79929577 -2.6522424 0 0 Z " fill="#393C2F" transform="translate(177.375,60.3125)"/>
<path d="M0 0 C5.36842105 3.36842105 5.36842105 3.36842105 7 5 C7.07258946 7.18639453 7.08373783 9.37500389 7.0625 11.5625 C7.05347656 12.76003906 7.04445313 13.95757812 7.03515625 15.19140625 C7.02355469 16.11824219 7.01195313 17.04507813 7 18 C2.25 17.25 2.25 17.25 0 15 C-0.40047444 12.67724823 -0.7397104 10.34260643 -1 8 C-1.99 8 -2.98 8 -4 8 C-4.061875 9.093125 -4.12375 10.18625 -4.1875 11.3125 C-5 15 -5 15 -7.4375 16.9375 C-10 18 -10 18 -12 18 C-13.21416526 5.53794266 -13.21416526 5.53794266 -10.359375 1.921875 C-6.67472572 -0.45267676 -4.24202107 -1.58540181 0 0 Z " fill="#3D3E33" transform="translate(102,58)"/>
<path d="M0 0 C1.98 0.99 1.98 0.99 4 2 C4.99 1.34 5.98 0.68 7 0 C10.06578057 -0.5454104 12.9329232 -0.53808365 16 0 C19.28175318 2.52968474 20.69243777 4.07731331 22 8 C22.36631844 13.58635614 22.23232115 17.20724794 19 22 C16.56955048 24.21599809 15.01527924 25.00519768 11.7109375 24.98828125 C5.37478032 24.37478032 5.37478032 24.37478032 4 23 C3.67 25.97 3.34 28.94 3 32 C1.515 32.495 1.515 32.495 0 33 C0 22.11 0 11.22 0 0 Z M5.0625 3.75 C2.08441548 8.44273925 2.11687539 12.58461325 3 18 C4.33822159 20.84074462 4.33822159 20.84074462 7 22 C10.75349462 22.46918683 13.03848453 22.53136381 16.375 20.6875 C19.33005962 17.61878424 19.34933601 14.12519517 19.2734375 10.00390625 C18.81659638 6.65591347 17.54086795 5.14996519 15 3 C10.7225372 1.60010308 8.95972204 1.4282507 5.0625 3.75 Z " fill="#1C1B17" transform="translate(121,92)"/>
<path d="M0 0 C5.02135144 4.20153896 5.03399877 6.23799136 6 13 C-0.27 13 -6.54 13 -13 13 C-11.46687233 17.31608796 -11.46687233 17.31608796 -9 21 C-3.67326964 21.33856828 -3.67326964 21.33856828 1 19 C2.19232613 16.94996045 2.19232613 16.94996045 3 15 C3.66 15 4.32 15 5 15 C4.389377 20.49560703 4.389377 20.49560703 2.73046875 22.64453125 C-0.41758121 25.11038528 -4.10770177 25.1096422 -8 25 C-11.19989543 23.74786701 -12.6014525 22.46726259 -14.8125 19.875 C-16.98881162 14.60603503 -16.70383603 9.84338008 -14.6875 4.5625 C-11.0539621 -0.95509459 -6.07773732 -1.09534979 0 0 Z M-12 5 C-12.33 6.65 -12.66 8.3 -13 10 C-7.72 10 -2.44 10 3 10 C1.0726658 4.82311531 1.0726658 4.82311531 -3 2 C-7.30683959 2 -8.68035674 2.39811744 -12 5 Z " fill="#0F0F0A" transform="translate(92,92)"/>
<path d="M0 0 C5.02135144 4.20153896 5.03399877 6.23799136 6 13 C-0.27 13 -6.54 13 -13 13 C-11.59628479 18.7018576 -11.59628479 18.7018576 -9 21 C-4.66356399 21.31537716 -2.67346771 21.44897847 1 19 C2.19232613 16.94996045 2.19232613 16.94996045 3 15 C3.66 15.33 4.32 15.66 5 16 C4.79754815 19.64413322 4.18968548 20.8197988 1.5 23.375 C-3.01441293 25.47097743 -6.26332572 25.4228033 -11 24 C-13.99452434 21.75410675 -14.81623122 20.55130633 -16 17 C-16.40813605 12.36922562 -16.56808336 8.29847625 -14.6875 4 C-10.60193055 -0.84215639 -5.93996812 -1.07052057 0 0 Z M-12 5 C-12.33 6.65 -12.66 8.3 -13 10 C-7.72 10 -2.44 10 3 10 C1.0726658 4.82311531 1.0726658 4.82311531 -3 2 C-7.30683959 2 -8.68035674 2.39811744 -12 5 Z " fill="#0F0F0C" transform="translate(173,92)"/>
<path d="M0 0 C1.093125 0.45375 2.18625 0.9075 3.3125 1.375 C6.38277091 4.37386926 6.56799631 5.29015925 6.875 9.4375 C6.70440965 12.70496138 6.54073816 14.38145779 4.37109375 16.86328125 C1.36593519 18.88762905 -0.98387503 19.97580655 -4.625 20.0625 C-5.800625 19.5365625 -5.800625 19.5365625 -7 19 C-8.093125 18.54625 -9.18625 18.0925 -10.3125 17.625 C-13.38277091 14.62613074 -13.56799631 13.70984075 -13.875 9.5625 C-13.70440965 6.29503862 -13.54073816 4.61854221 -11.37109375 2.13671875 C-7.5534368 -0.43494769 -4.42192535 -1.97822976 0 0 Z M-4 1 C-7.17142929 2.36155102 -7.17142929 2.36155102 -10 5 C-10.53698855 8.05872891 -10.35474551 10.92553889 -10 14 C-9.01 14.495 -9.01 14.495 -8 15 C-7.67 12.03 -7.34 9.06 -7 6 C-4.36 6 -1.72 6 1 6 C1.38133299 7.9914056 1.71325582 9.99279077 2 12 C1 13 1 13 -2.0625 13.0625 C-3.031875 13.041875 -4.00125 13.02125 -5 13 C-5.33 14.32 -5.66 15.64 -6 17 C-3.17133075 18.31112074 -3.17133075 18.31112074 -1.17578125 17.22265625 C-0.56089844 16.83980469 0.05398437 16.45695312 0.6875 16.0625 C1.780625 15.381875 2.87375 14.70125 4 14 C4 11.03 4 8.06 4 5 C1.36 3.68 -1.28 2.36 -4 1 Z " fill="#9BB366" transform="translate(197,58)"/>
<path d="M0 0 C2.87294545 0.55248951 4.30368885 1.49353292 6.4375 3.46875 C7.1875 5.65625 7.1875 5.65625 7.4375 7.46875 C6.4475 7.79875 5.4575 8.12875 4.4375 8.46875 C4.1590625 7.5096875 4.1590625 7.5096875 3.875 6.53125 C2.51157731 4.07699086 2.51157731 4.07699086 -1 3.71875 C-3.18371637 3.56550675 -5.37341327 3.46875 -7.5625 3.46875 C-7.5625 5.11875 -7.5625 6.76875 -7.5625 8.46875 C-6.73105469 8.72269531 -5.89960938 8.97664063 -5.04296875 9.23828125 C-3.95628906 9.58246094 -2.86960938 9.92664063 -1.75 10.28125 C-0.13158203 10.78591797 -0.13158203 10.78591797 1.51953125 11.30078125 C4.28255674 12.40673121 5.69817283 13.09585348 7.4375 15.46875 C8.08201158 20.62484265 8.08201158 20.62484265 6.1875 23.10546875 C3.03621365 25.56037709 -0.67687307 25.47557887 -4.5625 25.46875 C-8.52221687 24.45775846 -9.25265792 23.93351311 -11.5625 20.46875 C-11.5625 19.14875 -11.5625 17.82875 -11.5625 16.46875 C-10.9025 16.46875 -10.2425 16.46875 -9.5625 16.46875 C-9.27375 17.108125 -8.985 17.7475 -8.6875 18.40625 C-7.73426549 20.62081079 -7.73426549 20.62081079 -5.5625 21.46875 C-4.18907169 21.5376972 -2.81247898 21.55342708 -1.4375 21.53125 C-0.15875 21.510625 1.12 21.49 2.4375 21.46875 C3.0975 19.48875 3.7575 17.50875 4.4375 15.46875 C3.60605469 15.27539062 2.77460938 15.08203125 1.91796875 14.8828125 C0.83128906 14.62242188 -0.25539062 14.36203125 -1.375 14.09375 C-2.45394531 13.83851562 -3.53289062 13.58328125 -4.64453125 13.3203125 C-7.5625 12.46875 -7.5625 12.46875 -10.5625 10.46875 C-11.5 8.15625 -11.5 8.15625 -11.5625 5.46875 C-8.95441372 -0.12000632 -5.59023945 -0.06817365 0 0 Z " fill="#16160F" transform="translate(214.5625,91.53125)"/>
<path d="M0 0 C1.46566406 -0.03867188 1.46566406 -0.03867188 2.9609375 -0.078125 C5.625 0.25 5.625 0.25 7.43359375 1.62890625 C8.79373877 3.47959538 9.23724532 5.00102285 9.625 7.25 C8.635 7.58 7.645 7.91 6.625 8.25 C6.3465625 7.2909375 6.3465625 7.2909375 6.0625 6.3125 C4.69301965 3.86835167 4.69301965 3.86835167 1.1875 3.375 C-2.48122176 2.89937195 -2.48122176 2.89937195 -5.375 5.25 C-5.375 6.57 -5.375 7.89 -5.375 9.25 C-4.54355469 9.43175781 -3.71210938 9.61351563 -2.85546875 9.80078125 C-1.76878906 10.05214844 -0.68210938 10.30351563 0.4375 10.5625 C2.05591797 10.92794922 2.05591797 10.92794922 3.70703125 11.30078125 C6.59664023 12.24077453 7.87290406 12.81151596 9.625 15.25 C10.26951158 20.40609265 10.26951158 20.40609265 8.375 22.88671875 C5.22371365 25.34162709 1.51062693 25.25682887 -2.375 25.25 C-6.33471687 24.23900846 -7.06515792 23.71476311 -9.375 20.25 C-9.375 18.93 -9.375 17.61 -9.375 16.25 C-8.385 16.58 -7.395 16.91 -6.375 17.25 C-6.045 18.57 -5.715 19.89 -5.375 21.25 C-1.415 21.25 2.545 21.25 6.625 21.25 C6.625 19.27 6.625 17.29 6.625 15.25 C5.79355469 15.05664062 4.96210938 14.86328125 4.10546875 14.6640625 C3.01878906 14.40367188 1.93210938 14.14328125 0.8125 13.875 C-0.26644531 13.61976562 -1.34539062 13.36453125 -2.45703125 13.1015625 C-5.375 12.25 -5.375 12.25 -8.375 10.25 C-9.25 8.4375 -9.25 8.4375 -9.375 6.25 C-6.68590637 0.99404427 -5.8192802 0.09164221 0 0 Z " fill="#191A14" transform="translate(190.375,91.75)"/>
<path d="M0 0 C1.32 0 2.64 0 4 0 C5.703125 1.75 5.703125 1.75 7.25 4 C8.03117187 5.11375 8.03117187 5.11375 8.828125 6.25 C9.21484375 6.8275 9.6015625 7.405 10 8 C12.64752004 5.42215154 14.94432065 3.08351902 17 0 C17.99 0 18.98 0 20 0 C17.97099431 4.20971275 15.49892625 8.05432697 13 12 C15.64 15.63 18.28 19.26 21 23 C19.68 23.33 18.36 23.66 17 24 C15.02 21.03 13.04 18.06 11 15 C7.45106227 18.45064494 7.45106227 18.45064494 4.375 22.3125 C3.92125 22.869375 3.4675 23.42625 3 24 C2.01 24 1.02 24 0 24 C1.53903617 20.50219052 3.69088479 17.73524139 6.07421875 14.78125 C7.18110136 13.03783618 7.18110136 13.03783618 6.8359375 11.0078125 C5.86435441 8.67419704 4.65734683 7.22088762 2.9375 5.375 C0 2.20941176 0 2.20941176 0 0 Z " fill="#1C1C17" transform="translate(98,92)"/>
<path d="M0 0 C0.99 0.66 1.98 1.32 3 2 C2.67 2.66 2.34 3.32 2 4 C1.113125 3.608125 0.22625 3.21625 -0.6875 2.8125 C-3.93090564 1.73854322 -3.93090564 1.73854322 -6.875 2.75 C-9.47649799 5.50452729 -9.30726225 6.49488663 -9.3125 10.1875 C-9.23210847 11.79303374 -9.1352403 13.39815374 -9 15 C-8.80664062 14.44570312 -8.61328125 13.89140625 -8.4140625 13.3203125 C-8.15367188 12.59585938 -7.89328125 11.87140625 -7.625 11.125 C-7.36976562 10.40570313 -7.11453125 9.68640625 -6.8515625 8.9453125 C-6 7 -6 7 -4 5 C-4.33 4.34 -4.66 3.68 -5 3 C-0.43648961 3.48036952 -0.43648961 3.48036952 1.3125 5.5625 C2.31210998 9.10657174 2.12259376 12.32218719 2 16 C1.34 15.67 0.68 15.34 0 15 C-0.40729228 12.67843403 -0.74438677 10.3431213 -1 8 C-1.99 8 -2.98 8 -4 8 C-4.061875 9.093125 -4.12375 10.18625 -4.1875 11.3125 C-5 15 -5 15 -7.4375 16.9375 C-10 18 -10 18 -12 18 C-13.21416526 5.53794266 -13.21416526 5.53794266 -10.359375 1.921875 C-6.67988448 -0.44935223 -4.23717241 -1.59324572 0 0 Z " fill="#2E2D21" transform="translate(102,58)"/>
<path d="M0 0 C3.1875 -0.375 3.1875 -0.375 7 0 C12.04142809 4.49344678 11.95934333 5.71540333 13 13 C6.07 13 -0.86 13 -8 13 C-7.67 11.68 -7.34 10.36 -7 9 C-1.72 9 3.56 9 9 9 C6.57992642 3.76648905 6.57992642 3.76648905 2.3125 2.6875 C1.219375 2.460625 0.12625 2.23375 -1 2 C-0.67 1.34 -0.34 0.68 0 0 Z " fill="#141412" transform="translate(166,92)"/>
<path d="M0 0 C3.62062854 0.56794173 4.87871461 1.72348929 7.20703125 4.50390625 C8.1875 6.5 8.1875 6.5 9.1875 13.5 C2.2575 13.5 -4.6725 13.5 -11.8125 13.5 C-11.4825 12.51 -11.1525 11.52 -10.8125 10.5 C-5.2025 10.5 0.4075 10.5 6.1875 10.5 C2.94663087 4.35985555 2.94663087 4.35985555 -1.5625 3.125 C-2.635 2.91875 -3.7075 2.7125 -4.8125 2.5 C-2.8125 0.5 -2.8125 0.5 0 0 Z " fill="#1F1E1A" transform="translate(88.8125,91.5)"/>
<path d="M0 0 C0.99 0 1.98 0 3 0 C3.33 0.66 3.66 1.32 4 2 C4.99 1.34 5.98 0.68 7 0 C9.6875 -0.125 9.6875 -0.125 12 0 C11.67 0.99 11.34 1.98 11 3 C9.02 3.33 7.04 3.66 5 4 C4.13580777 6.59257669 3.82419068 8.34037707 3.68359375 11.01171875 C3.64169922 11.76904297 3.59980469 12.52636719 3.55664062 13.30664062 C3.51732422 14.09232422 3.47800781 14.87800781 3.4375 15.6875 C3.39431641 16.48478516 3.35113281 17.28207031 3.30664062 18.10351562 C3.20072632 20.06881447 3.09987449 22.03438496 3 24 C2.01 24 1.02 24 0 24 C0 16.08 0 8.16 0 0 Z " fill="#20201A" transform="translate(146,92)"/>
<path d="M0 0 C4.53814874 0.38898418 7.6436368 1.94876073 11 5 C12.21207227 8.83353091 12.63689445 12.39039404 11.140625 16.171875 C9.50050249 18.8005645 7.80498364 19.72500744 5 21 C1.9375 21.4375 1.9375 21.4375 -1 21 C-3.375 19 -3.375 19 -5 17 C-3.88625 17.185625 -2.7725 17.37125 -1.625 17.5625 C1.82568861 18.31680657 1.82568861 18.31680657 4 17 C4.33 16.34 4.66 15.68 5 15 C6 13 6 13 8 12 C8 9.69 8 7.38 8 5 C7.2575 4.71125 6.515 4.4225 5.75 4.125 C3.43260203 3.17697356 1.22082885 2.15154089 -1 1 C-0.67 0.67 -0.34 0.34 0 0 Z " fill="#A1CA6C" transform="translate(121,57)"/>
<path d="M0 0 C4.455 1.98 4.455 1.98 9 4 C9 4.99 9 5.98 9 7 C8.01 7.495 8.01 7.495 7 8 C7.33 8.66 7.66 9.32 8 10 C6 12 6 12 3 13 C0.8125 12.0625 0.8125 12.0625 -1 11 C-1.02688151 9.35425434 -1.04634123 7.70838587 -1.0625 6.0625 C-1.07410156 5.14597656 -1.08570313 4.22945313 -1.09765625 3.28515625 C-1 1 -1 1 0 0 Z " fill="#3B3E32" transform="translate(164,62)"/>
<path d="M0 0 C0.66 0.33 1.32 0.66 2 1 C2 1.66 2 2.32 2 3 C3.43739513 3.02712066 4.87493863 3.04645067 6.3125 3.0625 C7.11300781 3.07410156 7.91351563 3.08570312 8.73828125 3.09765625 C11.16861334 3.09657855 11.16861334 3.09657855 14 2 C14.33 2.99 14.66 3.98 15 5 C11.85909063 6.8759207 9.92116258 7.18257272 6.3125 6.6875 C5.52488281 6.58824219 4.73726562 6.48898438 3.92578125 6.38671875 C2 6 2 6 1 5 C0.67 7.97 0.34 10.94 0 14 C-0.99 14.33 -1.98 14.66 -3 15 C-3.02696365 13.20841511 -3.04637917 11.41671527 -3.0625 9.625 C-3.07410156 8.62726563 -3.08570312 7.62953125 -3.09765625 6.6015625 C-3 4 -3 4 -2 2 C-1.34 2 -0.68 2 0 2 C0 1.34 0 0.68 0 0 Z " fill="#0E0E0A" transform="translate(124,110)"/>
<path d="M0 0 C0 0.66 0 1.32 0 2 C-0.804375 2.33 -1.60875 2.66 -2.4375 3 C-5.2048032 4.72634103 -5.2048032 4.72634103 -5.5546875 7.41796875 C-5.79042519 9.95036306 -5.94752861 12.45752277 -6 15 C-3.03 15.495 -3.03 15.495 0 16 C0.33 15.34 0.66 14.68 1 14 C3.97 14.495 3.97 14.495 7 15 C6 18 6 18 3.4375 19.5 C-0.88072624 20.12810563 -2.87249705 19.35847321 -6.40625 16.8984375 C-9.10305676 13.68606474 -8.95594905 10.5925807 -8.671875 6.5390625 C-8 4 -8 4 -5.125 1.3125 C-2 0 -2 0 0 0 Z " fill="#2E2E23" transform="translate(169,58)"/>
<path d="M0 0 C1.98 0.66 3.96 1.32 6 2 C5.52433594 3.02673828 5.52433594 3.02673828 5.0390625 4.07421875 C3.85883043 7.39750379 3.58802755 10.29754535 3.375 13.8125 C3.30023438 14.97394531 3.22546875 16.13539062 3.1484375 17.33203125 C3.09945312 18.21246094 3.05046875 19.09289062 3 20 C2.34 20 1.68 20 1 20 C0.67 20.66 0.34 21.32 0 22 C0 14.74 0 7.48 0 0 Z " fill="#151512" transform="translate(121,92)"/>
<path d="M0 0 C0.66 0 1.32 0 2 0 C2 8.25 2 16.5 2 25 C-1.96 26.98 -1.96 26.98 -6 29 C-5.505 27.515 -5.505 27.515 -5 26 C-3.68 25.34 -2.36 24.68 -1 24 C-0.67 16.08 -0.34 8.16 0 0 Z " fill="#313226" transform="translate(154,48)"/>
<path d="M0 0 C0.99 0.33 1.98 0.66 3 1 C3.33 2.32 3.66 3.64 4 5 C7.96 5 11.92 5 16 5 C16.33 4.34 16.66 3.68 17 3 C17.66 3.66 18.32 4.32 19 5 C16.69934602 7.71828862 15.1532975 8.45726186 11.625 8.8125 C7.90800203 9.10865106 5.27180116 8.9829098 2 7 C0 4 0 4 0 0 Z " fill="#0D0D05" transform="translate(181,108)"/>
<path d="M0 0 C3.1875 -0.375 3.1875 -0.375 7 0 C11.01091219 3.66213721 12.6135152 6.58921275 13 12 C10.69 12 8.38 12 6 12 C7.32 11.67 8.64 11.34 10 11 C7.88673474 6.29157376 7.88673474 6.29157376 4 3 C2.34450469 2.61500109 0.6777567 2.27206865 -1 2 C-0.67 1.34 -0.34 0.68 0 0 Z " fill="#1E1B17" transform="translate(166,92)"/>
<path d="M0 0 C4.56351039 0.48036952 4.56351039 0.48036952 6.3125 2.5625 C7.31210998 6.10657174 7.12259376 9.32218719 7 13 C6.34 12.67 5.68 12.34 5 12 C4.59270772 9.67843403 4.25561323 7.3431213 4 5 C3.01 5 2.02 5 1 5 C0.67 7.31 0.34 9.62 0 12 C-1.32 12.33 -2.64 12.66 -4 13 C-3.54917531 11.53932801 -3.08906463 10.08151968 -2.625 8.625 C-2.36976562 7.81289062 -2.11453125 7.00078125 -1.8515625 6.1640625 C-1 4 -1 4 1 2 C0.67 1.34 0.34 0.68 0 0 Z " fill="#333429" transform="translate(97,61)"/>
<path d="M0 0 C3.1875 0.5 3.1875 0.5 6 3.1875 C7.99005681 6.2010146 8.87546658 7.96362119 9.1875 11.5 C8.1975 11.5 7.2075 11.5 6.1875 11.5 C5.754375 10.55125 5.32125 9.6025 4.875 8.625 C3.39447799 5.29958063 3.39447799 5.29958063 0.1875 3.5 C-1.46799531 3.11500109 -3.1347433 2.77206865 -4.8125 2.5 C-2.8125 0.5 -2.8125 0.5 0 0 Z " fill="#1B1A15" transform="translate(88.8125,91.5)"/>
<path d="M0 0 C0.66 0.33 1.32 0.66 2 1 C1.01 1.33 0.02 1.66 -1 2 C-1.33 6.29 -1.66 10.58 -2 15 C-2.66 15 -3.32 15 -4 15 C-5.4224924 6.93920973 -5.4224924 6.93920973 -4 3 C-1.9375 1.1875 -1.9375 1.1875 0 0 Z " fill="#92BC56" transform="translate(118,59)"/>
<path d="M0 0 C6.3084922 -0.36395147 6.3084922 -0.36395147 9.375 1.25 C11.16671807 3.17954253 11.64393309 4.41851492 12 7 C11.01 7.33 10.02 7.66 9 8 C8.814375 7.38125 8.62875 6.7625 8.4375 6.125 C6.28562767 2.94397134 3.62466237 2.80548053 0 2 C0 1.34 0 0.68 0 0 Z " fill="#1D1D13" transform="translate(210,92)"/>
<path d="M0 0 C2.9156164 3.54039134 5.50127818 7.1626772 8 11 C4 11 4 11 2.48046875 9.609375 C2.05378906 8.99578125 1.62710938 8.3821875 1.1875 7.75 C0.52814453 6.84507813 0.52814453 6.84507813 -0.14453125 5.921875 C-1.20861066 3.53134043 -0.87071019 2.41448469 0 0 Z " fill="#161512" transform="translate(111,105)"/>
<path d="M0 0 C1.3921875 0.3403125 1.3921875 0.3403125 2.8125 0.6875 C2.4825 1.6775 2.1525 2.6675 1.8125 3.6875 C-1.125 4.9375 -1.125 4.9375 -4.1875 5.6875 C-4.8475 5.3575 -5.5075 5.0275 -6.1875 4.6875 C-6.1875 2.6875 -6.1875 2.6875 -5.0625 1 C-3.1875 -0.3125 -3.1875 -0.3125 0 0 Z " fill="#37362D" transform="translate(173.1875,72.3125)"/>
<path d="M0 0 C2 2 2 2 2.265625 4.09375 C2.25789062 5.28484375 2.25789062 5.28484375 2.25 6.5 C2.25515625 7.2940625 2.2603125 8.088125 2.265625 8.90625 C2 11 2 11 0 13 C-1 12 -1 12 -1.1328125 9.53125 C-1.13023437 8.5309375 -1.12765625 7.530625 -1.125 6.5 C-1.12757813 5.4996875 -1.13015625 4.499375 -1.1328125 3.46875 C-1 1 -1 1 0 0 Z " fill="#99AE5C" transform="translate(185,61)"/>
<path d="M0 0 C0.66 0.66 1.32 1.32 2 2 C2.99 1.34 3.98 0.68 5 0 C7.6875 -0.125 7.6875 -0.125 10 0 C9.67 0.99 9.34 1.98 9 3 C7.02 3.33 5.04 3.66 3 4 C2.67 4.99 2.34 5.98 2 7 C0 4 0 4 0 0 Z " fill="#161610" transform="translate(148,92)"/>
<path d="M0 0 C0.99 0.33 1.98 0.66 3 1 C3.144375 1.639375 3.28875 2.27875 3.4375 2.9375 C3.80104993 5.20311706 3.80104993 5.20311706 6.0625 6.25 C6.701875 6.4975 7.34125 6.745 8 7 C6.25 7.75 6.25 7.75 4 8 C1.75 6.3125 1.75 6.3125 0 4 C0 2.68 0 1.36 0 0 Z " fill="#19170E" transform="translate(181,108)"/>
<path d="M0 0 C2.31 0 4.62 0 7 0 C7 0.66 7 1.32 7 2 C6.01 2.33 5.02 2.66 4 3 C2.78130071 5.50447516 2.78130071 5.50447516 2 8 C1.34 8 0.68 8 0 8 C0 5.36 0 2.72 0 0 Z " fill="#9BC24E" transform="translate(190,65)"/>
<path d="M0 0 C0.33 0 0.66 0 1 0 C1 4.29 1 8.58 1 13 C0.01 12.67 -0.98 12.34 -2 12 C-1.85962479 10.18706911 -1.71255111 8.3746557 -1.5625 6.5625 C-1.48128906 5.55316406 -1.40007812 4.54382813 -1.31640625 3.50390625 C-1 1 -1 1 0 0 Z " fill="#505143" transform="translate(108,63)"/>
<path d="M0 0 C0.66 0 1.32 0 2 0 C2 2.64 2 5.28 2 8 C1.01 8.33 0.02 8.66 -1 9 C-1.09765625 2.84765625 -1.09765625 2.84765625 -1 1 C-0.67 0.67 -0.34 0.34 0 0 Z " fill="#040305" transform="translate(122,116)"/>
<path d="M0 0 C0.66 0.99 1.32 1.98 2 3 C-1.4019487 5.09350689 -4.05272412 5.17942163 -8 5 C-8 4.34 -8 3.68 -8 3 C-5.36 2.01 -2.72 1.02 0 0 Z " fill="#090A04" transform="translate(218,112)"/>
<path d="M0 0 C1.67542976 0.28604898 3.34385343 0.61781233 5 1 C5 1.99 5 2.98 5 4 C3.35 4.33 1.7 4.66 0 5 C-0.5625 3.0625 -0.5625 3.0625 -1 1 C-0.67 0.67 -0.34 0.34 0 0 Z " fill="#5E733E" transform="translate(168,65)"/>
<path d="M0 0 C0.99 0.33 1.98 0.66 3 1 C3 4.3 3 7.6 3 11 C2.34 11 1.68 11 1 11 C1 8.03 1 5.06 1 2 C0.34 1.67 -0.32 1.34 -1 1 C-0.67 0.67 -0.34 0.34 0 0 Z " fill="#9FB17B" transform="translate(200,61)"/>
<path d="M0 0 C0.66 0 1.32 0 2 0 C1.75 2.875 1.75 2.875 1 6 C-1.0625 7.375 -1.0625 7.375 -3 8 C-2.37240135 5.07120629 -1.41377341 2.63904371 0 0 Z " fill="#181813" transform="translate(95,107)"/>
<path d="M0 0 C0.66 0.33 1.32 0.66 2 1 C1.75 3.375 1.75 3.375 1 6 C-1.0625 7.3125 -1.0625 7.3125 -3 8 C-2.37240135 5.07120629 -1.41377341 2.63904371 0 0 Z " fill="#15140F" transform="translate(176,107)"/>
<path d="M0 0 C0.33 0.99 0.66 1.98 1 3 C-2.3 3 -5.6 3 -9 3 C-9.33 2.34 -9.66 1.68 -10 1 C-6.78548731 -0.60725635 -3.56387464 -0.05748185 0 0 Z " fill="#1D1F17" transform="translate(136,92)"/>
<path d="M0 0 C0.99 0 1.98 0 3 0 C3.625 1.8125 3.625 1.8125 4 4 C3.01 5.485 3.01 5.485 2 7 C1.34 7 0.68 7 0 7 C-0.93423645 3.98968256 -1.04449911 3.13349732 0 0 Z " fill="#3E4135" transform="translate(173,62)"/>
<path d="M0 0 C2.64 0.66 5.28 1.32 8 2 C7.67 2.99 7.34 3.98 7 5 C4.69 4.34 2.38 3.68 0 3 C0 2.01 0 1.02 0 0 Z " fill="#12110B" transform="translate(183,100)"/>
<path d="M0 0 C1.32 0.66 2.64 1.32 4 2 C4 3.65 4 5.3 4 7 C2.35 7.33 0.7 7.66 -1 8 C-0.4740625 7.13375 -0.4740625 7.13375 0.0625 6.25 C1.14917407 3.64198224 0.93065133 2.60582371 0 0 Z " fill="#353628" transform="translate(175,60)"/>
<path d="M0 0 C0 0.66 0 1.32 0 2 C-2.64 2 -5.28 2 -8 2 C-8.33 1.34 -8.66 0.68 -9 0 C-5.62182575 -0.84454356 -3.32534757 -1.10844919 0 0 Z " fill="#262420" transform="translate(98,103)"/>
<path d="M0 0 C3.96670899 0.44074544 6.68811135 1.82361603 10 4 C9.01 4.495 9.01 4.495 8 5 C4.86560559 3.92770717 1.93804317 2.52342979 -1 1 C-0.67 0.67 -0.34 0.34 0 0 Z " fill="#96C15D" transform="translate(121,57)"/>
<path d="M0 0 C2.97 0.495 2.97 0.495 6 1 C6 1.99 6 2.98 6 4 C4.35 3.67 2.7 3.34 1 3 C0.67 2.01 0.34 1.02 0 0 Z " fill="#0F0F0C" transform="translate(206,101)"/>
<path d="M0 0 C2.475 0.495 2.475 0.495 5 1 C5 1.66 5 2.32 5 3 C5.66 3.33 6.32 3.66 7 4 C3 4 3 4 0 2 C0 1.34 0 0.68 0 0 Z " fill="#A1B575" transform="translate(186,72)"/>
<path d="M0 0 C1.65 0 3.3 0 5 0 C5 0.99 5 1.98 5 3 C3.68 3 2.36 3 1 3 C0.67 2.01 0.34 1.02 0 0 Z " fill="#AEB278" transform="translate(203,58)"/>
</svg>
